M48
; DRILL file {KiCad (6.0.11)} date Sun Aug 11 23:08:22 2024
; FORMAT={-:-/ absolute / inch / decimal}
; #@! TF.CreationDate,2024-08-11T23:08:22-05:00
; #@! TF.GenerationSoftware,Kicad,Pcbnew,(6.0.11)
; #@! TF.FileFunction,Plated,1,2,PTH
FMAT,2
INCH
; #@! TA.AperFunction,Plated,PTH,ViaDrill
T1C0.0138
; #@! TA.AperFunction,Plated,PTH,ComponentDrill
T2C0.0362
; #@! TA.AperFunction,Plated,PTH,ComponentDrill
T3C0.0394
; #@! TA.AperFunction,Plated,PTH,ComponentDrill
T4C0.0917
%
G90
G05
T1
X5.5917Y-4.211
X5.5984Y-4.4425
X5.6122Y-4.0921
X5.6366Y-4.4366
X5.6504Y-4.3791
X5.6563Y-4.3043
X5.6626Y-4.4425
X5.6748Y-3.5563
X5.6807Y-4.1189
X5.687Y-3.9717
X5.6878Y-5.0248
X5.6945Y-4.8043
X5.715Y-4.315
X5.7461Y-3.2299
X5.75Y-3.4484
X5.7543Y-4.2469
X5.7571Y-4.5024
X5.7634Y-4.1224
X5.7642Y-3.1764
X5.7811Y-4.2354
X5.787Y-4.3949
X5.789Y-3.7756
X5.7898Y-3.4492
X5.8004Y-4.1992
X5.8024Y-4.148
X5.8075Y-4.1016
X5.8531Y-4.15
X5.8539Y-4.5035
X5.8618Y-4.4331
X5.8661Y-4.5673
X5.8705Y-4.4039
X5.8937Y-4.0516
X5.8976Y-4.1031
X5.8992Y-4.148
X5.9039Y-4.2024
X5.9268Y-4.9988
X5.9346Y-4.2469
X5.935Y-4.8295
X5.9374Y-4.1476
X5.9433Y-4.0606
X5.9484Y-3.2295
X5.9756Y-4.3634
X5.9858Y-3.8598
X5.987Y-3.9287
X5.9874Y-3.9736
X5.9886Y-3.8976
X5.9906Y-3.2295
X6.0Y-3.465
X6.0319Y-3.463
X6.0331Y-4.1373
X6.0457Y-3.7732
X6.0606Y-4.2157
X6.0949Y-4.0354
X6.0963Y-3.7711
X6.1055Y-3.9201
X6.1098Y-4.1858
X6.1283Y-4.148
X6.1299Y-3.4283
X6.1382Y-4.4622
T2
X5.7988Y-2.9937
X5.7988Y-3.0724
X5.8972Y-2.9937
X5.8972Y-3.0724
T3
X5.5Y-3.1
X5.5Y-3.2
X5.5Y-3.3
X5.5Y-3.4
X5.5Y-3.5
X5.5Y-3.6
X5.5Y-3.7
X5.5Y-3.8
X5.5Y-3.9
X5.5Y-4.0
X5.5Y-4.1
X5.5Y-4.2
X5.5Y-4.3
X5.5Y-4.4
X5.5Y-4.5
X5.5Y-4.6
X5.5Y-4.7
X5.5Y-4.8
X5.5Y-4.9
X5.5Y-5.0
X5.6996Y-4.7031
X5.7996Y-4.7031
X5.8996Y-4.7031
X5.9996Y-4.7031
X6.0555Y-3.6055
X6.0555Y-3.7055
X6.2Y-3.1
X6.2Y-3.2
X6.2Y-3.3
X6.2Y-3.4
X6.2Y-3.5
X6.2Y-3.6
X6.2Y-3.7
X6.2Y-3.8
X6.2Y-3.9
X6.2Y-4.0
X6.2Y-4.1
X6.2Y-4.2
X6.2Y-4.3
X6.2Y-4.4
X6.2Y-4.5
X6.2Y-4.6
X6.2Y-4.7
X6.2Y-4.8
X6.2Y-4.9
X6.2Y-5.0
T4
X5.611Y-2.887
X6.085Y-2.887
T0
M30
