%TF.GenerationSoftware,KiCad,Pcbnew,(6.0.11)*%
%TF.CreationDate,2024-08-11T23:08:21-05:00*%
%TF.ProjectId,PicoAlt,5069636f-416c-4742-9e6b-696361645f70,rev?*%
%TF.SameCoordinates,Original*%
%TF.FileFunction,Copper,L1,Top*%
%TF.FilePolarity,Positive*%
%FSLAX46Y46*%
G04 Gerber Fmt 4.6, Leading zero omitted, Abs format (unit mm)*
G04 Created by KiCad (PCBNEW (6.0.11)) date 2024-08-11 23:08:21*
%MOMM*%
%LPD*%
G01*
G04 APERTURE LIST*
G04 Aperture macros list*
%AMRoundRect*
0 Rectangle with rounded corners*
0 $1 Rounding radius*
0 $2 $3 $4 $5 $6 $7 $8 $9 X,Y pos of 4 corners*
0 Add a 4 corners polygon primitive as box body*
4,1,4,$2,$3,$4,$5,$6,$7,$8,$9,$2,$3,0*
0 Add four circle primitives for the rounded corners*
1,1,$1+$1,$2,$3*
1,1,$1+$1,$4,$5*
1,1,$1+$1,$6,$7*
1,1,$1+$1,$8,$9*
0 Add four rect primitives between the rounded corners*
20,1,$1+$1,$2,$3,$4,$5,0*
20,1,$1+$1,$4,$5,$6,$7,0*
20,1,$1+$1,$6,$7,$8,$9,0*
20,1,$1+$1,$8,$9,$2,$3,0*%
G04 Aperture macros list end*
%TA.AperFunction,SMDPad,CuDef*%
%ADD10RoundRect,0.225000X-0.225000X-0.250000X0.225000X-0.250000X0.225000X0.250000X-0.225000X0.250000X0*%
%TD*%
%TA.AperFunction,SMDPad,CuDef*%
%ADD11R,1.400000X1.200000*%
%TD*%
%TA.AperFunction,SMDPad,CuDef*%
%ADD12RoundRect,0.140000X0.140000X0.170000X-0.140000X0.170000X-0.140000X-0.170000X0.140000X-0.170000X0*%
%TD*%
%TA.AperFunction,ComponentPad*%
%ADD13R,1.700000X1.700000*%
%TD*%
%TA.AperFunction,ComponentPad*%
%ADD14C,1.700000*%
%TD*%
%TA.AperFunction,ComponentPad*%
%ADD15C,3.500000*%
%TD*%
%TA.AperFunction,SMDPad,CuDef*%
%ADD16RoundRect,0.135000X0.135000X0.185000X-0.135000X0.185000X-0.135000X-0.185000X0.135000X-0.185000X0*%
%TD*%
%TA.AperFunction,SMDPad,CuDef*%
%ADD17RoundRect,0.225000X0.225000X0.250000X-0.225000X0.250000X-0.225000X-0.250000X0.225000X-0.250000X0*%
%TD*%
%TA.AperFunction,SMDPad,CuDef*%
%ADD18RoundRect,0.237500X0.237500X-0.250000X0.237500X0.250000X-0.237500X0.250000X-0.237500X-0.250000X0*%
%TD*%
%TA.AperFunction,SMDPad,CuDef*%
%ADD19RoundRect,0.135000X-0.185000X0.135000X-0.185000X-0.135000X0.185000X-0.135000X0.185000X0.135000X0*%
%TD*%
%TA.AperFunction,SMDPad,CuDef*%
%ADD20RoundRect,0.140000X-0.170000X0.140000X-0.170000X-0.140000X0.170000X-0.140000X0.170000X0.140000X0*%
%TD*%
%TA.AperFunction,SMDPad,CuDef*%
%ADD21RoundRect,0.050000X-0.387500X-0.050000X0.387500X-0.050000X0.387500X0.050000X-0.387500X0.050000X0*%
%TD*%
%TA.AperFunction,SMDPad,CuDef*%
%ADD22RoundRect,0.050000X-0.050000X-0.387500X0.050000X-0.387500X0.050000X0.387500X-0.050000X0.387500X0*%
%TD*%
%TA.AperFunction,SMDPad,CuDef*%
%ADD23R,3.400000X3.400000*%
%TD*%
%TA.AperFunction,SMDPad,CuDef*%
%ADD24RoundRect,0.200000X-0.275000X0.200000X-0.275000X-0.200000X0.275000X-0.200000X0.275000X0.200000X0*%
%TD*%
%TA.AperFunction,SMDPad,CuDef*%
%ADD25R,2.000000X1.500000*%
%TD*%
%TA.AperFunction,SMDPad,CuDef*%
%ADD26R,2.000000X3.800000*%
%TD*%
%TA.AperFunction,ComponentPad*%
%ADD27O,1.700000X1.700000*%
%TD*%
%TA.AperFunction,SMDPad,CuDef*%
%ADD28RoundRect,0.140000X-0.140000X-0.170000X0.140000X-0.170000X0.140000X0.170000X-0.140000X0.170000X0*%
%TD*%
%TA.AperFunction,SMDPad,CuDef*%
%ADD29RoundRect,0.218750X0.218750X0.381250X-0.218750X0.381250X-0.218750X-0.381250X0.218750X-0.381250X0*%
%TD*%
%TA.AperFunction,SMDPad,CuDef*%
%ADD30R,1.800000X2.500000*%
%TD*%
%TA.AperFunction,SMDPad,CuDef*%
%ADD31RoundRect,0.237500X0.250000X0.237500X-0.250000X0.237500X-0.250000X-0.237500X0.250000X-0.237500X0*%
%TD*%
%TA.AperFunction,SMDPad,CuDef*%
%ADD32RoundRect,0.162500X0.162500X-0.437500X0.162500X0.437500X-0.162500X0.437500X-0.162500X-0.437500X0*%
%TD*%
%TA.AperFunction,SMDPad,CuDef*%
%ADD33RoundRect,0.237500X0.237500X-0.287500X0.237500X0.287500X-0.237500X0.287500X-0.237500X-0.287500X0*%
%TD*%
%TA.AperFunction,SMDPad,CuDef*%
%ADD34RoundRect,0.150000X0.150000X-1.125000X0.150000X1.125000X-0.150000X1.125000X-0.150000X-1.125000X0*%
%TD*%
%TA.AperFunction,SMDPad,CuDef*%
%ADD35RoundRect,0.135000X0.185000X-0.135000X0.185000X0.135000X-0.185000X0.135000X-0.185000X-0.135000X0*%
%TD*%
%TA.AperFunction,SMDPad,CuDef*%
%ADD36RoundRect,0.140000X0.170000X-0.140000X0.170000X0.140000X-0.170000X0.140000X-0.170000X-0.140000X0*%
%TD*%
%TA.AperFunction,SMDPad,CuDef*%
%ADD37RoundRect,0.225000X-0.250000X0.225000X-0.250000X-0.225000X0.250000X-0.225000X0.250000X0.225000X0*%
%TD*%
%TA.AperFunction,ViaPad*%
%ADD38C,0.550000*%
%TD*%
%TA.AperFunction,Conductor*%
%ADD39C,0.250000*%
%TD*%
%TA.AperFunction,Conductor*%
%ADD40C,0.130000*%
%TD*%
%TA.AperFunction,Conductor*%
%ADD41C,0.500000*%
%TD*%
G04 APERTURE END LIST*
D10*
%TO.P,C20,1*%
%TO.N,+3.3V*%
X149785000Y-100330000D03*
%TO.P,C20,2*%
%TO.N,GND*%
X151335000Y-100330000D03*
%TD*%
D11*
%TO.P,Y1,1,1*%
%TO.N,Net-(C16-Pad2)*%
X147720000Y-116650000D03*
%TO.P,Y1,2,2*%
%TO.N,GND*%
X149920000Y-116650000D03*
%TO.P,Y1,3,3*%
%TO.N,Net-(C17-Pad2)*%
X149920000Y-114950000D03*
%TO.P,Y1,4,4*%
%TO.N,GND*%
X147720000Y-114950000D03*
%TD*%
D12*
%TO.P,C13,1*%
%TO.N,+3.3V*%
X143710000Y-106980000D03*
%TO.P,C13,2*%
%TO.N,GND*%
X142750000Y-106980000D03*
%TD*%
D13*
%TO.P,J2,1,VBUS*%
%TO.N,VBUS*%
X147290000Y-78040000D03*
D14*
%TO.P,J2,2,D-*%
%TO.N,Net-(J2-Pad2)*%
X149790000Y-78040000D03*
%TO.P,J2,3,D+*%
%TO.N,Net-(J2-Pad3)*%
X149790000Y-76040000D03*
%TO.P,J2,4,GND*%
%TO.N,GND*%
X147290000Y-76040000D03*
D15*
%TO.P,J2,5,Shield*%
X154560000Y-73330000D03*
X142520000Y-73330000D03*
%TD*%
D16*
%TO.P,R9,1*%
%TO.N,Net-(R9-Pad1)*%
X144274000Y-88392000D03*
%TO.P,R9,2*%
%TO.N,QSPISS*%
X143254000Y-88392000D03*
%TD*%
D17*
%TO.P,C12,1*%
%TO.N,+3.3V*%
X154655000Y-88940000D03*
%TO.P,C12,2*%
%TO.N,GND*%
X153105000Y-88940000D03*
%TD*%
D18*
%TO.P,R1,1*%
%TO.N,Net-(D1-Pad2)*%
X154630000Y-110042500D03*
%TO.P,R1,2*%
%TO.N,GPIO25*%
X154630000Y-108217500D03*
%TD*%
D19*
%TO.P,R3,1*%
%TO.N,Net-(J2-Pad3)*%
X150600000Y-88330000D03*
%TO.P,R3,2*%
%TO.N,USBP*%
X150600000Y-89350000D03*
%TD*%
D20*
%TO.P,C1,1*%
%TO.N,+3.3V*%
X152500000Y-110330000D03*
%TO.P,C1,2*%
%TO.N,GND*%
X152500000Y-111290000D03*
%TD*%
D10*
%TO.P,C10,1*%
%TO.N,+1V1*%
X149805000Y-98790000D03*
%TO.P,C10,2*%
%TO.N,GND*%
X151355000Y-98790000D03*
%TD*%
D21*
%TO.P,U3,1,IOVDD*%
%TO.N,+3.3V*%
X145220000Y-102630000D03*
%TO.P,U3,2,GPIO0*%
%TO.N,GPIO0*%
X145220000Y-103030000D03*
%TO.P,U3,3,GPIO1*%
%TO.N,GPIO1*%
X145220000Y-103430000D03*
%TO.P,U3,4,GPIO2*%
%TO.N,GPIO2*%
X145220000Y-103830000D03*
%TO.P,U3,5,GPIO3*%
%TO.N,GPIO3*%
X145220000Y-104230000D03*
%TO.P,U3,6,DVDD*%
%TO.N,+1V1*%
X145220000Y-104630000D03*
%TO.P,U3,7,GPIO4*%
%TO.N,GPIO4*%
X145220000Y-105030000D03*
%TO.P,U3,8,GPIO5*%
%TO.N,GPIO5*%
X145220000Y-105430000D03*
%TO.P,U3,9,GPIO6*%
%TO.N,GPIO6*%
X145220000Y-105830000D03*
%TO.P,U3,10,GPIO7*%
%TO.N,GPIO7*%
X145220000Y-106230000D03*
%TO.P,U3,11,IOVDD*%
%TO.N,+3.3V*%
X145220000Y-106630000D03*
%TO.P,U3,12,GPIO8*%
%TO.N,GPIO8*%
X145220000Y-107030000D03*
%TO.P,U3,13,GPIO9*%
%TO.N,GPIO9*%
X145220000Y-107430000D03*
%TO.P,U3,14,GPIO10*%
%TO.N,GPIO10*%
X145220000Y-107830000D03*
%TO.P,U3,15,GPIO11*%
%TO.N,GPIO11*%
X145220000Y-108230000D03*
D22*
%TO.P,U3,16,GPIO12*%
%TO.N,GPIO12*%
X145870000Y-108880000D03*
%TO.P,U3,17,GPIO13*%
%TO.N,GPIO13*%
X146270000Y-108880000D03*
%TO.P,U3,18,GPIO14*%
%TO.N,GPIO14*%
X146670000Y-108880000D03*
%TO.P,U3,19,GPIO15*%
%TO.N,GPIO15*%
X147070000Y-108880000D03*
%TO.P,U3,20,IOVDD*%
%TO.N,+3.3V*%
X147470000Y-108880000D03*
%TO.P,U3,21,XIN*%
%TO.N,Net-(C16-Pad2)*%
X147870000Y-108880000D03*
%TO.P,U3,22,XOUT*%
%TO.N,Net-(R5-Pad2)*%
X148270000Y-108880000D03*
%TO.P,U3,23,DVDD*%
%TO.N,+1V1*%
X148670000Y-108880000D03*
%TO.P,U3,24,SWCLK*%
%TO.N,Net-(J3-Pad2)*%
X149070000Y-108880000D03*
%TO.P,U3,25,SWD*%
%TO.N,Net-(J3-Pad4)*%
X149470000Y-108880000D03*
%TO.P,U3,26,RUN*%
%TO.N,RUN*%
X149870000Y-108880000D03*
%TO.P,U3,27,GPIO16*%
%TO.N,GPIO16*%
X150270000Y-108880000D03*
%TO.P,U3,28,GPIO17*%
%TO.N,GPIO17*%
X150670000Y-108880000D03*
%TO.P,U3,29,GPIO18*%
%TO.N,GPIO18*%
X151070000Y-108880000D03*
%TO.P,U3,30,IOVDD*%
%TO.N,+3.3V*%
X151470000Y-108880000D03*
D21*
%TO.P,U3,31,GPIO19*%
%TO.N,GPIO19*%
X152120000Y-108230000D03*
%TO.P,U3,32,GPIO20*%
%TO.N,GPIO20*%
X152120000Y-107830000D03*
%TO.P,U3,33,GPIO21*%
%TO.N,GPIO21*%
X152120000Y-107430000D03*
%TO.P,U3,34,GPIO22*%
%TO.N,GPIO22*%
X152120000Y-107030000D03*
%TO.P,U3,35,GPIO23*%
%TO.N,GPIO23*%
X152120000Y-106630000D03*
%TO.P,U3,36,GPIO24*%
%TO.N,GPIO24*%
X152120000Y-106230000D03*
%TO.P,U3,37,GPIO25*%
%TO.N,GPIO25*%
X152120000Y-105830000D03*
%TO.P,U3,38,IOVDD*%
%TO.N,+3.3V*%
X152120000Y-105430000D03*
%TO.P,U3,39,DVDD*%
%TO.N,+1V1*%
X152120000Y-105030000D03*
%TO.P,U3,40,GPIO26_ADC0*%
%TO.N,GPIO26*%
X152120000Y-104630000D03*
%TO.P,U3,41,GPIO27_ADC1*%
%TO.N,GPIO27*%
X152120000Y-104230000D03*
%TO.P,U3,42,GPIO28_ADC2*%
%TO.N,GPIO28*%
X152120000Y-103830000D03*
%TO.P,U3,43,GPIO29_ADC3*%
%TO.N,GPIO29*%
X152120000Y-103430000D03*
%TO.P,U3,44,ADC_AVDD*%
%TO.N,ADCVREF*%
X152120000Y-103030000D03*
%TO.P,U3,45,IOVDD*%
%TO.N,+3.3V*%
X152120000Y-102630000D03*
D22*
%TO.P,U3,46,VREG_AVDD*%
%TO.N,Net-(C14-Pad1)*%
X151470000Y-101980000D03*
%TO.P,U3,47,VREG_PGND*%
%TO.N,GND*%
X151070000Y-101980000D03*
%TO.P,U3,48,VREG_LX*%
%TO.N,Net-(L1-Pad1)*%
X150670000Y-101980000D03*
%TO.P,U3,49,VREG_VIN*%
%TO.N,+3.3V*%
X150270000Y-101980000D03*
%TO.P,U3,50,VREG_FB*%
%TO.N,+1V1*%
X149870000Y-101980000D03*
%TO.P,U3,51,USB_DM*%
%TO.N,USBM*%
X149470000Y-101980000D03*
%TO.P,U3,52,USB_DP*%
%TO.N,USBP*%
X149070000Y-101980000D03*
%TO.P,U3,53,USB_OTP_VDD*%
%TO.N,+3.3V*%
X148670000Y-101980000D03*
%TO.P,U3,54,QSPI_IOVDD*%
X148270000Y-101980000D03*
%TO.P,U3,55,QSPI_SD3*%
%TO.N,QSPISD3*%
X147870000Y-101980000D03*
%TO.P,U3,56,QSPI_SCLK*%
%TO.N,QSPICLK*%
X147470000Y-101980000D03*
%TO.P,U3,57,QSPI_SD0*%
%TO.N,QSPISD0*%
X147070000Y-101980000D03*
%TO.P,U3,58,QSPI_SD2*%
%TO.N,QSPISD2*%
X146670000Y-101980000D03*
%TO.P,U3,59,QSPI_SD1*%
%TO.N,QSPISD1*%
X146270000Y-101980000D03*
%TO.P,U3,60,QSPI_SS*%
%TO.N,QSPISS*%
X145870000Y-101980000D03*
D23*
%TO.P,U3,61,GND*%
%TO.N,GND*%
X148670000Y-105430000D03*
%TD*%
D24*
%TO.P,R6,1*%
%TO.N,+3.3V*%
X148450000Y-122490000D03*
%TO.P,R6,2*%
%TO.N,RUN*%
X148450000Y-124140000D03*
%TD*%
D25*
%TO.P,U1,1,GND*%
%TO.N,GND*%
X147730000Y-81790000D03*
%TO.P,U1,2,VO*%
%TO.N,+3.3V*%
X147730000Y-84090000D03*
D26*
X154030000Y-84090000D03*
D25*
%TO.P,U1,3,VI*%
%TO.N,+5V*%
X147730000Y-86390000D03*
%TD*%
D13*
%TO.P,J3,1,Pin_1*%
%TO.N,+3.3V*%
X144770000Y-119460000D03*
D27*
%TO.P,J3,2,Pin_2*%
%TO.N,Net-(J3-Pad2)*%
X147310000Y-119460000D03*
%TO.P,J3,3,Pin_3*%
%TO.N,GND*%
X149850000Y-119460000D03*
%TO.P,J3,4,Pin_4*%
%TO.N,Net-(J3-Pad4)*%
X152390000Y-119460000D03*
%TD*%
D17*
%TO.P,C4,1*%
%TO.N,+5V*%
X148075000Y-88500000D03*
%TO.P,C4,2*%
%TO.N,GND*%
X146525000Y-88500000D03*
%TD*%
D28*
%TO.P,C19,1*%
%TO.N,+1V1*%
X153970000Y-105090000D03*
%TO.P,C19,2*%
%TO.N,GND*%
X154930000Y-105090000D03*
%TD*%
D29*
%TO.P,L1,1,1*%
%TO.N,Net-(L1-Pad1)*%
X151512500Y-96830000D03*
%TO.P,L1,2,2*%
%TO.N,+1V1*%
X149387500Y-96830000D03*
%TD*%
D30*
%TO.P,D2,1,K*%
%TO.N,+5V*%
X144400000Y-85710000D03*
%TO.P,D2,2,A*%
%TO.N,VBUS*%
X144400000Y-81710000D03*
%TD*%
D31*
%TO.P,R7,1*%
%TO.N,ADCVREF*%
X154872500Y-98370000D03*
%TO.P,R7,2*%
%TO.N,+3.3V*%
X153047500Y-98370000D03*
%TD*%
D16*
%TO.P,R5,1*%
%TO.N,Net-(C17-Pad2)*%
X148610000Y-113540000D03*
%TO.P,R5,2*%
%TO.N,Net-(R5-Pad2)*%
X147590000Y-113540000D03*
%TD*%
D32*
%TO.P,SW1,1,1*%
%TO.N,GND*%
X151565000Y-126970000D03*
X151565000Y-122670000D03*
%TO.P,SW1,2,2*%
%TO.N,RUN*%
X153715000Y-122670000D03*
X153715000Y-126970000D03*
%TD*%
D33*
%TO.P,D1,1,K*%
%TO.N,GND*%
X154630000Y-113435000D03*
%TO.P,D1,2,A*%
%TO.N,Net-(D1-Pad2)*%
X154630000Y-111685000D03*
%TD*%
D28*
%TO.P,C8,1*%
%TO.N,+3.3V*%
X153280000Y-102640000D03*
%TO.P,C8,2*%
%TO.N,GND*%
X154240000Y-102640000D03*
%TD*%
D10*
%TO.P,C14,1*%
%TO.N,Net-(C14-Pad1)*%
X153149000Y-100330000D03*
%TO.P,C14,2*%
%TO.N,GND*%
X154699000Y-100330000D03*
%TD*%
%TO.P,C15,1*%
%TO.N,+3.3V*%
X143305000Y-89810000D03*
%TO.P,C15,2*%
%TO.N,GND*%
X144855000Y-89810000D03*
%TD*%
D17*
%TO.P,C18,1*%
%TO.N,ADCVREF*%
X154805000Y-96760000D03*
%TO.P,C18,2*%
%TO.N,GND*%
X153255000Y-96760000D03*
%TD*%
D13*
%TO.P,JP1,1,A*%
%TO.N,Net-(J5-Pad17)*%
X153810000Y-91580000D03*
D27*
%TO.P,JP1,2,B*%
%TO.N,GPIO29*%
X153810000Y-94120000D03*
%TD*%
D34*
%TO.P,U2,8,VCC*%
%TO.N,+3.3V*%
X143235000Y-92125000D03*
%TO.P,U2,7,IO*%
%TO.N,QSPISD3*%
X144505000Y-92125000D03*
%TO.P,U2,6,CLK*%
%TO.N,QSPICLK*%
X145775000Y-92125000D03*
%TO.P,U2,5,DI(IO0)*%
%TO.N,QSPISD0*%
X147045000Y-92125000D03*
%TO.P,U2,4,GND*%
%TO.N,GND*%
X147045000Y-97675000D03*
%TO.P,U2,3,IO2*%
%TO.N,QSPISD2*%
X145775000Y-97675000D03*
%TO.P,U2,2,DO(IO1)*%
%TO.N,QSPISD1*%
X144505000Y-97675000D03*
%TO.P,U2,1,/CS*%
%TO.N,QSPISS*%
X143235000Y-97675000D03*
%TD*%
D13*
%TO.P,J5,1,Pin_1*%
%TO.N,GPIO16*%
X157480000Y-127000000D03*
D27*
%TO.P,J5,2,Pin_2*%
%TO.N,GPIO17*%
X157480000Y-124460000D03*
%TO.P,J5,3,Pin_3*%
%TO.N,GND*%
X157480000Y-121920000D03*
%TO.P,J5,4,Pin_4*%
%TO.N,GPIO18*%
X157480000Y-119380000D03*
%TO.P,J5,5,Pin_5*%
%TO.N,GPIO19*%
X157480000Y-116840000D03*
%TO.P,J5,6,Pin_6*%
%TO.N,GPIO20*%
X157480000Y-114300000D03*
%TO.P,J5,7,Pin_7*%
%TO.N,GPIO21*%
X157480000Y-111760000D03*
%TO.P,J5,8,Pin_8*%
%TO.N,GND*%
X157480000Y-109220000D03*
%TO.P,J5,9,Pin_9*%
%TO.N,GPIO22*%
X157480000Y-106680000D03*
%TO.P,J5,10,Pin_10*%
%TO.N,RUN*%
X157480000Y-104140000D03*
%TO.P,J5,11,Pin_11*%
%TO.N,GPIO26*%
X157480000Y-101600000D03*
%TO.P,J5,12,Pin_12*%
%TO.N,GPIO27*%
X157480000Y-99060000D03*
%TO.P,J5,13,Pin_13*%
%TO.N,GND*%
X157480000Y-96520000D03*
%TO.P,J5,14,Pin_14*%
%TO.N,GPIO28*%
X157480000Y-93980000D03*
%TO.P,J5,15,Pin_15*%
%TO.N,ADCVREF*%
X157480000Y-91440000D03*
%TO.P,J5,16,Pin_16*%
%TO.N,+3.3V*%
X157480000Y-88900000D03*
%TO.P,J5,17,Pin_17*%
%TO.N,Net-(J5-Pad17)*%
X157480000Y-86360000D03*
%TO.P,J5,18,Pin_18*%
%TO.N,GND*%
X157480000Y-83820000D03*
%TO.P,J5,19,Pin_19*%
%TO.N,+5V*%
X157480000Y-81280000D03*
%TO.P,J5,20,Pin_20*%
%TO.N,VBUS*%
X157480000Y-78740000D03*
%TD*%
D35*
%TO.P,R4,1*%
%TO.N,USBM*%
X149480000Y-89350000D03*
%TO.P,R4,2*%
%TO.N,Net-(J2-Pad2)*%
X149480000Y-88330000D03*
%TD*%
D20*
%TO.P,C16,1*%
%TO.N,GND*%
X146060000Y-115170000D03*
%TO.P,C16,2*%
%TO.N,Net-(C16-Pad2)*%
X146060000Y-116130000D03*
%TD*%
D36*
%TO.P,C2,1*%
%TO.N,+3.3V*%
X143700000Y-101810000D03*
%TO.P,C2,2*%
%TO.N,GND*%
X143700000Y-100850000D03*
%TD*%
D32*
%TO.P,SW2,1,1*%
%TO.N,Net-(R9-Pad1)*%
X143375000Y-126960000D03*
X143375000Y-122660000D03*
%TO.P,SW2,2,2*%
%TO.N,GND*%
X145525000Y-122660000D03*
X145525000Y-126960000D03*
%TD*%
D16*
%TO.P,R2,1*%
%TO.N,+3.3V*%
X154300000Y-101620000D03*
%TO.P,R2,2*%
%TO.N,Net-(C14-Pad1)*%
X153280000Y-101620000D03*
%TD*%
D12*
%TO.P,C3,1*%
%TO.N,+1V1*%
X143460000Y-104580000D03*
%TO.P,C3,2*%
%TO.N,GND*%
X142500000Y-104580000D03*
%TD*%
D20*
%TO.P,C9,1*%
%TO.N,+3.3V*%
X147320000Y-110180000D03*
%TO.P,C9,2*%
%TO.N,GND*%
X147320000Y-111140000D03*
%TD*%
D37*
%TO.P,C5,1*%
%TO.N,+3.3V*%
X142650000Y-110425000D03*
%TO.P,C5,2*%
%TO.N,GND*%
X142650000Y-111975000D03*
%TD*%
D28*
%TO.P,C11,1*%
%TO.N,+3.3V*%
X153550000Y-106120000D03*
%TO.P,C11,2*%
%TO.N,GND*%
X154510000Y-106120000D03*
%TD*%
D20*
%TO.P,C17,1*%
%TO.N,GND*%
X149630000Y-112580000D03*
%TO.P,C17,2*%
%TO.N,Net-(C17-Pad2)*%
X149630000Y-113540000D03*
%TD*%
D37*
%TO.P,C6,1*%
%TO.N,+1V1*%
X144280000Y-110435000D03*
%TO.P,C6,2*%
%TO.N,GND*%
X144280000Y-111985000D03*
%TD*%
D20*
%TO.P,C7,1*%
%TO.N,+1V1*%
X148700000Y-110080000D03*
%TO.P,C7,2*%
%TO.N,GND*%
X148700000Y-111040000D03*
%TD*%
D13*
%TO.P,J4,1,Pin_1*%
%TO.N,GPIO0*%
X139700000Y-78740000D03*
D27*
%TO.P,J4,2,Pin_2*%
%TO.N,GPIO1*%
X139700000Y-81280000D03*
%TO.P,J4,3,Pin_3*%
%TO.N,GND*%
X139700000Y-83820000D03*
%TO.P,J4,4,Pin_4*%
%TO.N,GPIO2*%
X139700000Y-86360000D03*
%TO.P,J4,5,Pin_5*%
%TO.N,GPIO3*%
X139700000Y-88900000D03*
%TO.P,J4,6,Pin_6*%
%TO.N,GPIO4*%
X139700000Y-91440000D03*
%TO.P,J4,7,Pin_7*%
%TO.N,GPIO5*%
X139700000Y-93980000D03*
%TO.P,J4,8,Pin_8*%
%TO.N,GND*%
X139700000Y-96520000D03*
%TO.P,J4,9,Pin_9*%
%TO.N,GPIO6*%
X139700000Y-99060000D03*
%TO.P,J4,10,Pin_10*%
%TO.N,GPIO7*%
X139700000Y-101600000D03*
%TO.P,J4,11,Pin_11*%
%TO.N,GPIO8*%
X139700000Y-104140000D03*
%TO.P,J4,12,Pin_12*%
%TO.N,GPIO9*%
X139700000Y-106680000D03*
%TO.P,J4,13,Pin_13*%
%TO.N,GND*%
X139700000Y-109220000D03*
%TO.P,J4,14,Pin_14*%
%TO.N,GPIO10*%
X139700000Y-111760000D03*
%TO.P,J4,15,Pin_15*%
%TO.N,GPIO11*%
X139700000Y-114300000D03*
%TO.P,J4,16,Pin_16*%
%TO.N,GPIO12*%
X139700000Y-116840000D03*
%TO.P,J4,17,Pin_17*%
%TO.N,GPIO13*%
X139700000Y-119380000D03*
%TO.P,J4,18,Pin_18*%
%TO.N,GND*%
X139700000Y-121920000D03*
%TO.P,J4,19,Pin_19*%
%TO.N,GPIO14*%
X139700000Y-124460000D03*
%TO.P,J4,20,Pin_20*%
%TO.N,GPIO15*%
X139700000Y-127000000D03*
%TD*%
D38*
%TO.N,GND*%
X144140000Y-90330000D03*
X152040000Y-98040000D03*
X152110000Y-99000000D03*
X152070000Y-99790000D03*
X152080000Y-100930000D03*
X146050000Y-87590000D03*
X147060000Y-87610000D03*
X147040000Y-95900000D03*
%TO.N,+3.3V*%
X143670000Y-109330000D03*
X146160000Y-107870000D03*
X149700000Y-102910000D03*
X155700000Y-87080000D03*
X150960000Y-103140000D03*
%TO.N,GND*%
X146230000Y-114360000D03*
X146410000Y-80680000D03*
X155910000Y-113340000D03*
X144470000Y-127630000D03*
X155660000Y-105360000D03*
X142030000Y-106960000D03*
X149800000Y-104220000D03*
X153210000Y-87960000D03*
X152400000Y-88010000D03*
X151780000Y-110830000D03*
X143830000Y-112840000D03*
X155080000Y-99570000D03*
X149840000Y-105360000D03*
X149110000Y-111860000D03*
X148670000Y-105410000D03*
X142550000Y-103940000D03*
X154810000Y-102500000D03*
X149000000Y-116010000D03*
X148890000Y-112600000D03*
X155190000Y-106320000D03*
X142200000Y-112840000D03*
X145950000Y-82040000D03*
X150540000Y-126970000D03*
X150750000Y-122670000D03*
X144450000Y-100880000D03*
X147510000Y-104180000D03*
X153560000Y-95840000D03*
X143520000Y-111230000D03*
X146990000Y-111630000D03*
X149960000Y-106740000D03*
X143170000Y-112690000D03*
X147380000Y-105360000D03*
X148690000Y-114390000D03*
X147330000Y-106660000D03*
X144640000Y-122030000D03*
%TO.N,+1V1*%
X146390000Y-104710000D03*
X144290000Y-104620000D03*
X145160000Y-109600000D03*
X150810000Y-105350000D03*
X146840000Y-107580000D03*
X153241179Y-105088032D03*
%TO.N,ADCVREF*%
X154845000Y-95785000D03*
%TO.N,RUN*%
X150740000Y-107870000D03*
X153940000Y-107080000D03*
%TO.N,Net-(J2-Pad2)*%
X151090000Y-82030000D03*
%TO.N,Net-(J2-Pad3)*%
X152160000Y-82030000D03*
%TD*%
D39*
%TO.N,+1V1*%
X149387500Y-98372500D02*
X149805000Y-98790000D01*
X149387500Y-96830000D02*
X149387500Y-98372500D01*
%TO.N,Net-(L1-Pad1)*%
X150560000Y-101090000D02*
X150560000Y-97782500D01*
X150670000Y-101980000D02*
X150670000Y-101200000D01*
X150670000Y-101200000D02*
X150560000Y-101090000D01*
X150560000Y-97782500D02*
X151512500Y-96830000D01*
%TO.N,GND*%
X151355000Y-98725000D02*
X151355000Y-98790000D01*
X152040000Y-98040000D02*
X151355000Y-98725000D01*
D40*
%TO.N,+3.3V*%
X153794000Y-101114000D02*
X154300000Y-101620000D01*
X153794000Y-99116500D02*
X153794000Y-101114000D01*
X153047500Y-98370000D02*
X153794000Y-99116500D01*
X153900000Y-90010000D02*
X154655000Y-89255000D01*
X153110000Y-90010000D02*
X153900000Y-90010000D01*
X152540001Y-90579999D02*
X153110000Y-90010000D01*
X153047500Y-98370000D02*
X152540001Y-97862501D01*
X154655000Y-89255000D02*
X154655000Y-88940000D01*
%TO.N,ADCVREF*%
X152503982Y-103030000D02*
X152120000Y-103030000D01*
X152783982Y-103310000D02*
X152503982Y-103030000D01*
X154834608Y-103310000D02*
X152783982Y-103310000D01*
%TO.N,+3.3V*%
X152540001Y-97862501D02*
X152540001Y-90579999D01*
%TO.N,ADCVREF*%
X155340000Y-101410000D02*
X155340000Y-102804608D01*
X155035000Y-101105000D02*
X155340000Y-101410000D01*
X154275000Y-101105000D02*
X155035000Y-101105000D01*
X154054000Y-100884000D02*
X154275000Y-101105000D01*
X154054000Y-99188500D02*
X154054000Y-100884000D01*
X154872500Y-98370000D02*
X154054000Y-99188500D01*
D39*
X154872500Y-96827500D02*
X154805000Y-96760000D01*
X154872500Y-98370000D02*
X154872500Y-96827500D01*
D40*
X155340000Y-102804608D02*
X154834608Y-103310000D01*
D39*
%TO.N,GND*%
X153255000Y-96145000D02*
X153255000Y-96760000D01*
X153560000Y-95840000D02*
X153255000Y-96145000D01*
%TO.N,ADCVREF*%
X154845000Y-95785000D02*
X154845000Y-96720000D01*
X154845000Y-96720000D02*
X154805000Y-96760000D01*
D40*
%TO.N,GPIO29*%
X154390000Y-94120000D02*
X153810000Y-94120000D01*
X155600000Y-95330000D02*
X154390000Y-94120000D01*
X155600000Y-102912304D02*
X155600000Y-95330000D01*
X154942304Y-103570000D02*
X155600000Y-102912304D01*
X152503982Y-103430000D02*
X152643982Y-103570000D01*
%TO.N,Net-(J5-Pad17)*%
X155580000Y-88260000D02*
X155580000Y-89810000D01*
X155580000Y-89810000D02*
X153810000Y-91580000D01*
X156410000Y-87430000D02*
X155580000Y-88260000D01*
%TO.N,GPIO29*%
X152643982Y-103570000D02*
X154942304Y-103570000D01*
X152120000Y-103430000D02*
X152503982Y-103430000D01*
D39*
%TO.N,GND*%
X153105000Y-88715000D02*
X153105000Y-88940000D01*
X152400000Y-88010000D02*
X153105000Y-88715000D01*
X153105000Y-88065000D02*
X153105000Y-88940000D01*
X153210000Y-87960000D02*
X153105000Y-88065000D01*
%TO.N,+3.3V*%
X154030000Y-88315000D02*
X154030000Y-84090000D01*
X154655000Y-88940000D02*
X154030000Y-88315000D01*
D40*
%TO.N,USBM*%
X149980000Y-88850000D02*
X149480000Y-89350000D01*
X151110000Y-88850000D02*
X149980000Y-88850000D01*
X151470000Y-89210000D02*
X151110000Y-88850000D01*
X148410001Y-93199999D02*
X151470000Y-90140000D01*
X148410001Y-100568323D02*
X148410001Y-93199999D01*
X149221482Y-101347500D02*
X149189178Y-101347500D01*
X149189178Y-101347500D02*
X148410001Y-100568323D01*
X149470000Y-101596018D02*
X149221482Y-101347500D01*
X149470000Y-101980000D02*
X149470000Y-101596018D01*
X151470000Y-90140000D02*
X151470000Y-89210000D01*
%TO.N,USBP*%
X148150000Y-100676018D02*
X148150000Y-92500000D01*
X150600000Y-90050000D02*
X150600000Y-89350000D01*
X149070000Y-101596018D02*
X148150000Y-100676018D01*
X149070000Y-101980000D02*
X149070000Y-101596018D01*
X148150000Y-92500000D02*
X150600000Y-90050000D01*
%TO.N,QSPICLK*%
X145775000Y-90815000D02*
X145775000Y-92125000D01*
X146140000Y-90450000D02*
X145775000Y-90815000D01*
X147630000Y-98950000D02*
X147630000Y-90947096D01*
X147160000Y-99420000D02*
X147630000Y-98950000D01*
X147160000Y-101134608D02*
X147160000Y-99420000D01*
X147132904Y-90450000D02*
X146140000Y-90450000D01*
X147470000Y-101444608D02*
X147160000Y-101134608D01*
X147470000Y-101960000D02*
X147470000Y-101444608D01*
X147630000Y-90947096D02*
X147132904Y-90450000D01*
%TO.N,QSPISD3*%
X144505000Y-91415000D02*
X144505000Y-92125000D01*
X145730000Y-90190000D02*
X144505000Y-91415000D01*
X147487696Y-90190000D02*
X145730000Y-90190000D01*
X147890000Y-99090000D02*
X147890000Y-90592304D01*
X147420000Y-99560000D02*
X147890000Y-99090000D01*
X147870000Y-101476912D02*
X147420000Y-101026912D01*
X147870000Y-101980000D02*
X147870000Y-101476912D01*
X147420000Y-101026912D02*
X147420000Y-99560000D01*
X147890000Y-90592304D02*
X147487696Y-90190000D01*
D39*
%TO.N,GND*%
X144660000Y-89810000D02*
X144140000Y-90330000D01*
X144855000Y-89810000D02*
X144660000Y-89810000D01*
X151900000Y-98790000D02*
X152110000Y-99000000D01*
X151355000Y-98790000D02*
X151900000Y-98790000D01*
X151530000Y-100330000D02*
X152070000Y-99790000D01*
X151335000Y-100330000D02*
X151530000Y-100330000D01*
X151480000Y-100330000D02*
X152080000Y-100930000D01*
X151335000Y-100330000D02*
X151480000Y-100330000D01*
X151070000Y-100595000D02*
X151335000Y-100330000D01*
X151070000Y-101980000D02*
X151070000Y-100595000D01*
X151335000Y-98810000D02*
X151355000Y-98790000D01*
X151335000Y-100330000D02*
X151335000Y-98810000D01*
D40*
%TO.N,+1V1*%
X149070000Y-99525000D02*
X149805000Y-98790000D01*
X149870000Y-101483970D02*
X149070000Y-100683970D01*
X149070000Y-100683970D02*
X149070000Y-99525000D01*
X149870000Y-101980000D02*
X149870000Y-101483970D01*
%TO.N,+3.3V*%
X150090000Y-100635000D02*
X149785000Y-100330000D01*
X150270000Y-101350000D02*
X150090000Y-101170000D01*
X150270000Y-101980000D02*
X150270000Y-101350000D01*
X150090000Y-101170000D02*
X150090000Y-100635000D01*
D39*
X148090000Y-84090000D02*
X147730000Y-84090000D01*
X149370000Y-85370000D02*
X148090000Y-84090000D01*
X149370000Y-87110000D02*
X149370000Y-85370000D01*
X148890000Y-87590000D02*
X149370000Y-87110000D01*
X148330000Y-89390000D02*
X148338823Y-89390000D01*
X148260000Y-89460000D02*
X148330000Y-89390000D01*
X145658823Y-89460000D02*
X148260000Y-89460000D01*
X148338823Y-89390000D02*
X148890000Y-88838823D01*
X145258823Y-89060000D02*
X145658823Y-89460000D01*
X148890000Y-88838823D02*
X148890000Y-87590000D01*
X143305000Y-89810000D02*
X144055000Y-89060000D01*
X144055000Y-89060000D02*
X145258823Y-89060000D01*
X143305000Y-89810000D02*
X143300000Y-89815000D01*
X143300000Y-89815000D02*
X143300000Y-92060000D01*
X143300000Y-92060000D02*
X143235000Y-92125000D01*
D40*
%TO.N,GND*%
X146525000Y-88500000D02*
X146525000Y-88145000D01*
X146525000Y-88145000D02*
X147060000Y-87610000D01*
D39*
%TO.N,+5V*%
X147730000Y-88155000D02*
X148075000Y-88500000D01*
X147730000Y-86390000D02*
X147730000Y-88155000D01*
D40*
%TO.N,GND*%
X146525000Y-88065000D02*
X146050000Y-87590000D01*
X146525000Y-88500000D02*
X146525000Y-88065000D01*
%TO.N,QSPISS*%
X143235000Y-95737000D02*
X142640000Y-95142000D01*
X142640000Y-95142000D02*
X142640000Y-89006000D01*
X143235000Y-97675000D02*
X143235000Y-95737000D01*
X142640000Y-89006000D02*
X143254000Y-88392000D01*
%TO.N,Net-(R9-Pad1)*%
X144310000Y-88356000D02*
X144274000Y-88392000D01*
X144310000Y-87860000D02*
X144310000Y-88356000D01*
X144180000Y-87730000D02*
X144310000Y-87860000D01*
X143260000Y-87730000D02*
X144180000Y-87730000D01*
X142930000Y-87400000D02*
X143260000Y-87730000D01*
X141510000Y-76520000D02*
X142950000Y-77960000D01*
X142950000Y-77960000D02*
X142950000Y-78320000D01*
X142950000Y-78320000D02*
X142930000Y-78340000D01*
X139520000Y-76520000D02*
X141510000Y-76520000D01*
X142930000Y-78340000D02*
X142930000Y-87400000D01*
X139230000Y-76810000D02*
X139520000Y-76520000D01*
X138220000Y-76810000D02*
X139230000Y-76810000D01*
%TO.N,GND*%
X147040000Y-97670000D02*
X147040000Y-95900000D01*
X147045000Y-97675000D02*
X147040000Y-97670000D01*
%TO.N,QSPISD0*%
X146440000Y-94170000D02*
X147045000Y-93565000D01*
X146440000Y-100782304D02*
X146440000Y-94170000D01*
X147045000Y-93565000D02*
X147045000Y-92125000D01*
X146930001Y-101272305D02*
X146440000Y-100782304D01*
X147070000Y-101960000D02*
X147070000Y-101420000D01*
X147070000Y-101420000D02*
X146930001Y-101280001D01*
X146930001Y-101280001D02*
X146930001Y-101272305D01*
%TO.N,QSPISD2*%
X145775000Y-100485000D02*
X145775000Y-97675000D01*
X146670000Y-101380000D02*
X145775000Y-100485000D01*
X146670000Y-101960000D02*
X146670000Y-101380000D01*
%TO.N,QSPISD1*%
X144520000Y-97690000D02*
X144505000Y-97675000D01*
X146270000Y-101380000D02*
X144520000Y-99630000D01*
X144520000Y-99630000D02*
X144520000Y-97690000D01*
X146270000Y-101960000D02*
X146270000Y-101380000D01*
%TO.N,QSPISS*%
X145870000Y-101450000D02*
X143235000Y-98815000D01*
X145870000Y-101980000D02*
X145870000Y-101450000D01*
X143235000Y-98815000D02*
X143235000Y-97675000D01*
D39*
%TO.N,Net-(J2-Pad3)*%
X152160000Y-86770000D02*
X150600000Y-88330000D01*
X152160000Y-82030000D02*
X152160000Y-86770000D01*
%TO.N,Net-(J2-Pad2)*%
X149530000Y-88330000D02*
X149480000Y-88330000D01*
X151220000Y-86640000D02*
X149530000Y-88330000D01*
X151220000Y-82160000D02*
X151220000Y-86640000D01*
X151090000Y-82030000D02*
X151220000Y-82160000D01*
%TO.N,+5V*%
X145080000Y-86390000D02*
X144400000Y-85710000D01*
X147730000Y-86390000D02*
X145080000Y-86390000D01*
D41*
%TO.N,+3.3V*%
X154030000Y-85440000D02*
X154030000Y-84090000D01*
X155670000Y-87080000D02*
X154030000Y-85440000D01*
X155700000Y-87080000D02*
X155670000Y-87080000D01*
D39*
%TO.N,GND*%
X147520000Y-81790000D02*
X147730000Y-81790000D01*
X146200000Y-81790000D02*
X147730000Y-81790000D01*
X145950000Y-82040000D02*
X146200000Y-81790000D01*
%TO.N,+3.3V*%
X150210000Y-81550000D02*
X151140000Y-80620000D01*
X152680000Y-80620000D02*
X154030000Y-81970000D01*
X148730000Y-84090000D02*
X150210000Y-82610000D01*
X150210000Y-82610000D02*
X150210000Y-81550000D01*
X154030000Y-81970000D02*
X154030000Y-84090000D01*
X147730000Y-84090000D02*
X148730000Y-84090000D01*
X151140000Y-80620000D02*
X152680000Y-80620000D01*
%TO.N,GND*%
X146410000Y-80680000D02*
X147520000Y-81790000D01*
%TO.N,+5V*%
X145010000Y-85710000D02*
X144400000Y-85710000D01*
X145950000Y-84770000D02*
X145010000Y-85710000D01*
X145950000Y-83360000D02*
X145950000Y-84770000D01*
X149460000Y-82760000D02*
X149360000Y-82860000D01*
X146450000Y-82860000D02*
X145950000Y-83360000D01*
X150870000Y-80230000D02*
X149460000Y-81640000D01*
X149460000Y-81640000D02*
X149460000Y-82760000D01*
X154900000Y-80230000D02*
X150870000Y-80230000D01*
X149360000Y-82860000D02*
X146450000Y-82860000D01*
X155260000Y-80590000D02*
X154900000Y-80230000D01*
D41*
%TO.N,VBUS*%
X146440000Y-78040000D02*
X147290000Y-78040000D01*
X144400000Y-80080000D02*
X146440000Y-78040000D01*
X144400000Y-81710000D02*
X144400000Y-80080000D01*
D40*
%TO.N,+3.3V*%
X151290000Y-105562965D02*
X151290000Y-107820000D01*
X144520000Y-102630000D02*
X145220000Y-102630000D01*
X144560000Y-106630000D02*
X144210000Y-106980000D01*
X145220000Y-106630000D02*
X144560000Y-106630000D01*
X151290000Y-107820000D02*
X151470000Y-108000000D01*
D39*
X146260000Y-111060000D02*
X147140000Y-110180000D01*
D40*
X146000000Y-107710000D02*
X146160000Y-107870000D01*
D41*
X144770000Y-119850000D02*
X147410000Y-122490000D01*
D40*
X144210000Y-106980000D02*
X143710000Y-106980000D01*
X146040000Y-102630000D02*
X146160000Y-102750000D01*
D39*
X146260000Y-112820000D02*
X146260000Y-111060000D01*
D40*
X145940000Y-106630000D02*
X145970000Y-106600000D01*
X143700000Y-101810000D02*
X144520000Y-102630000D01*
X143670000Y-109330000D02*
X143670000Y-109405000D01*
X145890000Y-106520000D02*
X145970000Y-106600000D01*
X151420000Y-105432965D02*
X151290000Y-105562965D01*
X146480000Y-108190000D02*
X147340000Y-108190000D01*
D41*
X145410000Y-118590000D02*
X145410000Y-117460000D01*
D40*
X152120000Y-105430000D02*
X151610000Y-105430000D01*
X150480661Y-102630000D02*
X150270000Y-102419339D01*
D39*
X145380000Y-115520000D02*
X145380000Y-113700000D01*
D40*
X147470000Y-108320000D02*
X147470000Y-108880000D01*
X151420000Y-105240000D02*
X151420000Y-105070000D01*
X148270000Y-102750000D02*
X149540000Y-102750000D01*
X151470000Y-108880000D02*
X151470000Y-109300000D01*
X147470000Y-108880000D02*
X147470000Y-110030000D01*
X145220000Y-102630000D02*
X146040000Y-102630000D01*
D41*
X144770000Y-119460000D02*
X144770000Y-119230000D01*
D40*
X148670000Y-101980000D02*
X148270000Y-101980000D01*
X148270000Y-101980000D02*
X148270000Y-102750000D01*
X151420000Y-105070000D02*
X151420000Y-105432965D01*
D39*
X147140000Y-110180000D02*
X147320000Y-110180000D01*
D40*
X151200000Y-104850000D02*
X151200000Y-103380000D01*
X153270000Y-102630000D02*
X153280000Y-102640000D01*
X145890000Y-103020000D02*
X145890000Y-106520000D01*
X152120000Y-102630000D02*
X150880000Y-102630000D01*
X152860000Y-105430000D02*
X153550000Y-106120000D01*
X143670000Y-109405000D02*
X142650000Y-110425000D01*
X146160000Y-102750000D02*
X148270000Y-102750000D01*
X145220000Y-106630000D02*
X145940000Y-106630000D01*
X147340000Y-108190000D02*
X147470000Y-108320000D01*
X150270000Y-102419339D02*
X150270000Y-101980000D01*
D41*
X144770000Y-119460000D02*
X144770000Y-119850000D01*
X144770000Y-119230000D02*
X145410000Y-118590000D01*
D40*
X146000000Y-106730000D02*
X145970000Y-106700000D01*
D39*
X145380000Y-113700000D02*
X146260000Y-112820000D01*
D40*
X150960000Y-103140000D02*
X150960000Y-102710000D01*
X147470000Y-110030000D02*
X147320000Y-110180000D01*
X150880000Y-102630000D02*
X150480661Y-102630000D01*
X150960000Y-102710000D02*
X150880000Y-102630000D01*
X146160000Y-102750000D02*
X145890000Y-103020000D01*
X154300000Y-101620000D02*
X153280000Y-102640000D01*
D41*
X147410000Y-122490000D02*
X148450000Y-122490000D01*
D39*
X145410000Y-117460000D02*
X145410000Y-115550000D01*
D40*
X150960000Y-103140000D02*
X151200000Y-103380000D01*
X151470000Y-109300000D02*
X152500000Y-110330000D01*
X146160000Y-107870000D02*
X146480000Y-108190000D01*
X151470000Y-108000000D02*
X151470000Y-108880000D01*
X145970000Y-106700000D02*
X145970000Y-106600000D01*
X152120000Y-105430000D02*
X152860000Y-105430000D01*
X149540000Y-102750000D02*
X149700000Y-102910000D01*
X151610000Y-105430000D02*
X151420000Y-105240000D01*
X151420000Y-105070000D02*
X151200000Y-104850000D01*
D39*
X145410000Y-115550000D02*
X145380000Y-115520000D01*
D40*
X152120000Y-102630000D02*
X153270000Y-102630000D01*
X146000000Y-106730000D02*
X146000000Y-107710000D01*
%TO.N,GND*%
X145270000Y-122660000D02*
X144640000Y-122030000D01*
X148700000Y-111450000D02*
X148700000Y-111040000D01*
X145140000Y-126960000D02*
X144470000Y-127630000D01*
X152500000Y-111290000D02*
X152240000Y-111290000D01*
X149790000Y-105410000D02*
X149840000Y-105360000D01*
X149960000Y-106700000D02*
X149960000Y-106740000D01*
X149920000Y-116650000D02*
X149640000Y-116650000D01*
D39*
X146230000Y-114360000D02*
X146060000Y-114530000D01*
D40*
X149630000Y-112580000D02*
X148910000Y-112580000D01*
X145525000Y-126960000D02*
X145140000Y-126960000D01*
X144280000Y-111985000D02*
X144275000Y-111985000D01*
X147720000Y-114950000D02*
X148130000Y-114950000D01*
X144280000Y-111985000D02*
X144280000Y-112390000D01*
X142650000Y-112390000D02*
X142650000Y-111975000D01*
X154240000Y-102640000D02*
X154670000Y-102640000D01*
D39*
X146060000Y-114530000D02*
X146060000Y-115170000D01*
D40*
X142550000Y-104530000D02*
X142550000Y-103940000D01*
X147510000Y-104180000D02*
X147510000Y-104250000D01*
X148130000Y-114950000D02*
X148690000Y-114390000D01*
X142730000Y-106960000D02*
X142750000Y-106980000D01*
X146990000Y-111470000D02*
X147320000Y-111140000D01*
X155660000Y-105360000D02*
X155390000Y-105090000D01*
X143170000Y-112495000D02*
X142650000Y-111975000D01*
X155390000Y-105090000D02*
X154930000Y-105090000D01*
X154699000Y-99951000D02*
X155080000Y-99570000D01*
X150750000Y-122670000D02*
X151565000Y-122670000D01*
X148670000Y-105410000D02*
X149960000Y-106700000D01*
X144450000Y-100880000D02*
X144420000Y-100850000D01*
X148910000Y-112580000D02*
X148890000Y-112600000D01*
X148670000Y-105410000D02*
X149790000Y-105410000D01*
X148620000Y-105360000D02*
X147380000Y-105360000D01*
X154670000Y-102640000D02*
X154810000Y-102500000D01*
X154510000Y-106120000D02*
X154990000Y-106120000D01*
X154990000Y-106120000D02*
X155190000Y-106320000D01*
X149110000Y-111860000D02*
X148700000Y-111450000D01*
X155910000Y-113340000D02*
X154725000Y-113340000D01*
X149640000Y-116650000D02*
X149000000Y-116010000D01*
X150540000Y-126970000D02*
X151565000Y-126970000D01*
X148670000Y-105410000D02*
X148670000Y-105350000D01*
X154699000Y-100330000D02*
X154699000Y-99951000D01*
X144420000Y-100850000D02*
X143700000Y-100850000D01*
X152240000Y-111290000D02*
X151780000Y-110830000D01*
X142500000Y-104580000D02*
X142550000Y-104530000D01*
X154725000Y-113340000D02*
X154630000Y-113435000D01*
X142030000Y-106960000D02*
X142730000Y-106960000D01*
X147510000Y-104250000D02*
X148670000Y-105410000D01*
X146990000Y-111630000D02*
X146990000Y-111470000D01*
X148580000Y-105410000D02*
X147330000Y-106660000D01*
X144275000Y-111985000D02*
X143520000Y-111230000D01*
X144280000Y-112390000D02*
X143830000Y-112840000D01*
X142200000Y-112840000D02*
X142650000Y-112390000D01*
X148670000Y-105410000D02*
X148580000Y-105410000D01*
X143170000Y-112690000D02*
X143170000Y-112495000D01*
X148670000Y-105350000D02*
X149800000Y-104220000D01*
X145525000Y-122660000D02*
X145270000Y-122660000D01*
X148670000Y-105410000D02*
X148620000Y-105360000D01*
%TO.N,+1V1*%
X150810000Y-105530000D02*
X150640000Y-105360000D01*
X149870000Y-102387035D02*
X149870000Y-101980000D01*
X143510000Y-104630000D02*
X143460000Y-104580000D01*
X153241179Y-105088032D02*
X153193147Y-105040000D01*
X144290000Y-104620000D02*
X145210000Y-104620000D01*
X146390000Y-104710000D02*
X146630000Y-104470000D01*
X148670000Y-108010000D02*
X148670000Y-108130000D01*
X147360000Y-103490000D02*
X149890000Y-103490000D01*
X150470000Y-102987035D02*
X149870000Y-102387035D01*
X150640000Y-105360000D02*
X150800000Y-105200000D01*
X144325000Y-110435000D02*
X145160000Y-109600000D01*
X149890000Y-103490000D02*
X150070000Y-103310000D01*
X149250000Y-107430000D02*
X150460000Y-107430000D01*
X150460000Y-107430000D02*
X150810000Y-107080000D01*
X145210000Y-104620000D02*
X145220000Y-104630000D01*
X153243147Y-105090000D02*
X153241179Y-105088032D01*
X148670000Y-107840000D02*
X148670000Y-108130000D01*
X144280000Y-110435000D02*
X144325000Y-110435000D01*
X148670000Y-108130000D02*
X148670000Y-108880000D01*
X153970000Y-105090000D02*
X153243147Y-105090000D01*
X150470000Y-103342965D02*
X150470000Y-103310000D01*
X146630000Y-104470000D02*
X146630000Y-103680000D01*
X146390000Y-104710000D02*
X146400000Y-104720000D01*
X148670000Y-108880000D02*
X148670000Y-110050000D01*
X146630000Y-103680000D02*
X146830000Y-103480000D01*
X146400000Y-104720000D02*
X146400000Y-107140000D01*
X150070000Y-103310000D02*
X150470000Y-103310000D01*
X146400000Y-107140000D02*
X146840000Y-107580000D01*
X153241179Y-105088032D02*
X153213147Y-105060000D01*
X144290000Y-104620000D02*
X143500000Y-104620000D01*
X150810000Y-107080000D02*
X150810000Y-105530000D01*
X152130000Y-105040000D02*
X152120000Y-105030000D01*
X147350000Y-103480000D02*
X147360000Y-103490000D01*
X150640000Y-105360000D02*
X150800000Y-105360000D01*
X148410000Y-107580000D02*
X148670000Y-107840000D01*
X149250000Y-107430000D02*
X148670000Y-108010000D01*
X146830000Y-103480000D02*
X147350000Y-103480000D01*
X150470000Y-103310000D02*
X150470000Y-102987035D01*
X150800000Y-105200000D02*
X150800000Y-103672965D01*
X150800000Y-105360000D02*
X150810000Y-105350000D01*
X148670000Y-110050000D02*
X148700000Y-110080000D01*
X146840000Y-107580000D02*
X148410000Y-107580000D01*
X153193147Y-105040000D02*
X152130000Y-105040000D01*
X143500000Y-104620000D02*
X143460000Y-104580000D01*
X150800000Y-103672965D02*
X150470000Y-103342965D01*
D41*
%TO.N,+5V*%
X155260000Y-80590000D02*
X155280000Y-80610000D01*
X156810000Y-80610000D02*
X157480000Y-81280000D01*
X155280000Y-80610000D02*
X156810000Y-80610000D01*
D40*
%TO.N,Net-(C16-Pad2)*%
X146740000Y-112680000D02*
X146740000Y-116070000D01*
X147870000Y-108880000D02*
X147870000Y-111550000D01*
X147870000Y-111550000D02*
X146740000Y-112680000D01*
X146740000Y-116070000D02*
X146120000Y-116070000D01*
X147320000Y-116650000D02*
X147720000Y-116650000D01*
X146120000Y-116070000D02*
X146060000Y-116130000D01*
X146740000Y-116070000D02*
X147320000Y-116650000D01*
%TO.N,Net-(C17-Pad2)*%
X148610000Y-113540000D02*
X149920000Y-114850000D01*
X149630000Y-113540000D02*
X148610000Y-113540000D01*
X149920000Y-114850000D02*
X149920000Y-114950000D01*
D41*
%TO.N,VBUS*%
X157480000Y-78740000D02*
X156590000Y-79630000D01*
X156590000Y-79630000D02*
X148880000Y-79630000D01*
X148880000Y-79630000D02*
X147290000Y-78040000D01*
%TO.N,GPIO0*%
X139700000Y-78740000D02*
X140240000Y-78740000D01*
D40*
X142360000Y-80860000D02*
X141200000Y-79700000D01*
X143060000Y-99616912D02*
X142360000Y-98916912D01*
X142360000Y-98916912D02*
X142360000Y-80860000D01*
X145220000Y-103030000D02*
X144552304Y-103030000D01*
X144552304Y-103030000D02*
X143992304Y-102470000D01*
X143060000Y-102020000D02*
X143060000Y-99616912D01*
X143510000Y-102470000D02*
X143060000Y-102020000D01*
X143992304Y-102470000D02*
X143510000Y-102470000D01*
D41*
X140240000Y-78740000D02*
X141200000Y-79700000D01*
%TO.N,GPIO1*%
X139940000Y-81280000D02*
X139700000Y-81280000D01*
D40*
X142050000Y-83390000D02*
X141180000Y-82520000D01*
X143904608Y-102750000D02*
X143350000Y-102750000D01*
X143350000Y-102750000D02*
X142800000Y-102200000D01*
D41*
X141180000Y-82520000D02*
X139940000Y-81280000D01*
D40*
X144584608Y-103430000D02*
X143904608Y-102750000D01*
X142070000Y-98994608D02*
X142070000Y-83440000D01*
X142070000Y-83440000D02*
X142050000Y-83420000D01*
X142800000Y-102200000D02*
X142800000Y-99724608D01*
X145220000Y-103430000D02*
X144584608Y-103430000D01*
X142050000Y-83420000D02*
X142050000Y-83390000D01*
X142800000Y-99724608D02*
X142070000Y-98994608D01*
%TO.N,GPIO2*%
X144616912Y-103830000D02*
X143796912Y-103010000D01*
X145220000Y-103830000D02*
X144616912Y-103830000D01*
D41*
X141200000Y-87760000D02*
X139800000Y-86360000D01*
D40*
X142540000Y-102370000D02*
X142540000Y-100010000D01*
X143796912Y-103010000D02*
X143180000Y-103010000D01*
X141770000Y-99240000D02*
X141770000Y-88330000D01*
X141770000Y-88330000D02*
X141200000Y-87760000D01*
D41*
X139800000Y-86360000D02*
X139700000Y-86360000D01*
D40*
X143180000Y-103010000D02*
X142540000Y-102370000D01*
X142540000Y-100010000D02*
X141770000Y-99240000D01*
%TO.N,GPIO3*%
X144649216Y-104230000D02*
X143909216Y-103490000D01*
X141510000Y-99390000D02*
X141510000Y-90620000D01*
X142280000Y-102510000D02*
X142280000Y-100160000D01*
D41*
X141040000Y-90200000D02*
X140660000Y-89820000D01*
D40*
X141510000Y-90620000D02*
X140710000Y-89820000D01*
X145220000Y-104230000D02*
X144649216Y-104230000D01*
D41*
X141040000Y-90220000D02*
X141040000Y-90200000D01*
D40*
X140710000Y-89820000D02*
X140660000Y-89820000D01*
D41*
X139700000Y-88900000D02*
X141020000Y-90220000D01*
X141020000Y-90220000D02*
X141040000Y-90220000D01*
D40*
X143260000Y-103490000D02*
X142280000Y-102510000D01*
X143909216Y-103490000D02*
X143260000Y-103490000D01*
X142280000Y-100160000D02*
X141510000Y-99390000D01*
%TO.N,GPIO4*%
X141900000Y-104810000D02*
X142390000Y-105300000D01*
X141900000Y-100350000D02*
X141900000Y-104810000D01*
X142390000Y-105300000D02*
X144340000Y-105300000D01*
X141230000Y-99680000D02*
X141900000Y-100350000D01*
X140820000Y-92530000D02*
X141230000Y-92940000D01*
X144340000Y-105300000D02*
X144610000Y-105030000D01*
D41*
X139700000Y-91440000D02*
X140790000Y-92530000D01*
X140790000Y-92530000D02*
X140820000Y-92530000D01*
D40*
X144610000Y-105030000D02*
X145220000Y-105030000D01*
X141230000Y-92940000D02*
X141230000Y-99680000D01*
%TO.N,GPIO5*%
X144540000Y-105600000D02*
X144710000Y-105430000D01*
D41*
X140650000Y-95130000D02*
X139700000Y-94180000D01*
D40*
X144710000Y-105430000D02*
X145220000Y-105430000D01*
X141640000Y-105000000D02*
X142240000Y-105600000D01*
X142240000Y-105600000D02*
X144540000Y-105600000D01*
X140970000Y-95450000D02*
X140970000Y-99880000D01*
D41*
X139700000Y-94180000D02*
X139700000Y-93980000D01*
D40*
X141640000Y-100550000D02*
X141640000Y-105000000D01*
X140970000Y-99880000D02*
X141640000Y-100550000D01*
X140650000Y-95130000D02*
X140970000Y-95450000D01*
%TO.N,GPIO6*%
X141370000Y-105130000D02*
X142100000Y-105860000D01*
X140730000Y-100500000D02*
X141370000Y-101140000D01*
X145190000Y-105860000D02*
X145220000Y-105830000D01*
X141370000Y-101140000D02*
X141370000Y-105130000D01*
D41*
X140730000Y-100500000D02*
X139700000Y-99470000D01*
D40*
X142100000Y-105860000D02*
X145190000Y-105860000D01*
D41*
X139700000Y-99470000D02*
X139700000Y-99060000D01*
D40*
%TO.N,GPIO7*%
X141950000Y-106230000D02*
X145220000Y-106230000D01*
X141110000Y-102560000D02*
X141110000Y-105390000D01*
D41*
X139700000Y-101600000D02*
X140150000Y-101600000D01*
D40*
X141110000Y-105390000D02*
X141950000Y-106230000D01*
D41*
X140150000Y-101600000D02*
X140920000Y-102370000D01*
D40*
X140920000Y-102370000D02*
X141110000Y-102560000D01*
%TO.N,GPIO8*%
X141050000Y-106730000D02*
X142110000Y-107790000D01*
X140440000Y-105240000D02*
X140500000Y-105240000D01*
X142110000Y-107790000D02*
X143890000Y-107790000D01*
X143890000Y-107790000D02*
X144650000Y-107030000D01*
X141050000Y-105790000D02*
X141050000Y-106730000D01*
D41*
X140440000Y-104880000D02*
X139700000Y-104140000D01*
D40*
X144650000Y-107030000D02*
X145220000Y-107030000D01*
D41*
X140440000Y-105240000D02*
X140440000Y-104880000D01*
D40*
X140500000Y-105240000D02*
X141050000Y-105790000D01*
D41*
%TO.N,GPIO9*%
X139700000Y-106680000D02*
X141090000Y-108070000D01*
D40*
X143980000Y-108150000D02*
X141170000Y-108150000D01*
X145220000Y-107430000D02*
X144700000Y-107430000D01*
X144700000Y-107430000D02*
X143980000Y-108150000D01*
%TO.N,GPIO10*%
X141570000Y-109350000D02*
X141570000Y-109610000D01*
D41*
X139700000Y-111760000D02*
X140590000Y-110870000D01*
D40*
X145220000Y-107830000D02*
X144830000Y-107830000D01*
X144220000Y-108440000D02*
X142480000Y-108440000D01*
X140590000Y-110590000D02*
X140590000Y-110830000D01*
D41*
X140590000Y-110870000D02*
X140590000Y-110830000D01*
D40*
X144830000Y-107830000D02*
X144220000Y-108440000D01*
X142480000Y-108440000D02*
X141570000Y-109350000D01*
X141570000Y-109610000D02*
X140590000Y-110590000D01*
%TO.N,GPIO11*%
X143067696Y-108730000D02*
X141560000Y-110237696D01*
X145220000Y-108230000D02*
X144797696Y-108230000D01*
X141560000Y-112440000D02*
X140740000Y-113260000D01*
X144297696Y-108730000D02*
X143067696Y-108730000D01*
X141560000Y-110237696D02*
X141560000Y-112440000D01*
D41*
X139700000Y-114300000D02*
X140740000Y-113260000D01*
D40*
X144797696Y-108230000D02*
X144297696Y-108730000D01*
%TO.N,GPIO12*%
X145160000Y-112364608D02*
X141674608Y-115850000D01*
X141674608Y-115850000D02*
X140680000Y-115850000D01*
D41*
X140680000Y-115860000D02*
X140680000Y-115850000D01*
D40*
X145870000Y-108880000D02*
X145870000Y-109602304D01*
X145160000Y-110312304D02*
X145160000Y-112364608D01*
X145870000Y-109602304D02*
X145160000Y-110312304D01*
D41*
X139700000Y-116840000D02*
X140680000Y-115860000D01*
%TO.N,GPIO13*%
X139700000Y-119380000D02*
X140900000Y-118180000D01*
D40*
X146270000Y-108880000D02*
X146270000Y-109570000D01*
X145420000Y-110420000D02*
X145420000Y-112472304D01*
X146270000Y-109570000D02*
X145420000Y-110420000D01*
X140900000Y-116992304D02*
X140900000Y-118180000D01*
X145420000Y-112472304D02*
X140900000Y-116992304D01*
%TO.N,GPIO14*%
X142450000Y-119640000D02*
X141080000Y-121010000D01*
X143400000Y-116487108D02*
X142449999Y-117437109D01*
X142449999Y-117437109D02*
X142450000Y-119640000D01*
D41*
X140990000Y-123170000D02*
X141010000Y-123170000D01*
D40*
X145680000Y-112580000D02*
X143400000Y-114860000D01*
X141080000Y-121010000D02*
X141080000Y-123080000D01*
X146670000Y-108880000D02*
X146670000Y-109580000D01*
X143400000Y-114860000D02*
X143400000Y-116487108D01*
X145680000Y-110570000D02*
X145680000Y-112580000D01*
D41*
X139700000Y-124460000D02*
X140990000Y-123170000D01*
D40*
X146670000Y-109580000D02*
X145680000Y-110570000D01*
%TO.N,GPIO15*%
X145940000Y-112687452D02*
X143690000Y-114937452D01*
X143690000Y-116564804D02*
X142709999Y-117544805D01*
X142709999Y-117544805D02*
X142710000Y-120820000D01*
D41*
X139700000Y-127000000D02*
X140860000Y-125840000D01*
D40*
X145940000Y-110730000D02*
X145940000Y-112687452D01*
X140900000Y-125840000D02*
X140860000Y-125840000D01*
X143690000Y-114937452D02*
X143690000Y-116564804D01*
X147070000Y-109600000D02*
X145940000Y-110730000D01*
X142710000Y-120820000D02*
X141650000Y-121880000D01*
X141650000Y-125090000D02*
X140900000Y-125840000D01*
X141650000Y-121880000D02*
X141650000Y-125090000D01*
X147070000Y-108880000D02*
X147070000Y-109600000D01*
D41*
X140860000Y-125840000D02*
X140870000Y-125840000D01*
D40*
%TO.N,GPIO16*%
X154440000Y-124180000D02*
X154440000Y-118850000D01*
X151400000Y-112900000D02*
X151400000Y-112270000D01*
X151400000Y-112270000D02*
X150270000Y-111140000D01*
X150270000Y-111140000D02*
X150270000Y-108880000D01*
D41*
X157260000Y-127000000D02*
X155870000Y-125610000D01*
D40*
X151960000Y-116370000D02*
X151960000Y-113460000D01*
D41*
X157480000Y-127000000D02*
X157260000Y-127000000D01*
D40*
X151960000Y-113460000D02*
X151400000Y-112900000D01*
X155870000Y-125610000D02*
X154440000Y-124180000D01*
X154440000Y-118850000D02*
X151960000Y-116370000D01*
%TO.N,GPIO17*%
X152310000Y-113400000D02*
X152310000Y-116190000D01*
X152310000Y-116190000D02*
X154810000Y-118690000D01*
X154810000Y-118690000D02*
X154810000Y-121790000D01*
X151700000Y-112790000D02*
X152310000Y-113400000D01*
X151700000Y-111970000D02*
X151700000Y-112790000D01*
X150670000Y-108880000D02*
X150670000Y-110940000D01*
D41*
X157480000Y-124460000D02*
X156370000Y-123350000D01*
D40*
X150670000Y-110940000D02*
X151700000Y-111970000D01*
X154810000Y-121790000D02*
X156370000Y-123350000D01*
%TO.N,GPIO18*%
X152570000Y-113170000D02*
X151960000Y-112560000D01*
X152570000Y-115980000D02*
X152570000Y-113170000D01*
X151080000Y-108890000D02*
X151070000Y-108880000D01*
D41*
X155680000Y-118870000D02*
X156970000Y-118870000D01*
X156970000Y-118870000D02*
X157480000Y-119380000D01*
D40*
X151960000Y-111730000D02*
X151080000Y-110850000D01*
X155460000Y-118870000D02*
X152570000Y-115980000D01*
X151080000Y-110850000D02*
X151080000Y-108890000D01*
X151960000Y-112560000D02*
X151960000Y-111730000D01*
X155680000Y-118870000D02*
X155460000Y-118870000D01*
%TO.N,GPIO19*%
X152120000Y-108940000D02*
X152120000Y-108230000D01*
X153200000Y-110020000D02*
X152120000Y-108940000D01*
X155850000Y-116110000D02*
X154370000Y-116110000D01*
X153200000Y-114940000D02*
X153200000Y-110020000D01*
D41*
X156580000Y-116840000D02*
X155850000Y-116110000D01*
D40*
X154370000Y-116110000D02*
X153200000Y-114940000D01*
D41*
X157480000Y-116840000D02*
X156580000Y-116840000D01*
D40*
%TO.N,GPIO20*%
X152890000Y-109300000D02*
X153460000Y-109870000D01*
X153460000Y-109870000D02*
X153460000Y-113940000D01*
X153460000Y-113940000D02*
X153910000Y-114390000D01*
X153910000Y-114390000D02*
X155540000Y-114390000D01*
X152720000Y-107830000D02*
X152890000Y-108000000D01*
X152890000Y-108000000D02*
X152890000Y-109300000D01*
D41*
X157220000Y-114040000D02*
X157480000Y-114300000D01*
X155890000Y-114040000D02*
X157220000Y-114040000D01*
D40*
X152120000Y-107830000D02*
X152720000Y-107830000D01*
X155540000Y-114390000D02*
X155890000Y-114040000D01*
%TO.N,GPIO21*%
X154000000Y-112570000D02*
X155530000Y-112570000D01*
X152687696Y-107430000D02*
X153150000Y-107892304D01*
X153760000Y-112330000D02*
X154000000Y-112570000D01*
D41*
X156340000Y-111760000D02*
X157480000Y-111760000D01*
X155690000Y-112410000D02*
X156340000Y-111760000D01*
D40*
X153760000Y-109770000D02*
X153760000Y-112330000D01*
X153150000Y-109160000D02*
X153760000Y-109770000D01*
X155530000Y-112570000D02*
X155690000Y-112410000D01*
X153150000Y-107892304D02*
X153150000Y-109160000D01*
X152120000Y-107430000D02*
X152687696Y-107430000D01*
%TO.N,GPIO22*%
X152700000Y-107030000D02*
X153410000Y-107740000D01*
X155960000Y-107120000D02*
X156400000Y-106680000D01*
X152120000Y-107030000D02*
X152700000Y-107030000D01*
X153810000Y-109180000D02*
X155270000Y-109180000D01*
X153410000Y-107740000D02*
X153410000Y-108780000D01*
X153410000Y-108780000D02*
X153810000Y-109180000D01*
D41*
X156400000Y-106680000D02*
X157480000Y-106680000D01*
D40*
X155960000Y-108490000D02*
X155960000Y-107120000D01*
X155270000Y-109180000D02*
X155960000Y-108490000D01*
D41*
%TO.N,RUN*%
X157480000Y-104140000D02*
X157050000Y-104140000D01*
D40*
X155170000Y-107080000D02*
X156160000Y-106090000D01*
X149870000Y-108496018D02*
X149870000Y-108880000D01*
D41*
X157050000Y-104140000D02*
X156450000Y-104740000D01*
D40*
X149880000Y-111160000D02*
X149880000Y-108890000D01*
X153715000Y-122670000D02*
X153715000Y-118825000D01*
X150496018Y-107870000D02*
X149870000Y-108496018D01*
D39*
X152245000Y-124140000D02*
X153715000Y-122670000D01*
D40*
X150740000Y-107870000D02*
X150496018Y-107870000D01*
X151660000Y-116770000D02*
X151660000Y-113598518D01*
X156160000Y-105030000D02*
X156240000Y-104950000D01*
X151660000Y-113598518D02*
X151061482Y-113000000D01*
X153715000Y-118825000D02*
X151660000Y-116770000D01*
X153940000Y-107080000D02*
X155170000Y-107080000D01*
D41*
X156450000Y-104740000D02*
X156240000Y-104950000D01*
D40*
X151061482Y-113000000D02*
X151061482Y-112341482D01*
X151061482Y-112341482D02*
X149880000Y-111160000D01*
D39*
X148450000Y-124140000D02*
X152245000Y-124140000D01*
D40*
X156160000Y-106090000D02*
X156160000Y-105030000D01*
X153715000Y-122670000D02*
X153715000Y-126970000D01*
X149880000Y-108890000D02*
X149870000Y-108880000D01*
%TO.N,GPIO26*%
X152870000Y-104630000D02*
X152120000Y-104630000D01*
X153050000Y-104450000D02*
X152870000Y-104630000D01*
D41*
X157480000Y-101810000D02*
X157480000Y-101600000D01*
D40*
X156520000Y-103300000D02*
X155350000Y-104470000D01*
X155350000Y-104470000D02*
X155280000Y-104470000D01*
X155260000Y-104450000D02*
X153050000Y-104450000D01*
D41*
X156670000Y-102620000D02*
X157480000Y-101810000D01*
D40*
X156670000Y-102620000D02*
X156520000Y-102770000D01*
X155280000Y-104470000D02*
X155260000Y-104450000D01*
X156520000Y-102770000D02*
X156520000Y-103300000D01*
%TO.N,GPIO27*%
X152120000Y-104230000D02*
X152902304Y-104230000D01*
X152902304Y-104230000D02*
X153032304Y-104100000D01*
X155150000Y-104100000D02*
X156120000Y-103130000D01*
X156120000Y-103130000D02*
X156120000Y-100420000D01*
D41*
X157480000Y-99060000D02*
X156465000Y-100075000D01*
D40*
X156120000Y-100420000D02*
X156465000Y-100075000D01*
X153032304Y-104100000D02*
X155150000Y-104100000D01*
D41*
%TO.N,GPIO28*%
X157480000Y-93980000D02*
X156300000Y-95160000D01*
D40*
X155860000Y-103020000D02*
X155860000Y-95600000D01*
X155050000Y-103830000D02*
X155860000Y-103020000D01*
X152120000Y-103830000D02*
X155050000Y-103830000D01*
X155860000Y-95600000D02*
X156300000Y-95160000D01*
%TO.N,Net-(R5-Pad2)*%
X148130000Y-112060000D02*
X147590000Y-112600000D01*
X148270000Y-109263982D02*
X148130000Y-109403982D01*
X148130000Y-109403982D02*
X148130000Y-112060000D01*
X148270000Y-108880000D02*
X148270000Y-109263982D01*
X147590000Y-112600000D02*
X147590000Y-113540000D01*
%TO.N,GPIO25*%
X152720000Y-105830000D02*
X152900000Y-106010000D01*
X154327500Y-108217500D02*
X154630000Y-108217500D01*
X152900000Y-106790000D02*
X154327500Y-108217500D01*
X152900000Y-106010000D02*
X152900000Y-106790000D01*
X152120000Y-105830000D02*
X152720000Y-105830000D01*
%TO.N,Net-(J3-Pad2)*%
X149280000Y-111337035D02*
X150541482Y-112598518D01*
X149070000Y-108880000D02*
X149070000Y-109390000D01*
D41*
X147310000Y-119180000D02*
X148130000Y-118360000D01*
D40*
X149280000Y-109600000D02*
X149280000Y-111337035D01*
X148130000Y-118360000D02*
X150480000Y-118360000D01*
X150480000Y-118360000D02*
X151060000Y-117780000D01*
X150541482Y-113316482D02*
X150541482Y-112598518D01*
X151060000Y-113835000D02*
X150541482Y-113316482D01*
X149070000Y-109390000D02*
X149280000Y-109600000D01*
X151060000Y-117780000D02*
X151060000Y-113835000D01*
D41*
X147310000Y-119460000D02*
X147310000Y-119180000D01*
D40*
%TO.N,Net-(J3-Pad4)*%
X149470000Y-108880000D02*
X149470000Y-109410000D01*
X150801482Y-113201482D02*
X151375000Y-113775000D01*
X150801482Y-112490822D02*
X150801482Y-113201482D01*
X149620000Y-109560000D02*
X149620000Y-111309339D01*
D41*
X151440000Y-118510000D02*
X151440000Y-118500000D01*
D40*
X149470000Y-109410000D02*
X149620000Y-109560000D01*
D41*
X152390000Y-119460000D02*
X151440000Y-118510000D01*
D40*
X151375000Y-113775000D02*
X151375000Y-118445000D01*
X149620000Y-111309339D02*
X150801482Y-112490822D01*
D41*
%TO.N,Net-(J5-Pad17)*%
X157480000Y-86360000D02*
X156410000Y-87430000D01*
D40*
%TO.N,Net-(D1-Pad2)*%
X154630000Y-110042500D02*
X154630000Y-111685000D01*
D39*
%TO.N,Net-(R9-Pad1)*%
X138220000Y-128050000D02*
X138660000Y-128490000D01*
D40*
X143375000Y-122660000D02*
X143375000Y-126960000D01*
D39*
X138660000Y-128490000D02*
X141845000Y-128490000D01*
X141845000Y-128490000D02*
X143375000Y-126960000D01*
X138220000Y-76810000D02*
X138220000Y-128050000D01*
D40*
%TO.N,Net-(C14-Pad1)*%
X153280000Y-101620000D02*
X153149000Y-101489000D01*
X151470000Y-101980000D02*
X152920000Y-101980000D01*
X153149000Y-101489000D02*
X153149000Y-100330000D01*
X152920000Y-101980000D02*
X153280000Y-101620000D01*
%TD*%
M02*
