%TF.GenerationSoftware,KiCad,Pcbnew,(6.0.11)*%
%TF.CreationDate,2024-08-09T21:34:06-05:00*%
%TF.ProjectId,PicoAlt,5069636f-416c-4742-9e6b-696361645f70,rev?*%
%TF.SameCoordinates,Original*%
%TF.FileFunction,Copper,L2,Bot*%
%TF.FilePolarity,Positive*%
%FSLAX46Y46*%
G04 Gerber Fmt 4.6, Leading zero omitted, Abs format (unit mm)*
G04 Created by KiCad (PCBNEW (6.0.11)) date 2024-08-09 21:34:06*
%MOMM*%
%LPD*%
G01*
G04 APERTURE LIST*
%TA.AperFunction,ComponentPad*%
%ADD10R,1.700000X1.700000*%
%TD*%
%TA.AperFunction,ComponentPad*%
%ADD11C,1.700000*%
%TD*%
%TA.AperFunction,ComponentPad*%
%ADD12C,3.500000*%
%TD*%
%TA.AperFunction,ComponentPad*%
%ADD13O,1.700000X1.700000*%
%TD*%
%TA.AperFunction,ViaPad*%
%ADD14C,0.550000*%
%TD*%
%TA.AperFunction,Conductor*%
%ADD15C,0.130000*%
%TD*%
%TA.AperFunction,Conductor*%
%ADD16C,0.500000*%
%TD*%
%TA.AperFunction,Conductor*%
%ADD17C,0.250000*%
%TD*%
G04 APERTURE END LIST*
D10*
%TO.P,J2,1,VBUS*%
%TO.N,VBUS*%
X147290000Y-78040000D03*
D11*
%TO.P,J2,2,D-*%
%TO.N,Net-(J2-Pad2)*%
X149790000Y-78040000D03*
%TO.P,J2,3,D+*%
%TO.N,Net-(J2-Pad3)*%
X149790000Y-76040000D03*
%TO.P,J2,4,GND*%
%TO.N,GND*%
X147290000Y-76040000D03*
D12*
%TO.P,J2,5,Shield*%
X154560000Y-73330000D03*
X142520000Y-73330000D03*
%TD*%
D10*
%TO.P,J3,1,Pin_1*%
%TO.N,+3.3V*%
X144770000Y-119460000D03*
D13*
%TO.P,J3,2,Pin_2*%
%TO.N,Net-(J3-Pad2)*%
X147310000Y-119460000D03*
%TO.P,J3,3,Pin_3*%
%TO.N,GND*%
X149850000Y-119460000D03*
%TO.P,J3,4,Pin_4*%
%TO.N,Net-(J3-Pad4)*%
X152390000Y-119460000D03*
%TD*%
D10*
%TO.P,JP1,1,A*%
%TO.N,Net-(J5-Pad17)*%
X153830000Y-91840000D03*
D13*
%TO.P,JP1,2,B*%
%TO.N,GPIO29*%
X153830000Y-94380000D03*
%TD*%
D10*
%TO.P,J5,1,Pin_1*%
%TO.N,GPIO16*%
X157480000Y-127000000D03*
D13*
%TO.P,J5,2,Pin_2*%
%TO.N,GPIO17*%
X157480000Y-124460000D03*
%TO.P,J5,3,Pin_3*%
%TO.N,GND*%
X157480000Y-121920000D03*
%TO.P,J5,4,Pin_4*%
%TO.N,GPIO18*%
X157480000Y-119380000D03*
%TO.P,J5,5,Pin_5*%
%TO.N,GPIO19*%
X157480000Y-116840000D03*
%TO.P,J5,6,Pin_6*%
%TO.N,GPIO20*%
X157480000Y-114300000D03*
%TO.P,J5,7,Pin_7*%
%TO.N,GPIO21*%
X157480000Y-111760000D03*
%TO.P,J5,8,Pin_8*%
%TO.N,GND*%
X157480000Y-109220000D03*
%TO.P,J5,9,Pin_9*%
%TO.N,GPIO22*%
X157480000Y-106680000D03*
%TO.P,J5,10,Pin_10*%
%TO.N,RUN*%
X157480000Y-104140000D03*
%TO.P,J5,11,Pin_11*%
%TO.N,GPIO26*%
X157480000Y-101600000D03*
%TO.P,J5,12,Pin_12*%
%TO.N,GPIO27*%
X157480000Y-99060000D03*
%TO.P,J5,13,Pin_13*%
%TO.N,GND*%
X157480000Y-96520000D03*
%TO.P,J5,14,Pin_14*%
%TO.N,GPIO28*%
X157480000Y-93980000D03*
%TO.P,J5,15,Pin_15*%
%TO.N,ADCVREF*%
X157480000Y-91440000D03*
%TO.P,J5,16,Pin_16*%
%TO.N,+3.3V*%
X157480000Y-88900000D03*
%TO.P,J5,17,Pin_17*%
%TO.N,Net-(J5-Pad17)*%
X157480000Y-86360000D03*
%TO.P,J5,18,Pin_18*%
%TO.N,GND*%
X157480000Y-83820000D03*
%TO.P,J5,19,Pin_19*%
%TO.N,+5V*%
X157480000Y-81280000D03*
%TO.P,J5,20,Pin_20*%
%TO.N,VBUS*%
X157480000Y-78740000D03*
%TD*%
D10*
%TO.P,J4,1,Pin_1*%
%TO.N,GPIO0*%
X139700000Y-78740000D03*
D13*
%TO.P,J4,2,Pin_2*%
%TO.N,GPIO1*%
X139700000Y-81280000D03*
%TO.P,J4,3,Pin_3*%
%TO.N,GND*%
X139700000Y-83820000D03*
%TO.P,J4,4,Pin_4*%
%TO.N,GPIO2*%
X139700000Y-86360000D03*
%TO.P,J4,5,Pin_5*%
%TO.N,GPIO3*%
X139700000Y-88900000D03*
%TO.P,J4,6,Pin_6*%
%TO.N,GPIO4*%
X139700000Y-91440000D03*
%TO.P,J4,7,Pin_7*%
%TO.N,GPIO5*%
X139700000Y-93980000D03*
%TO.P,J4,8,Pin_8*%
%TO.N,GND*%
X139700000Y-96520000D03*
%TO.P,J4,9,Pin_9*%
%TO.N,GPIO6*%
X139700000Y-99060000D03*
%TO.P,J4,10,Pin_10*%
%TO.N,GPIO7*%
X139700000Y-101600000D03*
%TO.P,J4,11,Pin_11*%
%TO.N,GPIO8*%
X139700000Y-104140000D03*
%TO.P,J4,12,Pin_12*%
%TO.N,GPIO9*%
X139700000Y-106680000D03*
%TO.P,J4,13,Pin_13*%
%TO.N,GND*%
X139700000Y-109220000D03*
%TO.P,J4,14,Pin_14*%
%TO.N,GPIO10*%
X139700000Y-111760000D03*
%TO.P,J4,15,Pin_15*%
%TO.N,GPIO11*%
X139700000Y-114300000D03*
%TO.P,J4,16,Pin_16*%
%TO.N,GPIO12*%
X139700000Y-116840000D03*
%TO.P,J4,17,Pin_17*%
%TO.N,GPIO13*%
X139700000Y-119380000D03*
%TO.P,J4,18,Pin_18*%
%TO.N,GND*%
X139700000Y-121920000D03*
%TO.P,J4,19,Pin_19*%
%TO.N,GPIO14*%
X139700000Y-124460000D03*
%TO.P,J4,20,Pin_20*%
%TO.N,GPIO15*%
X139700000Y-127000000D03*
%TD*%
D14*
%TO.N,GND*%
X145610000Y-89610000D03*
X145570000Y-90340000D03*
X149400000Y-99160000D03*
X155050000Y-102040000D03*
%TO.N,+3.3V*%
X146300000Y-100030000D03*
X144240000Y-109850000D03*
X146160000Y-107870000D03*
X147900000Y-103000000D03*
X149700000Y-102910000D03*
X155700000Y-87080000D03*
X150960000Y-103140000D03*
%TO.N,GND*%
X146230000Y-114360000D03*
X146410000Y-80680000D03*
X155910000Y-113340000D03*
X144470000Y-127630000D03*
X155660000Y-105360000D03*
X142030000Y-106960000D03*
X149800000Y-104220000D03*
X153270000Y-88160000D03*
X152310000Y-88350000D03*
X151780000Y-110830000D03*
X155080000Y-99570000D03*
X149840000Y-105360000D03*
X149110000Y-111860000D03*
X148670000Y-105410000D03*
X142550000Y-103940000D03*
X149000000Y-116010000D03*
X148890000Y-112600000D03*
X142890000Y-89480000D03*
X143660000Y-96370000D03*
X155190000Y-106320000D03*
X142210000Y-112600000D03*
X146400000Y-82500000D03*
X150540000Y-126970000D03*
X151620000Y-101030000D03*
X150750000Y-122670000D03*
X144450000Y-100880000D03*
X147510000Y-104180000D03*
X145260000Y-96300000D03*
X153670000Y-96266000D03*
X146990000Y-111630000D03*
X149960000Y-106740000D03*
X144190000Y-112020000D03*
X147380000Y-105360000D03*
X148690000Y-114390000D03*
X147330000Y-106660000D03*
X144640000Y-122030000D03*
%TO.N,+1V1*%
X146440000Y-105360000D03*
X144290000Y-104620000D03*
X150810000Y-105350000D03*
X153241179Y-105088032D03*
%TO.N,ADCVREF*%
X154845000Y-95785000D03*
%TO.N,RUN*%
X150230000Y-107940000D03*
X153940000Y-107080000D03*
%TO.N,Net-(J2-Pad2)*%
X151090000Y-82030000D03*
%TO.N,Net-(J2-Pad3)*%
X152160000Y-82030000D03*
%TD*%
D15*
%TO.N,+3.3V*%
X149930000Y-103140000D02*
X150960000Y-103140000D01*
X149700000Y-102910000D02*
X149930000Y-103140000D01*
D16*
X157480000Y-88900000D02*
X157480000Y-88860000D01*
D15*
X146160000Y-107930000D02*
X146160000Y-107870000D01*
D16*
X157480000Y-88860000D02*
X155700000Y-87080000D01*
D17*
X147900000Y-103000000D02*
X147710000Y-102810000D01*
X147710000Y-102810000D02*
X147710000Y-102150000D01*
X146300000Y-100740000D02*
X146300000Y-100030000D01*
X147710000Y-102150000D02*
X146300000Y-100740000D01*
D15*
X144240000Y-109850000D02*
X146160000Y-107930000D01*
%TO.N,+1V1*%
X151140000Y-105070000D02*
X153223147Y-105070000D01*
X145700000Y-104620000D02*
X144290000Y-104620000D01*
X146440000Y-105360000D02*
X145700000Y-104620000D01*
X150810000Y-105350000D02*
X151090000Y-105070000D01*
X151090000Y-105070000D02*
X151140000Y-105070000D01*
X153223147Y-105070000D02*
X153241179Y-105088032D01*
D16*
%TO.N,ADCVREF*%
X155610000Y-95020000D02*
X155610000Y-92820000D01*
X155610000Y-92820000D02*
X156990000Y-91440000D01*
X154845000Y-95785000D02*
X155610000Y-95020000D01*
X156990000Y-91440000D02*
X157480000Y-91440000D01*
D15*
%TO.N,RUN*%
X153080000Y-107940000D02*
X153940000Y-107080000D01*
X150230000Y-107940000D02*
X153080000Y-107940000D01*
D17*
%TO.N,Net-(J2-Pad2)*%
X151090000Y-82030000D02*
X151100000Y-82020000D01*
X151100000Y-82020000D02*
X151100000Y-79350000D01*
X151100000Y-79350000D02*
X149790000Y-78040000D01*
%TO.N,Net-(J2-Pad3)*%
X152160000Y-82030000D02*
X152210000Y-81980000D01*
X152210000Y-78460000D02*
X149790000Y-76040000D01*
X152210000Y-81980000D02*
X152210000Y-78460000D01*
%TD*%
%TA.AperFunction,Conductor*%
%TO.N,GND*%
G36*
X141090551Y-71370502D02*
G01*
X141137044Y-71424158D01*
X141147148Y-71494432D01*
X141128831Y-71543989D01*
X141116528Y-71563385D01*
X141122362Y-71573151D01*
X142507190Y-72957980D01*
X142521131Y-72965592D01*
X142522966Y-72965461D01*
X142529580Y-72961210D01*
X143915884Y-71574905D01*
X143923398Y-71561145D01*
X143914367Y-71548055D01*
X143892146Y-71480625D01*
X143909907Y-71411886D01*
X143962011Y-71363661D01*
X144018078Y-71350500D01*
X153062430Y-71350500D01*
X153130551Y-71370502D01*
X153177044Y-71424158D01*
X153187148Y-71494432D01*
X153168831Y-71543989D01*
X153156528Y-71563385D01*
X153162362Y-71573151D01*
X154547190Y-72957980D01*
X154561131Y-72965592D01*
X154562966Y-72965461D01*
X154569580Y-72961210D01*
X155955884Y-71574905D01*
X155963398Y-71561145D01*
X155954367Y-71548055D01*
X155932146Y-71480625D01*
X155949907Y-71411886D01*
X156002011Y-71363661D01*
X156058078Y-71350500D01*
X158523500Y-71350500D01*
X158591621Y-71370502D01*
X158638114Y-71424158D01*
X158649500Y-71476500D01*
X158649500Y-77920249D01*
X158629498Y-77988370D01*
X158575842Y-78034863D01*
X158505568Y-78044967D01*
X158440988Y-78015473D01*
X158422542Y-77995638D01*
X158379420Y-77937891D01*
X158379420Y-77937890D01*
X158375967Y-77933267D01*
X158278586Y-77843249D01*
X158218189Y-77787418D01*
X158218186Y-77787416D01*
X158213949Y-77783499D01*
X158027350Y-77665764D01*
X157822421Y-77584006D01*
X157816761Y-77582880D01*
X157816757Y-77582879D01*
X157611691Y-77542089D01*
X157611688Y-77542089D01*
X157606024Y-77540962D01*
X157600249Y-77540886D01*
X157600245Y-77540886D01*
X157489504Y-77539437D01*
X157385406Y-77538074D01*
X157379709Y-77539053D01*
X157379708Y-77539053D01*
X157173654Y-77574459D01*
X157173653Y-77574459D01*
X157167957Y-77575438D01*
X156960957Y-77651804D01*
X156955996Y-77654756D01*
X156955995Y-77654756D01*
X156858510Y-77712754D01*
X156771341Y-77764614D01*
X156605457Y-77910090D01*
X156468863Y-78083360D01*
X156366131Y-78278620D01*
X156300703Y-78489333D01*
X156274770Y-78708440D01*
X156289200Y-78928604D01*
X156290621Y-78934200D01*
X156290622Y-78934205D01*
X156330154Y-79089858D01*
X156343511Y-79142452D01*
X156345928Y-79147694D01*
X156345928Y-79147695D01*
X156385740Y-79234054D01*
X156435883Y-79342821D01*
X156563222Y-79523002D01*
X156721264Y-79676961D01*
X156726060Y-79680166D01*
X156726063Y-79680168D01*
X156869271Y-79775856D01*
X156904717Y-79799540D01*
X156910020Y-79801818D01*
X156910023Y-79801820D01*
X157073221Y-79871935D01*
X157107436Y-79886635D01*
X157113071Y-79887910D01*
X157113074Y-79887911D01*
X157114484Y-79888230D01*
X157115083Y-79888564D01*
X157118562Y-79889694D01*
X157118340Y-79890377D01*
X157176511Y-79922772D01*
X157210016Y-79985366D01*
X157204362Y-80056137D01*
X157161344Y-80112616D01*
X157130287Y-80129335D01*
X156966376Y-80189804D01*
X156966368Y-80189808D01*
X156960957Y-80191804D01*
X156771341Y-80304614D01*
X156605457Y-80450090D01*
X156468863Y-80623360D01*
X156366131Y-80818620D01*
X156300703Y-81029333D01*
X156274770Y-81248440D01*
X156289200Y-81468604D01*
X156290621Y-81474200D01*
X156290622Y-81474205D01*
X156324700Y-81608385D01*
X156343511Y-81682452D01*
X156345928Y-81687694D01*
X156345928Y-81687695D01*
X156384046Y-81770379D01*
X156435883Y-81882821D01*
X156563222Y-82063002D01*
X156721264Y-82216961D01*
X156726060Y-82220166D01*
X156726063Y-82220168D01*
X156810258Y-82276425D01*
X156904717Y-82339540D01*
X156910020Y-82341818D01*
X156910023Y-82341820D01*
X156922546Y-82347200D01*
X156977239Y-82392469D01*
X156998776Y-82460120D01*
X156980319Y-82528675D01*
X156930988Y-82574731D01*
X156758463Y-82664542D01*
X156749738Y-82670036D01*
X156579433Y-82797905D01*
X156571726Y-82804748D01*
X156424590Y-82958717D01*
X156418104Y-82966727D01*
X156298098Y-83142649D01*
X156293000Y-83151623D01*
X156203338Y-83344783D01*
X156199775Y-83354470D01*
X156144389Y-83554183D01*
X156145912Y-83562607D01*
X156158292Y-83566000D01*
X157608000Y-83566000D01*
X157676121Y-83586002D01*
X157722614Y-83639658D01*
X157734000Y-83692000D01*
X157734000Y-83948000D01*
X157713998Y-84016121D01*
X157660342Y-84062614D01*
X157608000Y-84074000D01*
X156163225Y-84074000D01*
X156149694Y-84077973D01*
X156148257Y-84087966D01*
X156178565Y-84222446D01*
X156181645Y-84232275D01*
X156261770Y-84429603D01*
X156266413Y-84438794D01*
X156377694Y-84620388D01*
X156383777Y-84628699D01*
X156523213Y-84789667D01*
X156530580Y-84796883D01*
X156694434Y-84932916D01*
X156702881Y-84938831D01*
X156886756Y-85046279D01*
X156896043Y-85050729D01*
X156918682Y-85059374D01*
X156975186Y-85102362D01*
X156999478Y-85169073D01*
X156983847Y-85238328D01*
X156938156Y-85285369D01*
X156937492Y-85285764D01*
X156771341Y-85384614D01*
X156605457Y-85530090D01*
X156468863Y-85703360D01*
X156366131Y-85898620D01*
X156300703Y-86109333D01*
X156274770Y-86328440D01*
X156275148Y-86334207D01*
X156284295Y-86473774D01*
X156268791Y-86543057D01*
X156218291Y-86592959D01*
X156148828Y-86607637D01*
X156082457Y-86582431D01*
X156074746Y-86576090D01*
X156065275Y-86567651D01*
X156065267Y-86567645D01*
X156059603Y-86562599D01*
X156052897Y-86559048D01*
X156052895Y-86559047D01*
X155992704Y-86527178D01*
X155925805Y-86491757D01*
X155778972Y-86454874D01*
X155771374Y-86454834D01*
X155771372Y-86454834D01*
X155706775Y-86454496D01*
X155627579Y-86454082D01*
X155620200Y-86455854D01*
X155620196Y-86455854D01*
X155487746Y-86487652D01*
X155487742Y-86487653D01*
X155480367Y-86489424D01*
X155473622Y-86492905D01*
X155473623Y-86492905D01*
X155365708Y-86548604D01*
X155345835Y-86558861D01*
X155340113Y-86563853D01*
X155340111Y-86563854D01*
X155237474Y-86653390D01*
X155237471Y-86653393D01*
X155231749Y-86658385D01*
X155227382Y-86664599D01*
X155158610Y-86762452D01*
X155144696Y-86782249D01*
X155089702Y-86923302D01*
X155088711Y-86930831D01*
X155073959Y-87042884D01*
X155069941Y-87073402D01*
X155086554Y-87223883D01*
X155138582Y-87366057D01*
X155142819Y-87372363D01*
X155142821Y-87372366D01*
X155172364Y-87416330D01*
X155223022Y-87491716D01*
X155334998Y-87593607D01*
X155383218Y-87619789D01*
X155412188Y-87641423D01*
X156275193Y-88504428D01*
X156309219Y-88566740D01*
X156306430Y-88630889D01*
X156300703Y-88649333D01*
X156274770Y-88868440D01*
X156289200Y-89088604D01*
X156290621Y-89094200D01*
X156290622Y-89094205D01*
X156340336Y-89289952D01*
X156343511Y-89302452D01*
X156345928Y-89307694D01*
X156345928Y-89307695D01*
X156384046Y-89390379D01*
X156435883Y-89502821D01*
X156563222Y-89683002D01*
X156721264Y-89836961D01*
X156726060Y-89840166D01*
X156726063Y-89840168D01*
X156810261Y-89896427D01*
X156904717Y-89959540D01*
X156910020Y-89961818D01*
X156910023Y-89961820D01*
X157102129Y-90044355D01*
X157107436Y-90046635D01*
X157113071Y-90047910D01*
X157113074Y-90047911D01*
X157114484Y-90048230D01*
X157115083Y-90048564D01*
X157118562Y-90049694D01*
X157118340Y-90050377D01*
X157176511Y-90082772D01*
X157210016Y-90145366D01*
X157204362Y-90216137D01*
X157161344Y-90272616D01*
X157130287Y-90289335D01*
X156966376Y-90349804D01*
X156966368Y-90349808D01*
X156960957Y-90351804D01*
X156771341Y-90464614D01*
X156605457Y-90610090D01*
X156468863Y-90783360D01*
X156366131Y-90978620D01*
X156300703Y-91189333D01*
X156300024Y-91195070D01*
X156293658Y-91248854D01*
X156265787Y-91314152D01*
X156257626Y-91323139D01*
X155245595Y-92335170D01*
X155183283Y-92369196D01*
X155112468Y-92364131D01*
X155055632Y-92321584D01*
X155030821Y-92255064D01*
X155030500Y-92246075D01*
X155030500Y-90956782D01*
X155021871Y-90898162D01*
X155021784Y-90897574D01*
X155021784Y-90897573D01*
X155020358Y-90887888D01*
X154982143Y-90810053D01*
X154973522Y-90792493D01*
X154973521Y-90792491D01*
X154968932Y-90783145D01*
X154886350Y-90700707D01*
X154781518Y-90649464D01*
X154751027Y-90645016D01*
X154717744Y-90640160D01*
X154717740Y-90640160D01*
X154713218Y-90639500D01*
X152946782Y-90639500D01*
X152942232Y-90640170D01*
X152942229Y-90640170D01*
X152887574Y-90648216D01*
X152887573Y-90648216D01*
X152877888Y-90649642D01*
X152827992Y-90674140D01*
X152782493Y-90696478D01*
X152782491Y-90696479D01*
X152773145Y-90701068D01*
X152690707Y-90783650D01*
X152639464Y-90888482D01*
X152629500Y-90956782D01*
X152629500Y-92723218D01*
X152630170Y-92727768D01*
X152630170Y-92727771D01*
X152638035Y-92781196D01*
X152639642Y-92792112D01*
X152691068Y-92896855D01*
X152773650Y-92979293D01*
X152783006Y-92983866D01*
X152783007Y-92983867D01*
X152815460Y-92999730D01*
X152878482Y-93030536D01*
X152908973Y-93034984D01*
X152942256Y-93039840D01*
X152942260Y-93039840D01*
X152946782Y-93040500D01*
X153286570Y-93040500D01*
X153354691Y-93060502D01*
X153401184Y-93114158D01*
X153411288Y-93184432D01*
X153381794Y-93249012D01*
X153330180Y-93284712D01*
X153321382Y-93287958D01*
X153310957Y-93291804D01*
X153305996Y-93294756D01*
X153305995Y-93294756D01*
X153212828Y-93350185D01*
X153121341Y-93404614D01*
X152955457Y-93550090D01*
X152818863Y-93723360D01*
X152716131Y-93918620D01*
X152650703Y-94129333D01*
X152624770Y-94348440D01*
X152639200Y-94568604D01*
X152640621Y-94574200D01*
X152640622Y-94574205D01*
X152663144Y-94662884D01*
X152693511Y-94782452D01*
X152785883Y-94982821D01*
X152913222Y-95163002D01*
X153071264Y-95316961D01*
X153076060Y-95320166D01*
X153076063Y-95320168D01*
X153169376Y-95382517D01*
X153254717Y-95439540D01*
X153260020Y-95441818D01*
X153260023Y-95441820D01*
X153442493Y-95520215D01*
X153457436Y-95526635D01*
X153537088Y-95544658D01*
X153666995Y-95574054D01*
X153667001Y-95574055D01*
X153672632Y-95575329D01*
X153678403Y-95575556D01*
X153678405Y-95575556D01*
X153746211Y-95578220D01*
X153893098Y-95583991D01*
X154042465Y-95562334D01*
X154082569Y-95556519D01*
X154152855Y-95566539D01*
X154206566Y-95612968D01*
X154226649Y-95681065D01*
X154225571Y-95697656D01*
X154214941Y-95778402D01*
X154231554Y-95928883D01*
X154283582Y-96071057D01*
X154287819Y-96077363D01*
X154287821Y-96077366D01*
X154297794Y-96092207D01*
X154368022Y-96196716D01*
X154479998Y-96298607D01*
X154486675Y-96302232D01*
X154486676Y-96302233D01*
X154606370Y-96367222D01*
X154606372Y-96367223D01*
X154613047Y-96370847D01*
X154620396Y-96372775D01*
X154752136Y-96407336D01*
X154752138Y-96407336D01*
X154759486Y-96409264D01*
X154839562Y-96410522D01*
X154903266Y-96411523D01*
X154903269Y-96411523D01*
X154910863Y-96411642D01*
X155058437Y-96377843D01*
X155165734Y-96323879D01*
X155186906Y-96313231D01*
X155186909Y-96313229D01*
X155193689Y-96309819D01*
X155308810Y-96211495D01*
X155397156Y-96088550D01*
X155397509Y-96087672D01*
X155415425Y-96063810D01*
X156000938Y-95478297D01*
X156013329Y-95467429D01*
X156031736Y-95453305D01*
X156038282Y-95448282D01*
X156134536Y-95322841D01*
X156195044Y-95176762D01*
X156210500Y-95059361D01*
X156215682Y-95020000D01*
X156211578Y-94988827D01*
X156210500Y-94972381D01*
X156210500Y-94660513D01*
X156230502Y-94592392D01*
X156284158Y-94545899D01*
X156354432Y-94535795D01*
X156419012Y-94565289D01*
X156439396Y-94587792D01*
X156563222Y-94763002D01*
X156721264Y-94916961D01*
X156726060Y-94920166D01*
X156726063Y-94920168D01*
X156810258Y-94976425D01*
X156904717Y-95039540D01*
X156910020Y-95041818D01*
X156910023Y-95041820D01*
X156922546Y-95047200D01*
X156977239Y-95092469D01*
X156998776Y-95160120D01*
X156980319Y-95228675D01*
X156930988Y-95274731D01*
X156758463Y-95364542D01*
X156749738Y-95370036D01*
X156579433Y-95497905D01*
X156571726Y-95504748D01*
X156424590Y-95658717D01*
X156418104Y-95666727D01*
X156298098Y-95842649D01*
X156293000Y-95851623D01*
X156203338Y-96044783D01*
X156199775Y-96054470D01*
X156144389Y-96254183D01*
X156145912Y-96262607D01*
X156158292Y-96266000D01*
X157608000Y-96266000D01*
X157676121Y-96286002D01*
X157722614Y-96339658D01*
X157734000Y-96392000D01*
X157734000Y-96648000D01*
X157713998Y-96716121D01*
X157660342Y-96762614D01*
X157608000Y-96774000D01*
X156163225Y-96774000D01*
X156149694Y-96777973D01*
X156148257Y-96787966D01*
X156178565Y-96922446D01*
X156181645Y-96932275D01*
X156261770Y-97129603D01*
X156266413Y-97138794D01*
X156377694Y-97320388D01*
X156383777Y-97328699D01*
X156523213Y-97489667D01*
X156530580Y-97496883D01*
X156694434Y-97632916D01*
X156702881Y-97638831D01*
X156886756Y-97746279D01*
X156896043Y-97750729D01*
X156918682Y-97759374D01*
X156975186Y-97802362D01*
X156999478Y-97869073D01*
X156983847Y-97938328D01*
X156938156Y-97985369D01*
X156937492Y-97985764D01*
X156771341Y-98084614D01*
X156605457Y-98230090D01*
X156468863Y-98403360D01*
X156366131Y-98598620D01*
X156300703Y-98809333D01*
X156274770Y-99028440D01*
X156289200Y-99248604D01*
X156290621Y-99254200D01*
X156290622Y-99254205D01*
X156337663Y-99439424D01*
X156343511Y-99462452D01*
X156345928Y-99467694D01*
X156345928Y-99467695D01*
X156384046Y-99550379D01*
X156435883Y-99662821D01*
X156563222Y-99843002D01*
X156721264Y-99996961D01*
X156726060Y-100000166D01*
X156726063Y-100000168D01*
X156810261Y-100056427D01*
X156904717Y-100119540D01*
X156910020Y-100121818D01*
X156910023Y-100121820D01*
X157102129Y-100204355D01*
X157107436Y-100206635D01*
X157113071Y-100207910D01*
X157113074Y-100207911D01*
X157114484Y-100208230D01*
X157115083Y-100208564D01*
X157118562Y-100209694D01*
X157118340Y-100210377D01*
X157176511Y-100242772D01*
X157210016Y-100305366D01*
X157204362Y-100376137D01*
X157161344Y-100432616D01*
X157130287Y-100449335D01*
X156966376Y-100509804D01*
X156966368Y-100509808D01*
X156960957Y-100511804D01*
X156771341Y-100624614D01*
X156605457Y-100770090D01*
X156468863Y-100943360D01*
X156366131Y-101138620D01*
X156300703Y-101349333D01*
X156274770Y-101568440D01*
X156289200Y-101788604D01*
X156290621Y-101794200D01*
X156290622Y-101794205D01*
X156323706Y-101924470D01*
X156343511Y-102002452D01*
X156345928Y-102007694D01*
X156345928Y-102007695D01*
X156384046Y-102090379D01*
X156435883Y-102202821D01*
X156563222Y-102383002D01*
X156721264Y-102536961D01*
X156726060Y-102540166D01*
X156726063Y-102540168D01*
X156843836Y-102618861D01*
X156904717Y-102659540D01*
X156910020Y-102661818D01*
X156910023Y-102661820D01*
X157053148Y-102723311D01*
X157107436Y-102746635D01*
X157113071Y-102747910D01*
X157113074Y-102747911D01*
X157114484Y-102748230D01*
X157115083Y-102748564D01*
X157118562Y-102749694D01*
X157118340Y-102750377D01*
X157176511Y-102782772D01*
X157210016Y-102845366D01*
X157204362Y-102916137D01*
X157161344Y-102972616D01*
X157130287Y-102989335D01*
X156966376Y-103049804D01*
X156966368Y-103049808D01*
X156960957Y-103051804D01*
X156955996Y-103054756D01*
X156955995Y-103054756D01*
X156786558Y-103155561D01*
X156771341Y-103164614D01*
X156605457Y-103310090D01*
X156468863Y-103483360D01*
X156366131Y-103678620D01*
X156300703Y-103889333D01*
X156274770Y-104108440D01*
X156289200Y-104328604D01*
X156290621Y-104334200D01*
X156290622Y-104334205D01*
X156323779Y-104464757D01*
X156343511Y-104542452D01*
X156345928Y-104547694D01*
X156345928Y-104547695D01*
X156384046Y-104630379D01*
X156435883Y-104742821D01*
X156563222Y-104923002D01*
X156721264Y-105076961D01*
X156726060Y-105080166D01*
X156726063Y-105080168D01*
X156815441Y-105139888D01*
X156904717Y-105199540D01*
X156910020Y-105201818D01*
X156910023Y-105201820D01*
X157102129Y-105284355D01*
X157107436Y-105286635D01*
X157113071Y-105287910D01*
X157113074Y-105287911D01*
X157114484Y-105288230D01*
X157115083Y-105288564D01*
X157118562Y-105289694D01*
X157118340Y-105290377D01*
X157176511Y-105322772D01*
X157210016Y-105385366D01*
X157204362Y-105456137D01*
X157161344Y-105512616D01*
X157130287Y-105529335D01*
X156966376Y-105589804D01*
X156966368Y-105589808D01*
X156960957Y-105591804D01*
X156955996Y-105594756D01*
X156955995Y-105594756D01*
X156808394Y-105682570D01*
X156771341Y-105704614D01*
X156605457Y-105850090D01*
X156468863Y-106023360D01*
X156366131Y-106218620D01*
X156300703Y-106429333D01*
X156274770Y-106648440D01*
X156289200Y-106868604D01*
X156290621Y-106874200D01*
X156290622Y-106874205D01*
X156339299Y-107065869D01*
X156343511Y-107082452D01*
X156345928Y-107087694D01*
X156345928Y-107087695D01*
X156384046Y-107170379D01*
X156435883Y-107282821D01*
X156563222Y-107463002D01*
X156721264Y-107616961D01*
X156726060Y-107620166D01*
X156726063Y-107620168D01*
X156858593Y-107708721D01*
X156904717Y-107739540D01*
X156910020Y-107741818D01*
X156910023Y-107741820D01*
X156922546Y-107747200D01*
X156977239Y-107792469D01*
X156998776Y-107860120D01*
X156980319Y-107928675D01*
X156930988Y-107974731D01*
X156758463Y-108064542D01*
X156749738Y-108070036D01*
X156579433Y-108197905D01*
X156571726Y-108204748D01*
X156424590Y-108358717D01*
X156418104Y-108366727D01*
X156298098Y-108542649D01*
X156293000Y-108551623D01*
X156203338Y-108744783D01*
X156199775Y-108754470D01*
X156144389Y-108954183D01*
X156145912Y-108962607D01*
X156158292Y-108966000D01*
X157608000Y-108966000D01*
X157676121Y-108986002D01*
X157722614Y-109039658D01*
X157734000Y-109092000D01*
X157734000Y-109348000D01*
X157713998Y-109416121D01*
X157660342Y-109462614D01*
X157608000Y-109474000D01*
X156163225Y-109474000D01*
X156149694Y-109477973D01*
X156148257Y-109487966D01*
X156178565Y-109622446D01*
X156181645Y-109632275D01*
X156261770Y-109829603D01*
X156266413Y-109838794D01*
X156377694Y-110020388D01*
X156383777Y-110028699D01*
X156523213Y-110189667D01*
X156530580Y-110196883D01*
X156694434Y-110332916D01*
X156702881Y-110338831D01*
X156886756Y-110446279D01*
X156896043Y-110450729D01*
X156918682Y-110459374D01*
X156975186Y-110502362D01*
X156999478Y-110569073D01*
X156983847Y-110638328D01*
X156938156Y-110685369D01*
X156937492Y-110685764D01*
X156771341Y-110784614D01*
X156605457Y-110930090D01*
X156468863Y-111103360D01*
X156366131Y-111298620D01*
X156300703Y-111509333D01*
X156274770Y-111728440D01*
X156289200Y-111948604D01*
X156290621Y-111954200D01*
X156290622Y-111954205D01*
X156340336Y-112149952D01*
X156343511Y-112162452D01*
X156345928Y-112167694D01*
X156345928Y-112167695D01*
X156384046Y-112250379D01*
X156435883Y-112362821D01*
X156563222Y-112543002D01*
X156721264Y-112696961D01*
X156726060Y-112700166D01*
X156726063Y-112700168D01*
X156810261Y-112756427D01*
X156904717Y-112819540D01*
X156910020Y-112821818D01*
X156910023Y-112821820D01*
X157102129Y-112904355D01*
X157107436Y-112906635D01*
X157113071Y-112907910D01*
X157113074Y-112907911D01*
X157114484Y-112908230D01*
X157115083Y-112908564D01*
X157118562Y-112909694D01*
X157118340Y-112910377D01*
X157176511Y-112942772D01*
X157210016Y-113005366D01*
X157204362Y-113076137D01*
X157161344Y-113132616D01*
X157130287Y-113149335D01*
X156966376Y-113209804D01*
X156966368Y-113209808D01*
X156960957Y-113211804D01*
X156771341Y-113324614D01*
X156605457Y-113470090D01*
X156468863Y-113643360D01*
X156366131Y-113838620D01*
X156300703Y-114049333D01*
X156274770Y-114268440D01*
X156289200Y-114488604D01*
X156290621Y-114494200D01*
X156290622Y-114494205D01*
X156340336Y-114689952D01*
X156343511Y-114702452D01*
X156345928Y-114707694D01*
X156345928Y-114707695D01*
X156384046Y-114790379D01*
X156435883Y-114902821D01*
X156563222Y-115083002D01*
X156721264Y-115236961D01*
X156726060Y-115240166D01*
X156726063Y-115240168D01*
X156810261Y-115296427D01*
X156904717Y-115359540D01*
X156910020Y-115361818D01*
X156910023Y-115361820D01*
X157102129Y-115444355D01*
X157107436Y-115446635D01*
X157113071Y-115447910D01*
X157113074Y-115447911D01*
X157114484Y-115448230D01*
X157115083Y-115448564D01*
X157118562Y-115449694D01*
X157118340Y-115450377D01*
X157176511Y-115482772D01*
X157210016Y-115545366D01*
X157204362Y-115616137D01*
X157161344Y-115672616D01*
X157130287Y-115689335D01*
X156966376Y-115749804D01*
X156966368Y-115749808D01*
X156960957Y-115751804D01*
X156771341Y-115864614D01*
X156605457Y-116010090D01*
X156468863Y-116183360D01*
X156366131Y-116378620D01*
X156300703Y-116589333D01*
X156274770Y-116808440D01*
X156289200Y-117028604D01*
X156290621Y-117034200D01*
X156290622Y-117034205D01*
X156340336Y-117229952D01*
X156343511Y-117242452D01*
X156345928Y-117247694D01*
X156345928Y-117247695D01*
X156384046Y-117330379D01*
X156435883Y-117442821D01*
X156563222Y-117623002D01*
X156721264Y-117776961D01*
X156726060Y-117780166D01*
X156726063Y-117780168D01*
X156810261Y-117836427D01*
X156904717Y-117899540D01*
X156910020Y-117901818D01*
X156910023Y-117901820D01*
X157102129Y-117984355D01*
X157107436Y-117986635D01*
X157113071Y-117987910D01*
X157113074Y-117987911D01*
X157114484Y-117988230D01*
X157115083Y-117988564D01*
X157118562Y-117989694D01*
X157118340Y-117990377D01*
X157176511Y-118022772D01*
X157210016Y-118085366D01*
X157204362Y-118156137D01*
X157161344Y-118212616D01*
X157130287Y-118229335D01*
X156966376Y-118289804D01*
X156966368Y-118289808D01*
X156960957Y-118291804D01*
X156955996Y-118294756D01*
X156955995Y-118294756D01*
X156821528Y-118374756D01*
X156771341Y-118404614D01*
X156605457Y-118550090D01*
X156468863Y-118723360D01*
X156366131Y-118918620D01*
X156300703Y-119129333D01*
X156274770Y-119348440D01*
X156289200Y-119568604D01*
X156290621Y-119574200D01*
X156290622Y-119574205D01*
X156331647Y-119735738D01*
X156343511Y-119782452D01*
X156345928Y-119787694D01*
X156345928Y-119787695D01*
X156414878Y-119937257D01*
X156435883Y-119982821D01*
X156563222Y-120163002D01*
X156721264Y-120316961D01*
X156726060Y-120320166D01*
X156726063Y-120320168D01*
X156810258Y-120376425D01*
X156904717Y-120439540D01*
X156910020Y-120441818D01*
X156910023Y-120441820D01*
X156922546Y-120447200D01*
X156977239Y-120492469D01*
X156998776Y-120560120D01*
X156980319Y-120628675D01*
X156930988Y-120674731D01*
X156758463Y-120764542D01*
X156749738Y-120770036D01*
X156579433Y-120897905D01*
X156571726Y-120904748D01*
X156424590Y-121058717D01*
X156418104Y-121066727D01*
X156298098Y-121242649D01*
X156293000Y-121251623D01*
X156203338Y-121444783D01*
X156199775Y-121454470D01*
X156144389Y-121654183D01*
X156145912Y-121662607D01*
X156158292Y-121666000D01*
X157608000Y-121666000D01*
X157676121Y-121686002D01*
X157722614Y-121739658D01*
X157734000Y-121792000D01*
X157734000Y-122048000D01*
X157713998Y-122116121D01*
X157660342Y-122162614D01*
X157608000Y-122174000D01*
X156163225Y-122174000D01*
X156149694Y-122177973D01*
X156148257Y-122187966D01*
X156178565Y-122322446D01*
X156181645Y-122332275D01*
X156261770Y-122529603D01*
X156266413Y-122538794D01*
X156377694Y-122720388D01*
X156383777Y-122728699D01*
X156523213Y-122889667D01*
X156530580Y-122896883D01*
X156694434Y-123032916D01*
X156702881Y-123038831D01*
X156886756Y-123146279D01*
X156896043Y-123150729D01*
X156918682Y-123159374D01*
X156975186Y-123202362D01*
X156999478Y-123269073D01*
X156983847Y-123338328D01*
X156938156Y-123385369D01*
X156937492Y-123385764D01*
X156771341Y-123484614D01*
X156605457Y-123630090D01*
X156468863Y-123803360D01*
X156366131Y-123998620D01*
X156300703Y-124209333D01*
X156274770Y-124428440D01*
X156289200Y-124648604D01*
X156290621Y-124654200D01*
X156290622Y-124654205D01*
X156340336Y-124849952D01*
X156343511Y-124862452D01*
X156345928Y-124867694D01*
X156345928Y-124867695D01*
X156384046Y-124950379D01*
X156435883Y-125062821D01*
X156563222Y-125243002D01*
X156721264Y-125396961D01*
X156726060Y-125400166D01*
X156726063Y-125400168D01*
X156810261Y-125456427D01*
X156904717Y-125519540D01*
X156910020Y-125521818D01*
X156910023Y-125521820D01*
X156993611Y-125557732D01*
X157048304Y-125603000D01*
X157069841Y-125670652D01*
X157051384Y-125739207D01*
X156998793Y-125786901D01*
X156943873Y-125799500D01*
X156596782Y-125799500D01*
X156592232Y-125800170D01*
X156592229Y-125800170D01*
X156537574Y-125808216D01*
X156537573Y-125808216D01*
X156527888Y-125809642D01*
X156491764Y-125827378D01*
X156432493Y-125856478D01*
X156432491Y-125856479D01*
X156423145Y-125861068D01*
X156340707Y-125943650D01*
X156289464Y-126048482D01*
X156279500Y-126116782D01*
X156279500Y-127883218D01*
X156280170Y-127887768D01*
X156280170Y-127887771D01*
X156287884Y-127940168D01*
X156289642Y-127952112D01*
X156341068Y-128056855D01*
X156423650Y-128139293D01*
X156433006Y-128143866D01*
X156433007Y-128143867D01*
X156465460Y-128159730D01*
X156528482Y-128190536D01*
X156552597Y-128194054D01*
X156592256Y-128199840D01*
X156592260Y-128199840D01*
X156596782Y-128200500D01*
X158363218Y-128200500D01*
X158367768Y-128199830D01*
X158367771Y-128199830D01*
X158422426Y-128191784D01*
X158422427Y-128191784D01*
X158432112Y-128190358D01*
X158467970Y-128172753D01*
X158537932Y-128160685D01*
X158603314Y-128188358D01*
X158643355Y-128246986D01*
X158649500Y-128285856D01*
X158649500Y-128523500D01*
X158629498Y-128591621D01*
X158575842Y-128638114D01*
X158523500Y-128649500D01*
X138476500Y-128649500D01*
X138408379Y-128629498D01*
X138361886Y-128575842D01*
X138350500Y-128523500D01*
X138350500Y-127514670D01*
X138370502Y-127446549D01*
X138424158Y-127400056D01*
X138494432Y-127389952D01*
X138559012Y-127419446D01*
X138590926Y-127461918D01*
X138655883Y-127602821D01*
X138783222Y-127783002D01*
X138941264Y-127936961D01*
X138946060Y-127940166D01*
X138946063Y-127940168D01*
X139027457Y-127994553D01*
X139124717Y-128059540D01*
X139130020Y-128061818D01*
X139130023Y-128061820D01*
X139293221Y-128131935D01*
X139327436Y-128146635D01*
X139389528Y-128160685D01*
X139536995Y-128194054D01*
X139537001Y-128194055D01*
X139542632Y-128195329D01*
X139548403Y-128195556D01*
X139548405Y-128195556D01*
X139616211Y-128198220D01*
X139763098Y-128203991D01*
X139885524Y-128186240D01*
X139975738Y-128173160D01*
X139975743Y-128173159D01*
X139981452Y-128172331D01*
X139986916Y-128170476D01*
X139986921Y-128170475D01*
X140184907Y-128103268D01*
X140184912Y-128103266D01*
X140190379Y-128101410D01*
X140382884Y-127993602D01*
X140422202Y-127960902D01*
X140548086Y-127856204D01*
X140552518Y-127852518D01*
X140693602Y-127682884D01*
X140758606Y-127566812D01*
X140798586Y-127495422D01*
X140798587Y-127495420D01*
X140801410Y-127490379D01*
X140803266Y-127484912D01*
X140803268Y-127484907D01*
X140870475Y-127286921D01*
X140870476Y-127286916D01*
X140872331Y-127281452D01*
X140873159Y-127275743D01*
X140873160Y-127275738D01*
X140903458Y-127066772D01*
X140903991Y-127063098D01*
X140905643Y-127000000D01*
X140885454Y-126780289D01*
X140825565Y-126567936D01*
X140727980Y-126370053D01*
X140595967Y-126193267D01*
X140498586Y-126103249D01*
X140438189Y-126047418D01*
X140438186Y-126047416D01*
X140433949Y-126043499D01*
X140247350Y-125925764D01*
X140044955Y-125845017D01*
X139989096Y-125801196D01*
X139965795Y-125734132D01*
X139982451Y-125665117D01*
X140033775Y-125616063D01*
X140051144Y-125608674D01*
X140184907Y-125563268D01*
X140184912Y-125563266D01*
X140190379Y-125561410D01*
X140382884Y-125453602D01*
X140552518Y-125312518D01*
X140649830Y-125195514D01*
X140689908Y-125147326D01*
X140689910Y-125147323D01*
X140693602Y-125142884D01*
X140758606Y-125026812D01*
X140798586Y-124955422D01*
X140798587Y-124955420D01*
X140801410Y-124950379D01*
X140803266Y-124944912D01*
X140803268Y-124944907D01*
X140870475Y-124746921D01*
X140870476Y-124746916D01*
X140872331Y-124741452D01*
X140873159Y-124735743D01*
X140873160Y-124735738D01*
X140903458Y-124526772D01*
X140903991Y-124523098D01*
X140905643Y-124460000D01*
X140885454Y-124240289D01*
X140825565Y-124027936D01*
X140727980Y-123830053D01*
X140657354Y-123735473D01*
X140599420Y-123657891D01*
X140599420Y-123657890D01*
X140595967Y-123653267D01*
X140433949Y-123503499D01*
X140248702Y-123386617D01*
X140248700Y-123386615D01*
X140247350Y-123385764D01*
X140247517Y-123385499D01*
X140198071Y-123338802D01*
X140181002Y-123269888D01*
X140203901Y-123202686D01*
X140251454Y-123162129D01*
X140393095Y-123092739D01*
X140401945Y-123087464D01*
X140575328Y-122963792D01*
X140583200Y-122957139D01*
X140734052Y-122806812D01*
X140740730Y-122798965D01*
X140865003Y-122626020D01*
X140870313Y-122617183D01*
X140964670Y-122426267D01*
X140968469Y-122416672D01*
X141030377Y-122212910D01*
X141032555Y-122202837D01*
X141033986Y-122191962D01*
X141031775Y-122177778D01*
X141018617Y-122174000D01*
X139572000Y-122174000D01*
X139503879Y-122153998D01*
X139457386Y-122100342D01*
X139446000Y-122048000D01*
X139446000Y-121792000D01*
X139466002Y-121723879D01*
X139519658Y-121677386D01*
X139572000Y-121666000D01*
X141018344Y-121666000D01*
X141031875Y-121662027D01*
X141033180Y-121652947D01*
X140991214Y-121485875D01*
X140987894Y-121476124D01*
X140902972Y-121280814D01*
X140898105Y-121271739D01*
X140782426Y-121092926D01*
X140776136Y-121084757D01*
X140632806Y-120927240D01*
X140625273Y-120920215D01*
X140458139Y-120788222D01*
X140449552Y-120782517D01*
X140263115Y-120679598D01*
X140254687Y-120675810D01*
X140200752Y-120629641D01*
X140180340Y-120561642D01*
X140199932Y-120493402D01*
X140244771Y-120450949D01*
X140335447Y-120400168D01*
X140382884Y-120373602D01*
X140413943Y-120347771D01*
X140419417Y-120343218D01*
X143569500Y-120343218D01*
X143570170Y-120347768D01*
X143570170Y-120347771D01*
X143578216Y-120402426D01*
X143579642Y-120412112D01*
X143631068Y-120516855D01*
X143713650Y-120599293D01*
X143723006Y-120603866D01*
X143723007Y-120603867D01*
X143755460Y-120619730D01*
X143818482Y-120650536D01*
X143842597Y-120654054D01*
X143882256Y-120659840D01*
X143882260Y-120659840D01*
X143886782Y-120660500D01*
X145653218Y-120660500D01*
X145657768Y-120659830D01*
X145657771Y-120659830D01*
X145712426Y-120651784D01*
X145712427Y-120651784D01*
X145722112Y-120650358D01*
X145816804Y-120603867D01*
X145817507Y-120603522D01*
X145817509Y-120603521D01*
X145826855Y-120598932D01*
X145909293Y-120516350D01*
X145915432Y-120503792D01*
X145941262Y-120450949D01*
X145960536Y-120411518D01*
X145970500Y-120343218D01*
X145970500Y-119996362D01*
X145990502Y-119928241D01*
X146044158Y-119881748D01*
X146114432Y-119871644D01*
X146179012Y-119901138D01*
X146210926Y-119943611D01*
X146214046Y-119950379D01*
X146265883Y-120062821D01*
X146393222Y-120243002D01*
X146551264Y-120396961D01*
X146556060Y-120400166D01*
X146556063Y-120400168D01*
X146640261Y-120456427D01*
X146734717Y-120519540D01*
X146740020Y-120521818D01*
X146740023Y-120521820D01*
X146903221Y-120591935D01*
X146937436Y-120606635D01*
X147017088Y-120624658D01*
X147146995Y-120654054D01*
X147147001Y-120654055D01*
X147152632Y-120655329D01*
X147158403Y-120655556D01*
X147158405Y-120655556D01*
X147226211Y-120658220D01*
X147373098Y-120663991D01*
X147495524Y-120646240D01*
X147585738Y-120633160D01*
X147585743Y-120633159D01*
X147591452Y-120632331D01*
X147596916Y-120630476D01*
X147596921Y-120630475D01*
X147794907Y-120563268D01*
X147794912Y-120563266D01*
X147800379Y-120561410D01*
X147992884Y-120453602D01*
X148007051Y-120441820D01*
X148158086Y-120316204D01*
X148162518Y-120312518D01*
X148286870Y-120163002D01*
X148299908Y-120147326D01*
X148299910Y-120147323D01*
X148303602Y-120142884D01*
X148383020Y-120001073D01*
X148433754Y-119951414D01*
X148503286Y-119937066D01*
X148569537Y-119962588D01*
X148609695Y-120015238D01*
X148631770Y-120069603D01*
X148636413Y-120078794D01*
X148747694Y-120260388D01*
X148753777Y-120268699D01*
X148893213Y-120429667D01*
X148900580Y-120436883D01*
X149064434Y-120572916D01*
X149072881Y-120578831D01*
X149256756Y-120686279D01*
X149266042Y-120690729D01*
X149465001Y-120766703D01*
X149474899Y-120769579D01*
X149578250Y-120790606D01*
X149592299Y-120789410D01*
X149596000Y-120779065D01*
X149596000Y-120778517D01*
X150104000Y-120778517D01*
X150108064Y-120792359D01*
X150121478Y-120794393D01*
X150128184Y-120793534D01*
X150138262Y-120791392D01*
X150342255Y-120730191D01*
X150351842Y-120726433D01*
X150543095Y-120632739D01*
X150551945Y-120627464D01*
X150725328Y-120503792D01*
X150733200Y-120497139D01*
X150884052Y-120346812D01*
X150890730Y-120338965D01*
X151015003Y-120166020D01*
X151020313Y-120157183D01*
X151094355Y-120007371D01*
X151142469Y-119955164D01*
X151211170Y-119937257D01*
X151278646Y-119959335D01*
X151321737Y-120010445D01*
X151345883Y-120062821D01*
X151473222Y-120243002D01*
X151631264Y-120396961D01*
X151636060Y-120400166D01*
X151636063Y-120400168D01*
X151720261Y-120456427D01*
X151814717Y-120519540D01*
X151820020Y-120521818D01*
X151820023Y-120521820D01*
X151983221Y-120591935D01*
X152017436Y-120606635D01*
X152097088Y-120624658D01*
X152226995Y-120654054D01*
X152227001Y-120654055D01*
X152232632Y-120655329D01*
X152238403Y-120655556D01*
X152238405Y-120655556D01*
X152306211Y-120658220D01*
X152453098Y-120663991D01*
X152575524Y-120646240D01*
X152665738Y-120633160D01*
X152665743Y-120633159D01*
X152671452Y-120632331D01*
X152676916Y-120630476D01*
X152676921Y-120630475D01*
X152874907Y-120563268D01*
X152874912Y-120563266D01*
X152880379Y-120561410D01*
X153072884Y-120453602D01*
X153087051Y-120441820D01*
X153238086Y-120316204D01*
X153242518Y-120312518D01*
X153366870Y-120163002D01*
X153379908Y-120147326D01*
X153379910Y-120147323D01*
X153383602Y-120142884D01*
X153484573Y-119962588D01*
X153488586Y-119955422D01*
X153488587Y-119955420D01*
X153491410Y-119950379D01*
X153493266Y-119944912D01*
X153493268Y-119944907D01*
X153560475Y-119746921D01*
X153560476Y-119746916D01*
X153562331Y-119741452D01*
X153563159Y-119735743D01*
X153563160Y-119735738D01*
X153593458Y-119526772D01*
X153593991Y-119523098D01*
X153595643Y-119460000D01*
X153575454Y-119240289D01*
X153515565Y-119027936D01*
X153417980Y-118830053D01*
X153285967Y-118653267D01*
X153170227Y-118546278D01*
X153128189Y-118507418D01*
X153128186Y-118507416D01*
X153123949Y-118503499D01*
X152937350Y-118385764D01*
X152732421Y-118304006D01*
X152726761Y-118302880D01*
X152726757Y-118302879D01*
X152521691Y-118262089D01*
X152521688Y-118262089D01*
X152516024Y-118260962D01*
X152510249Y-118260886D01*
X152510245Y-118260886D01*
X152399504Y-118259437D01*
X152295406Y-118258074D01*
X152289709Y-118259053D01*
X152289708Y-118259053D01*
X152083654Y-118294459D01*
X152083653Y-118294459D01*
X152077957Y-118295438D01*
X151870957Y-118371804D01*
X151865996Y-118374756D01*
X151865995Y-118374756D01*
X151748350Y-118444748D01*
X151681341Y-118484614D01*
X151515457Y-118630090D01*
X151378863Y-118803360D01*
X151350966Y-118856384D01*
X151318589Y-118917921D01*
X151269169Y-118968893D01*
X151200037Y-118985056D01*
X151133141Y-118961277D01*
X151091531Y-118909495D01*
X151052972Y-118820814D01*
X151048105Y-118811739D01*
X150932426Y-118632926D01*
X150926136Y-118624757D01*
X150782806Y-118467240D01*
X150775273Y-118460215D01*
X150608139Y-118328222D01*
X150599552Y-118322517D01*
X150413117Y-118219599D01*
X150403705Y-118215369D01*
X150202959Y-118144280D01*
X150192988Y-118141646D01*
X150121837Y-118128972D01*
X150108540Y-118130432D01*
X150104000Y-118144989D01*
X150104000Y-120778517D01*
X149596000Y-120778517D01*
X149596000Y-118143102D01*
X149592082Y-118129758D01*
X149577806Y-118127771D01*
X149539324Y-118133660D01*
X149529288Y-118136051D01*
X149326868Y-118202212D01*
X149317359Y-118206209D01*
X149128463Y-118304542D01*
X149119738Y-118310036D01*
X148949433Y-118437905D01*
X148941726Y-118444748D01*
X148794590Y-118598717D01*
X148788104Y-118606727D01*
X148668098Y-118782649D01*
X148663000Y-118791623D01*
X148607066Y-118912122D01*
X148560242Y-118965489D01*
X148491998Y-118985070D01*
X148424003Y-118964646D01*
X148379773Y-118914801D01*
X148340535Y-118835234D01*
X148340535Y-118835233D01*
X148340532Y-118835229D01*
X148337980Y-118830053D01*
X148205967Y-118653267D01*
X148090227Y-118546278D01*
X148048189Y-118507418D01*
X148048186Y-118507416D01*
X148043949Y-118503499D01*
X147857350Y-118385764D01*
X147652421Y-118304006D01*
X147646761Y-118302880D01*
X147646757Y-118302879D01*
X147441691Y-118262089D01*
X147441688Y-118262089D01*
X147436024Y-118260962D01*
X147430249Y-118260886D01*
X147430245Y-118260886D01*
X147319504Y-118259437D01*
X147215406Y-118258074D01*
X147209709Y-118259053D01*
X147209708Y-118259053D01*
X147003654Y-118294459D01*
X147003653Y-118294459D01*
X146997957Y-118295438D01*
X146790957Y-118371804D01*
X146785996Y-118374756D01*
X146785995Y-118374756D01*
X146668350Y-118444748D01*
X146601341Y-118484614D01*
X146435457Y-118630090D01*
X146298863Y-118803360D01*
X146219870Y-118953500D01*
X146208008Y-118976046D01*
X146158589Y-119027018D01*
X146089456Y-119043181D01*
X146022560Y-119019402D01*
X145979140Y-118963231D01*
X145970500Y-118917378D01*
X145970500Y-118576782D01*
X145966010Y-118546278D01*
X145961784Y-118517574D01*
X145961784Y-118517573D01*
X145960358Y-118507888D01*
X145925998Y-118437905D01*
X145913522Y-118412493D01*
X145913521Y-118412491D01*
X145908932Y-118403145D01*
X145826350Y-118320707D01*
X145804520Y-118310036D01*
X145763129Y-118289804D01*
X145721518Y-118269464D01*
X145691027Y-118265016D01*
X145657744Y-118260160D01*
X145657740Y-118260160D01*
X145653218Y-118259500D01*
X143886782Y-118259500D01*
X143882232Y-118260170D01*
X143882229Y-118260170D01*
X143827574Y-118268216D01*
X143827573Y-118268216D01*
X143817888Y-118269642D01*
X143776823Y-118289804D01*
X143722493Y-118316478D01*
X143722491Y-118316479D01*
X143713145Y-118321068D01*
X143630707Y-118403650D01*
X143626134Y-118413006D01*
X143626133Y-118413007D01*
X143619089Y-118427418D01*
X143579464Y-118508482D01*
X143569500Y-118576782D01*
X143569500Y-120343218D01*
X140419417Y-120343218D01*
X140521397Y-120258402D01*
X140552518Y-120232518D01*
X140649830Y-120115514D01*
X140689908Y-120067326D01*
X140689910Y-120067323D01*
X140693602Y-120062884D01*
X140763957Y-119937257D01*
X140798586Y-119875422D01*
X140798587Y-119875420D01*
X140801410Y-119870379D01*
X140803266Y-119864912D01*
X140803268Y-119864907D01*
X140870475Y-119666921D01*
X140870476Y-119666916D01*
X140872331Y-119661452D01*
X140873159Y-119655743D01*
X140873160Y-119655738D01*
X140903458Y-119446772D01*
X140903991Y-119443098D01*
X140905643Y-119380000D01*
X140885454Y-119160289D01*
X140825565Y-118947936D01*
X140727980Y-118750053D01*
X140657354Y-118655473D01*
X140599420Y-118577891D01*
X140599420Y-118577890D01*
X140595967Y-118573267D01*
X140456936Y-118444748D01*
X140438189Y-118427418D01*
X140438186Y-118427416D01*
X140433949Y-118423499D01*
X140247350Y-118305764D01*
X140044955Y-118225017D01*
X139989096Y-118181196D01*
X139965795Y-118114132D01*
X139982451Y-118045117D01*
X140033775Y-117996063D01*
X140051144Y-117988674D01*
X140184907Y-117943268D01*
X140184912Y-117943266D01*
X140190379Y-117941410D01*
X140382884Y-117833602D01*
X140552518Y-117692518D01*
X140649830Y-117575514D01*
X140689908Y-117527326D01*
X140689910Y-117527323D01*
X140693602Y-117522884D01*
X140758606Y-117406812D01*
X140798586Y-117335422D01*
X140798587Y-117335420D01*
X140801410Y-117330379D01*
X140803266Y-117324912D01*
X140803268Y-117324907D01*
X140870475Y-117126921D01*
X140870476Y-117126916D01*
X140872331Y-117121452D01*
X140873159Y-117115743D01*
X140873160Y-117115738D01*
X140903458Y-116906772D01*
X140903991Y-116903098D01*
X140905643Y-116840000D01*
X140885454Y-116620289D01*
X140825565Y-116407936D01*
X140727980Y-116210053D01*
X140657354Y-116115473D01*
X140599420Y-116037891D01*
X140599420Y-116037890D01*
X140595967Y-116033267D01*
X140433949Y-115883499D01*
X140247350Y-115765764D01*
X140044955Y-115685017D01*
X139989096Y-115641196D01*
X139965795Y-115574132D01*
X139982451Y-115505117D01*
X140033775Y-115456063D01*
X140051144Y-115448674D01*
X140184907Y-115403268D01*
X140184912Y-115403266D01*
X140190379Y-115401410D01*
X140382884Y-115293602D01*
X140552518Y-115152518D01*
X140649830Y-115035514D01*
X140689908Y-114987326D01*
X140689910Y-114987323D01*
X140693602Y-114982884D01*
X140758606Y-114866812D01*
X140798586Y-114795422D01*
X140798587Y-114795420D01*
X140801410Y-114790379D01*
X140803266Y-114784912D01*
X140803268Y-114784907D01*
X140870475Y-114586921D01*
X140870476Y-114586916D01*
X140872331Y-114581452D01*
X140873159Y-114575743D01*
X140873160Y-114575738D01*
X140903458Y-114366772D01*
X140903991Y-114363098D01*
X140905643Y-114300000D01*
X140885454Y-114080289D01*
X140825565Y-113867936D01*
X140727980Y-113670053D01*
X140657354Y-113575473D01*
X140599420Y-113497891D01*
X140599420Y-113497890D01*
X140595967Y-113493267D01*
X140433949Y-113343499D01*
X140247350Y-113225764D01*
X140044955Y-113145017D01*
X139989096Y-113101196D01*
X139965795Y-113034132D01*
X139982451Y-112965117D01*
X140033775Y-112916063D01*
X140051144Y-112908674D01*
X140184907Y-112863268D01*
X140184912Y-112863266D01*
X140190379Y-112861410D01*
X140382884Y-112753602D01*
X140552518Y-112612518D01*
X140649830Y-112495514D01*
X140689908Y-112447326D01*
X140689910Y-112447323D01*
X140693602Y-112442884D01*
X140758606Y-112326812D01*
X140798586Y-112255422D01*
X140798587Y-112255420D01*
X140801410Y-112250379D01*
X140803266Y-112244912D01*
X140803268Y-112244907D01*
X140870475Y-112046921D01*
X140870476Y-112046916D01*
X140872331Y-112041452D01*
X140873159Y-112035743D01*
X140873160Y-112035738D01*
X140903458Y-111826772D01*
X140903991Y-111823098D01*
X140905643Y-111760000D01*
X140885454Y-111540289D01*
X140825565Y-111327936D01*
X140727980Y-111130053D01*
X140657354Y-111035473D01*
X140599420Y-110957891D01*
X140599420Y-110957890D01*
X140595967Y-110953267D01*
X140433949Y-110803499D01*
X140248702Y-110686617D01*
X140248700Y-110686615D01*
X140247350Y-110685764D01*
X140247517Y-110685499D01*
X140198071Y-110638802D01*
X140181002Y-110569888D01*
X140203901Y-110502686D01*
X140251454Y-110462129D01*
X140393095Y-110392739D01*
X140401945Y-110387464D01*
X140575328Y-110263792D01*
X140583200Y-110257139D01*
X140734052Y-110106812D01*
X140740730Y-110098965D01*
X140865003Y-109926020D01*
X140870313Y-109917183D01*
X140906778Y-109843402D01*
X143609941Y-109843402D01*
X143626554Y-109993883D01*
X143678582Y-110136057D01*
X143682819Y-110142363D01*
X143682821Y-110142366D01*
X143712160Y-110186026D01*
X143763022Y-110261716D01*
X143874998Y-110363607D01*
X143881675Y-110367232D01*
X143881676Y-110367233D01*
X144001370Y-110432222D01*
X144001372Y-110432223D01*
X144008047Y-110435847D01*
X144015396Y-110437775D01*
X144147136Y-110472336D01*
X144147138Y-110472336D01*
X144154486Y-110474264D01*
X144234562Y-110475522D01*
X144298266Y-110476523D01*
X144298269Y-110476523D01*
X144305863Y-110476642D01*
X144453437Y-110442843D01*
X144553059Y-110392739D01*
X144581906Y-110378231D01*
X144581909Y-110378229D01*
X144588689Y-110374819D01*
X144703810Y-110276495D01*
X144792156Y-110153550D01*
X144848624Y-110013080D01*
X144869956Y-109863196D01*
X144870005Y-109858487D01*
X144870056Y-109858319D01*
X144870312Y-109854959D01*
X144871064Y-109855016D01*
X144890713Y-109790579D01*
X144906903Y-109770702D01*
X146145165Y-108532441D01*
X146207477Y-108498415D01*
X146219158Y-108496537D01*
X146225863Y-108496642D01*
X146373437Y-108462843D01*
X146440731Y-108428998D01*
X146501906Y-108398231D01*
X146501909Y-108398229D01*
X146508689Y-108394819D01*
X146623810Y-108296495D01*
X146712156Y-108173550D01*
X146768624Y-108033080D01*
X146782811Y-107933402D01*
X149599941Y-107933402D01*
X149616554Y-108083883D01*
X149668582Y-108226057D01*
X149672819Y-108232363D01*
X149672821Y-108232366D01*
X149682301Y-108246473D01*
X149753022Y-108351716D01*
X149864998Y-108453607D01*
X149871675Y-108457232D01*
X149871676Y-108457233D01*
X149991370Y-108522222D01*
X149991372Y-108522223D01*
X149998047Y-108525847D01*
X150005396Y-108527775D01*
X150137136Y-108562336D01*
X150137138Y-108562336D01*
X150144486Y-108564264D01*
X150224562Y-108565522D01*
X150288266Y-108566523D01*
X150288269Y-108566523D01*
X150295863Y-108566642D01*
X150443437Y-108532843D01*
X150516243Y-108496226D01*
X150571906Y-108468231D01*
X150571909Y-108468229D01*
X150578689Y-108464819D01*
X150671337Y-108385689D01*
X150736126Y-108356658D01*
X150753168Y-108355500D01*
X153112700Y-108355500D01*
X153112704Y-108355499D01*
X153145808Y-108355499D01*
X153167862Y-108348333D01*
X153187083Y-108343719D01*
X153200204Y-108341641D01*
X153209997Y-108340090D01*
X153218828Y-108335590D01*
X153218832Y-108335589D01*
X153230666Y-108329559D01*
X153248930Y-108321994D01*
X153270985Y-108314828D01*
X153289752Y-108301193D01*
X153306606Y-108290865D01*
X153318430Y-108284840D01*
X153318431Y-108284840D01*
X153327269Y-108280336D01*
X153864858Y-107742747D01*
X153927170Y-107708721D01*
X153955931Y-107705858D01*
X153998265Y-107706523D01*
X153998268Y-107706523D01*
X154005863Y-107706642D01*
X154153437Y-107672843D01*
X154258171Y-107620168D01*
X154281906Y-107608231D01*
X154281909Y-107608229D01*
X154288689Y-107604819D01*
X154403810Y-107506495D01*
X154492156Y-107383550D01*
X154548624Y-107243080D01*
X154569956Y-107093196D01*
X154570094Y-107080000D01*
X154551906Y-106929701D01*
X154530936Y-106874205D01*
X154501076Y-106795182D01*
X154501075Y-106795179D01*
X154498392Y-106788080D01*
X154412640Y-106663311D01*
X154299603Y-106562599D01*
X154292897Y-106559048D01*
X154292895Y-106559047D01*
X154232704Y-106527178D01*
X154165805Y-106491757D01*
X154018972Y-106454874D01*
X154011374Y-106454834D01*
X154011372Y-106454834D01*
X153946775Y-106454496D01*
X153867579Y-106454082D01*
X153860200Y-106455854D01*
X153860196Y-106455854D01*
X153727746Y-106487652D01*
X153727742Y-106487653D01*
X153720367Y-106489424D01*
X153585835Y-106558861D01*
X153580113Y-106563853D01*
X153580111Y-106563854D01*
X153477474Y-106653390D01*
X153477471Y-106653393D01*
X153471749Y-106658385D01*
X153467382Y-106664599D01*
X153409630Y-106746772D01*
X153384696Y-106782249D01*
X153329702Y-106923302D01*
X153309941Y-107073402D01*
X153309967Y-107073634D01*
X153290171Y-107138538D01*
X153273985Y-107158410D01*
X152944800Y-107487595D01*
X152882488Y-107521621D01*
X152855705Y-107524500D01*
X150751964Y-107524500D01*
X150683843Y-107504498D01*
X150668145Y-107492577D01*
X150595270Y-107427648D01*
X150595269Y-107427648D01*
X150589603Y-107422599D01*
X150582897Y-107419048D01*
X150582895Y-107419047D01*
X150476820Y-107362884D01*
X150455805Y-107351757D01*
X150308972Y-107314874D01*
X150301374Y-107314834D01*
X150301372Y-107314834D01*
X150236775Y-107314496D01*
X150157579Y-107314082D01*
X150150200Y-107315854D01*
X150150196Y-107315854D01*
X150017746Y-107347652D01*
X150017742Y-107347653D01*
X150010367Y-107349424D01*
X149875835Y-107418861D01*
X149870113Y-107423853D01*
X149870111Y-107423854D01*
X149767474Y-107513390D01*
X149767471Y-107513393D01*
X149761749Y-107518385D01*
X149757382Y-107524599D01*
X149690215Y-107620168D01*
X149674696Y-107642249D01*
X149619702Y-107783302D01*
X149613997Y-107826635D01*
X149604145Y-107901473D01*
X149599941Y-107933402D01*
X146782811Y-107933402D01*
X146789956Y-107883196D01*
X146790094Y-107870000D01*
X146788899Y-107860120D01*
X146780712Y-107792469D01*
X146771906Y-107719701D01*
X146766331Y-107704946D01*
X146721076Y-107585182D01*
X146721075Y-107585179D01*
X146718392Y-107578080D01*
X146642068Y-107467029D01*
X146636939Y-107459566D01*
X146632640Y-107453311D01*
X146548502Y-107378347D01*
X146525270Y-107357648D01*
X146525269Y-107357648D01*
X146519603Y-107352599D01*
X146512897Y-107349048D01*
X146512895Y-107349047D01*
X146446857Y-107314082D01*
X146385805Y-107281757D01*
X146238972Y-107244874D01*
X146231374Y-107244834D01*
X146231372Y-107244834D01*
X146166775Y-107244496D01*
X146087579Y-107244082D01*
X146080200Y-107245854D01*
X146080196Y-107245854D01*
X145947746Y-107277652D01*
X145947742Y-107277653D01*
X145940367Y-107279424D01*
X145805835Y-107348861D01*
X145800113Y-107353853D01*
X145800111Y-107353854D01*
X145697474Y-107443390D01*
X145697471Y-107443393D01*
X145691749Y-107448385D01*
X145687382Y-107454599D01*
X145638255Y-107524500D01*
X145604696Y-107572249D01*
X145549702Y-107713302D01*
X145548711Y-107720831D01*
X145531399Y-107852331D01*
X145529941Y-107863402D01*
X145532214Y-107883991D01*
X145534144Y-107901473D01*
X145521738Y-107971377D01*
X145498000Y-108004394D01*
X144314915Y-109187480D01*
X144252603Y-109221505D01*
X144225161Y-109224383D01*
X144213445Y-109224322D01*
X144167579Y-109224082D01*
X144160200Y-109225854D01*
X144160196Y-109225854D01*
X144027746Y-109257652D01*
X144027742Y-109257653D01*
X144020367Y-109259424D01*
X143885835Y-109328861D01*
X143880113Y-109333853D01*
X143880111Y-109333854D01*
X143777474Y-109423390D01*
X143777471Y-109423393D01*
X143771749Y-109428385D01*
X143684696Y-109552249D01*
X143629702Y-109693302D01*
X143628711Y-109700831D01*
X143611758Y-109829603D01*
X143609941Y-109843402D01*
X140906778Y-109843402D01*
X140964670Y-109726267D01*
X140968469Y-109716672D01*
X141030377Y-109512910D01*
X141032555Y-109502837D01*
X141033986Y-109491962D01*
X141031775Y-109477778D01*
X141018617Y-109474000D01*
X139572000Y-109474000D01*
X139503879Y-109453998D01*
X139457386Y-109400342D01*
X139446000Y-109348000D01*
X139446000Y-109092000D01*
X139466002Y-109023879D01*
X139519658Y-108977386D01*
X139572000Y-108966000D01*
X141018344Y-108966000D01*
X141031875Y-108962027D01*
X141033180Y-108952947D01*
X140991214Y-108785875D01*
X140987894Y-108776124D01*
X140902972Y-108580814D01*
X140898105Y-108571739D01*
X140782426Y-108392926D01*
X140776136Y-108384757D01*
X140632806Y-108227240D01*
X140625273Y-108220215D01*
X140458139Y-108088222D01*
X140449552Y-108082517D01*
X140263115Y-107979598D01*
X140254687Y-107975810D01*
X140200752Y-107929641D01*
X140180340Y-107861642D01*
X140199932Y-107793402D01*
X140244771Y-107750949D01*
X140287105Y-107727241D01*
X140382884Y-107673602D01*
X140387901Y-107669430D01*
X140548086Y-107536204D01*
X140552518Y-107532518D01*
X140622491Y-107448385D01*
X140689908Y-107367326D01*
X140689910Y-107367323D01*
X140693602Y-107362884D01*
X140764906Y-107235561D01*
X140798586Y-107175422D01*
X140798587Y-107175420D01*
X140801410Y-107170379D01*
X140803266Y-107164912D01*
X140803268Y-107164907D01*
X140870475Y-106966921D01*
X140870476Y-106966916D01*
X140872331Y-106961452D01*
X140873159Y-106955743D01*
X140873160Y-106955738D01*
X140903458Y-106746772D01*
X140903991Y-106743098D01*
X140905643Y-106680000D01*
X140885454Y-106460289D01*
X140883704Y-106454082D01*
X140827134Y-106253500D01*
X140825565Y-106247936D01*
X140727980Y-106050053D01*
X140671386Y-105974264D01*
X140599420Y-105877891D01*
X140599420Y-105877890D01*
X140595967Y-105873267D01*
X140433949Y-105723499D01*
X140247350Y-105605764D01*
X140044955Y-105525017D01*
X139989096Y-105481196D01*
X139965795Y-105414132D01*
X139982451Y-105345117D01*
X140033775Y-105296063D01*
X140051144Y-105288674D01*
X140184907Y-105243268D01*
X140184912Y-105243266D01*
X140190379Y-105241410D01*
X140238363Y-105214538D01*
X140356762Y-105148231D01*
X140382884Y-105133602D01*
X140416903Y-105105309D01*
X140548086Y-104996204D01*
X140552518Y-104992518D01*
X140597643Y-104938262D01*
X140689908Y-104827326D01*
X140689910Y-104827323D01*
X140693602Y-104822884D01*
X140766841Y-104692107D01*
X140798586Y-104635422D01*
X140798587Y-104635420D01*
X140801410Y-104630379D01*
X140803266Y-104624912D01*
X140803268Y-104624907D01*
X140807173Y-104613402D01*
X143659941Y-104613402D01*
X143676554Y-104763883D01*
X143728582Y-104906057D01*
X143732819Y-104912363D01*
X143732821Y-104912366D01*
X143750223Y-104938262D01*
X143813022Y-105031716D01*
X143924998Y-105133607D01*
X143931675Y-105137232D01*
X143931676Y-105137233D01*
X144051370Y-105202222D01*
X144051372Y-105202223D01*
X144058047Y-105205847D01*
X144065396Y-105207775D01*
X144197136Y-105242336D01*
X144197138Y-105242336D01*
X144204486Y-105244264D01*
X144284562Y-105245522D01*
X144348266Y-105246523D01*
X144348269Y-105246523D01*
X144355863Y-105246642D01*
X144503437Y-105212843D01*
X144570731Y-105178998D01*
X144631906Y-105148231D01*
X144631909Y-105148229D01*
X144638689Y-105144819D01*
X144731337Y-105065689D01*
X144796126Y-105036658D01*
X144813168Y-105035500D01*
X145475704Y-105035500D01*
X145543825Y-105055502D01*
X145564800Y-105072405D01*
X145774204Y-105281810D01*
X145808229Y-105344122D01*
X145810347Y-105357078D01*
X145826554Y-105503883D01*
X145878582Y-105646057D01*
X145882819Y-105652363D01*
X145882821Y-105652366D01*
X145898573Y-105675807D01*
X145963022Y-105771716D01*
X146074998Y-105873607D01*
X146081675Y-105877232D01*
X146081676Y-105877233D01*
X146201370Y-105942222D01*
X146201372Y-105942223D01*
X146208047Y-105945847D01*
X146215396Y-105947775D01*
X146347136Y-105982336D01*
X146347138Y-105982336D01*
X146354486Y-105984264D01*
X146434562Y-105985522D01*
X146498266Y-105986523D01*
X146498269Y-105986523D01*
X146505863Y-105986642D01*
X146653437Y-105952843D01*
X146720731Y-105918998D01*
X146781906Y-105888231D01*
X146781909Y-105888229D01*
X146788689Y-105884819D01*
X146903810Y-105786495D01*
X146982159Y-105677462D01*
X146987724Y-105669718D01*
X146987725Y-105669717D01*
X146992156Y-105663550D01*
X147048624Y-105523080D01*
X147069956Y-105373196D01*
X147070094Y-105360000D01*
X147068086Y-105343402D01*
X150179941Y-105343402D01*
X150196554Y-105493883D01*
X150248582Y-105636057D01*
X150252819Y-105642363D01*
X150252821Y-105642366D01*
X150275293Y-105675807D01*
X150333022Y-105761716D01*
X150444998Y-105863607D01*
X150451675Y-105867232D01*
X150451676Y-105867233D01*
X150571370Y-105932222D01*
X150571372Y-105932223D01*
X150578047Y-105935847D01*
X150585396Y-105937775D01*
X150717136Y-105972336D01*
X150717138Y-105972336D01*
X150724486Y-105974264D01*
X150804562Y-105975522D01*
X150868266Y-105976523D01*
X150868269Y-105976523D01*
X150875863Y-105976642D01*
X151023437Y-105942843D01*
X151090731Y-105908998D01*
X151151906Y-105878231D01*
X151151909Y-105878229D01*
X151158689Y-105874819D01*
X151273810Y-105776495D01*
X151362156Y-105653550D01*
X151364988Y-105646506D01*
X151364992Y-105646498D01*
X151397953Y-105564504D01*
X151441919Y-105508759D01*
X151514860Y-105485500D01*
X152699797Y-105485500D01*
X152767918Y-105505502D01*
X152784597Y-105518307D01*
X152876177Y-105601639D01*
X152882854Y-105605264D01*
X152882855Y-105605265D01*
X153002549Y-105670254D01*
X153002551Y-105670255D01*
X153009226Y-105673879D01*
X153016575Y-105675807D01*
X153148315Y-105710368D01*
X153148317Y-105710368D01*
X153155665Y-105712296D01*
X153235741Y-105713554D01*
X153299445Y-105714555D01*
X153299448Y-105714555D01*
X153307042Y-105714674D01*
X153454616Y-105680875D01*
X153523845Y-105646057D01*
X153583085Y-105616263D01*
X153583088Y-105616261D01*
X153589868Y-105612851D01*
X153704989Y-105514527D01*
X153793335Y-105391582D01*
X153849803Y-105251112D01*
X153871135Y-105101228D01*
X153871273Y-105088032D01*
X153870322Y-105080168D01*
X153860161Y-104996204D01*
X153853085Y-104937733D01*
X153831030Y-104879366D01*
X153802255Y-104803214D01*
X153802254Y-104803211D01*
X153799571Y-104796112D01*
X153713819Y-104671343D01*
X153600782Y-104570631D01*
X153594076Y-104567080D01*
X153594074Y-104567079D01*
X153523952Y-104529952D01*
X153466984Y-104499789D01*
X153320151Y-104462906D01*
X153312553Y-104462866D01*
X153312551Y-104462866D01*
X153247954Y-104462528D01*
X153168758Y-104462114D01*
X153161379Y-104463886D01*
X153161375Y-104463886D01*
X153028925Y-104495684D01*
X153028921Y-104495685D01*
X153021546Y-104497456D01*
X152887014Y-104566893D01*
X152881295Y-104571882D01*
X152822183Y-104623449D01*
X152757700Y-104653157D01*
X152739353Y-104654500D01*
X151024192Y-104654500D01*
X151002135Y-104661667D01*
X150982912Y-104666282D01*
X150960003Y-104669910D01*
X150945580Y-104677259D01*
X150939336Y-104680440D01*
X150921074Y-104688004D01*
X150908448Y-104692107D01*
X150908446Y-104692108D01*
X150899016Y-104695172D01*
X150890994Y-104701000D01*
X150882159Y-104705502D01*
X150881453Y-104704117D01*
X150824905Y-104724294D01*
X150817063Y-104724498D01*
X150737579Y-104724082D01*
X150730200Y-104725854D01*
X150730196Y-104725854D01*
X150597746Y-104757652D01*
X150597742Y-104757653D01*
X150590367Y-104759424D01*
X150455835Y-104828861D01*
X150450113Y-104833853D01*
X150450111Y-104833854D01*
X150347474Y-104923390D01*
X150347471Y-104923393D01*
X150341749Y-104928385D01*
X150333948Y-104939485D01*
X150265654Y-105036658D01*
X150254696Y-105052249D01*
X150199702Y-105193302D01*
X150193740Y-105238586D01*
X150181004Y-105335329D01*
X150179941Y-105343402D01*
X147068086Y-105343402D01*
X147056103Y-105244383D01*
X147051906Y-105209701D01*
X147043036Y-105186226D01*
X147001076Y-105075182D01*
X147001075Y-105075179D01*
X146998392Y-105068080D01*
X146912640Y-104943311D01*
X146856122Y-104892955D01*
X146805270Y-104847648D01*
X146805269Y-104847648D01*
X146799603Y-104842599D01*
X146792897Y-104839048D01*
X146792895Y-104839047D01*
X146699990Y-104789857D01*
X146665805Y-104771757D01*
X146518972Y-104734874D01*
X146511374Y-104734834D01*
X146511372Y-104734834D01*
X146453671Y-104734532D01*
X146385656Y-104714174D01*
X146365236Y-104697630D01*
X145970680Y-104303075D01*
X145947269Y-104279664D01*
X145932341Y-104272057D01*
X145926606Y-104269135D01*
X145909752Y-104258807D01*
X145899009Y-104251002D01*
X145899010Y-104251002D01*
X145890985Y-104245172D01*
X145868929Y-104238006D01*
X145850666Y-104230441D01*
X145838832Y-104224411D01*
X145838828Y-104224410D01*
X145829997Y-104219910D01*
X145807083Y-104216281D01*
X145787862Y-104211667D01*
X145765808Y-104204501D01*
X145732704Y-104204501D01*
X145732700Y-104204500D01*
X144811964Y-104204500D01*
X144743843Y-104184498D01*
X144728145Y-104172577D01*
X144655270Y-104107648D01*
X144655269Y-104107648D01*
X144649603Y-104102599D01*
X144642897Y-104099048D01*
X144642895Y-104099047D01*
X144582704Y-104067178D01*
X144515805Y-104031757D01*
X144368972Y-103994874D01*
X144361374Y-103994834D01*
X144361372Y-103994834D01*
X144296775Y-103994496D01*
X144217579Y-103994082D01*
X144210200Y-103995854D01*
X144210196Y-103995854D01*
X144077746Y-104027652D01*
X144077742Y-104027653D01*
X144070367Y-104029424D01*
X143935835Y-104098861D01*
X143930113Y-104103853D01*
X143930111Y-104103854D01*
X143827474Y-104193390D01*
X143827471Y-104193393D01*
X143821749Y-104198385D01*
X143807711Y-104218359D01*
X143748172Y-104303075D01*
X143734696Y-104322249D01*
X143679702Y-104463302D01*
X143678711Y-104470831D01*
X143661453Y-104601919D01*
X143659941Y-104613402D01*
X140807173Y-104613402D01*
X140870475Y-104426921D01*
X140870476Y-104426916D01*
X140872331Y-104421452D01*
X140873159Y-104415743D01*
X140873160Y-104415738D01*
X140895069Y-104264634D01*
X140903991Y-104203098D01*
X140905643Y-104140000D01*
X140885454Y-103920289D01*
X140825565Y-103707936D01*
X140727980Y-103510053D01*
X140669269Y-103431429D01*
X140599420Y-103337891D01*
X140599420Y-103337890D01*
X140595967Y-103333267D01*
X140498586Y-103243249D01*
X140438189Y-103187418D01*
X140438186Y-103187416D01*
X140433949Y-103183499D01*
X140247350Y-103065764D01*
X140044955Y-102985017D01*
X139989096Y-102941196D01*
X139965795Y-102874132D01*
X139982451Y-102805117D01*
X140033775Y-102756063D01*
X140051144Y-102748674D01*
X140184907Y-102703268D01*
X140184912Y-102703266D01*
X140190379Y-102701410D01*
X140204595Y-102693449D01*
X140294610Y-102643038D01*
X140382884Y-102593602D01*
X140401329Y-102578262D01*
X140548086Y-102456204D01*
X140552518Y-102452518D01*
X140601309Y-102393854D01*
X140689908Y-102287326D01*
X140689910Y-102287323D01*
X140693602Y-102282884D01*
X140778797Y-102130758D01*
X140798586Y-102095422D01*
X140798587Y-102095420D01*
X140801410Y-102090379D01*
X140803266Y-102084912D01*
X140803268Y-102084907D01*
X140870475Y-101886921D01*
X140870476Y-101886916D01*
X140872331Y-101881452D01*
X140873159Y-101875743D01*
X140873160Y-101875738D01*
X140903458Y-101666772D01*
X140903991Y-101663098D01*
X140905643Y-101600000D01*
X140885454Y-101380289D01*
X140825565Y-101167936D01*
X140727980Y-100970053D01*
X140657354Y-100875473D01*
X140599420Y-100797891D01*
X140599420Y-100797890D01*
X140595967Y-100793267D01*
X140477463Y-100683723D01*
X140438189Y-100647418D01*
X140438186Y-100647416D01*
X140433949Y-100643499D01*
X140247350Y-100525764D01*
X140044955Y-100445017D01*
X139989096Y-100401196D01*
X139965795Y-100334132D01*
X139982451Y-100265117D01*
X140033775Y-100216063D01*
X140051144Y-100208674D01*
X140184907Y-100163268D01*
X140184912Y-100163266D01*
X140190379Y-100161410D01*
X140382884Y-100053602D01*
X140400354Y-100039073D01*
X140419196Y-100023402D01*
X145669941Y-100023402D01*
X145686554Y-100173883D01*
X145738582Y-100316057D01*
X145742819Y-100322363D01*
X145742821Y-100322366D01*
X145803081Y-100412041D01*
X145824500Y-100482317D01*
X145824500Y-100672627D01*
X145823261Y-100683723D01*
X145823859Y-100683771D01*
X145823139Y-100692717D01*
X145821158Y-100701473D01*
X145821714Y-100710433D01*
X145824258Y-100751440D01*
X145824500Y-100759242D01*
X145824500Y-100774145D01*
X145825374Y-100780249D01*
X145825841Y-100783508D01*
X145826871Y-100793566D01*
X145829592Y-100837417D01*
X145832641Y-100845862D01*
X145833932Y-100852098D01*
X145835865Y-100859849D01*
X145837646Y-100865938D01*
X145838919Y-100874829D01*
X145842636Y-100883004D01*
X145857108Y-100914836D01*
X145860920Y-100924201D01*
X145872791Y-100957083D01*
X145872793Y-100957086D01*
X145875841Y-100965530D01*
X145881136Y-100972777D01*
X145884129Y-100978407D01*
X145888132Y-100985257D01*
X145891577Y-100990644D01*
X145895294Y-100998820D01*
X145901154Y-101005620D01*
X145901154Y-101005621D01*
X145923981Y-101032113D01*
X145930266Y-101040029D01*
X145934702Y-101046101D01*
X145934708Y-101046108D01*
X145937577Y-101050035D01*
X145947618Y-101060076D01*
X145953976Y-101066923D01*
X145984204Y-101102004D01*
X145991739Y-101106888D01*
X145998501Y-101112787D01*
X145998431Y-101112867D01*
X146008794Y-101121252D01*
X147197595Y-102310053D01*
X147231621Y-102372365D01*
X147234500Y-102399148D01*
X147234500Y-102742627D01*
X147233261Y-102753723D01*
X147233859Y-102753771D01*
X147233139Y-102762717D01*
X147231158Y-102771473D01*
X147231714Y-102780433D01*
X147234258Y-102821440D01*
X147234500Y-102829242D01*
X147234500Y-102844145D01*
X147235296Y-102849701D01*
X147235841Y-102853508D01*
X147236871Y-102863566D01*
X147239592Y-102907417D01*
X147242641Y-102915862D01*
X147243932Y-102922098D01*
X147245865Y-102929849D01*
X147247646Y-102935939D01*
X147248919Y-102944829D01*
X147252635Y-102953001D01*
X147261271Y-102971996D01*
X147271809Y-103010320D01*
X147286554Y-103143883D01*
X147338582Y-103286057D01*
X147342819Y-103292363D01*
X147342821Y-103292366D01*
X147370306Y-103333267D01*
X147423022Y-103411716D01*
X147534998Y-103513607D01*
X147541675Y-103517232D01*
X147541676Y-103517233D01*
X147661370Y-103582222D01*
X147661372Y-103582223D01*
X147668047Y-103585847D01*
X147675396Y-103587775D01*
X147807136Y-103622336D01*
X147807138Y-103622336D01*
X147814486Y-103624264D01*
X147894562Y-103625522D01*
X147958266Y-103626523D01*
X147958269Y-103626523D01*
X147965863Y-103626642D01*
X148113437Y-103592843D01*
X148193782Y-103552434D01*
X148241906Y-103528231D01*
X148241909Y-103528229D01*
X148248689Y-103524819D01*
X148363810Y-103426495D01*
X148439102Y-103321716D01*
X148447724Y-103309718D01*
X148447725Y-103309717D01*
X148452156Y-103303550D01*
X148508624Y-103163080D01*
X148529956Y-103013196D01*
X148530094Y-103000000D01*
X148528817Y-102989442D01*
X148520667Y-102922098D01*
X148518405Y-102903402D01*
X149069941Y-102903402D01*
X149086554Y-103053883D01*
X149138582Y-103196057D01*
X149142819Y-103202363D01*
X149142821Y-103202366D01*
X149181412Y-103259794D01*
X149223022Y-103321716D01*
X149334998Y-103423607D01*
X149341675Y-103427232D01*
X149341676Y-103427233D01*
X149461370Y-103492222D01*
X149461372Y-103492223D01*
X149468047Y-103495847D01*
X149475396Y-103497775D01*
X149607136Y-103532336D01*
X149607138Y-103532336D01*
X149614486Y-103534264D01*
X149688828Y-103535432D01*
X149758262Y-103536523D01*
X149758265Y-103536523D01*
X149765863Y-103536642D01*
X149765854Y-103537237D01*
X149799887Y-103540814D01*
X149800002Y-103540090D01*
X149822917Y-103543719D01*
X149842138Y-103548333D01*
X149864192Y-103555499D01*
X149897296Y-103555499D01*
X149897300Y-103555500D01*
X150438435Y-103555500D01*
X150506556Y-103575502D01*
X150523235Y-103588307D01*
X150594998Y-103653607D01*
X150601675Y-103657232D01*
X150601676Y-103657233D01*
X150721370Y-103722222D01*
X150721372Y-103722223D01*
X150728047Y-103725847D01*
X150735396Y-103727775D01*
X150867136Y-103762336D01*
X150867138Y-103762336D01*
X150874486Y-103764264D01*
X150954562Y-103765522D01*
X151018266Y-103766523D01*
X151018269Y-103766523D01*
X151025863Y-103766642D01*
X151173437Y-103732843D01*
X151240731Y-103698998D01*
X151301906Y-103668231D01*
X151301909Y-103668229D01*
X151308689Y-103664819D01*
X151423810Y-103566495D01*
X151512156Y-103443550D01*
X151568624Y-103303080D01*
X151589956Y-103153196D01*
X151590094Y-103140000D01*
X151571906Y-102989701D01*
X151544109Y-102916137D01*
X151521076Y-102855182D01*
X151521075Y-102855179D01*
X151518392Y-102848080D01*
X151432640Y-102723311D01*
X151319603Y-102622599D01*
X151312897Y-102619048D01*
X151312895Y-102619047D01*
X151245400Y-102583311D01*
X151185805Y-102551757D01*
X151038972Y-102514874D01*
X151031374Y-102514834D01*
X151031372Y-102514834D01*
X150966775Y-102514496D01*
X150887579Y-102514082D01*
X150880200Y-102515854D01*
X150880196Y-102515854D01*
X150747746Y-102547652D01*
X150747742Y-102547653D01*
X150740367Y-102549424D01*
X150733622Y-102552905D01*
X150733623Y-102552905D01*
X150618646Y-102612249D01*
X150605835Y-102618861D01*
X150520332Y-102693450D01*
X150455853Y-102723157D01*
X150437505Y-102724500D01*
X150385689Y-102724500D01*
X150317568Y-102704498D01*
X150271075Y-102650842D01*
X150267823Y-102643038D01*
X150261076Y-102625182D01*
X150261075Y-102625180D01*
X150258392Y-102618080D01*
X150188732Y-102516725D01*
X150176939Y-102499566D01*
X150172640Y-102493311D01*
X150100804Y-102429308D01*
X150065270Y-102397648D01*
X150065269Y-102397648D01*
X150059603Y-102392599D01*
X150052897Y-102389048D01*
X150052895Y-102389047D01*
X149992704Y-102357178D01*
X149925805Y-102321757D01*
X149778972Y-102284874D01*
X149771374Y-102284834D01*
X149771372Y-102284834D01*
X149706775Y-102284496D01*
X149627579Y-102284082D01*
X149620200Y-102285854D01*
X149620196Y-102285854D01*
X149487746Y-102317652D01*
X149487742Y-102317653D01*
X149480367Y-102319424D01*
X149473622Y-102322905D01*
X149473623Y-102322905D01*
X149357187Y-102383002D01*
X149345835Y-102388861D01*
X149340113Y-102393853D01*
X149340111Y-102393854D01*
X149237474Y-102483390D01*
X149237471Y-102483393D01*
X149231749Y-102488385D01*
X149197609Y-102536961D01*
X149160398Y-102589908D01*
X149144696Y-102612249D01*
X149089702Y-102753302D01*
X149088711Y-102760831D01*
X149075185Y-102863573D01*
X149069941Y-102903402D01*
X148518405Y-102903402D01*
X148511906Y-102849701D01*
X148485732Y-102780433D01*
X148461076Y-102715182D01*
X148461075Y-102715179D01*
X148458392Y-102708080D01*
X148372640Y-102583311D01*
X148259603Y-102482599D01*
X148252900Y-102479050D01*
X148252890Y-102479043D01*
X148252543Y-102478860D01*
X148252338Y-102478660D01*
X148246653Y-102474709D01*
X148247312Y-102473761D01*
X148201699Y-102429308D01*
X148185500Y-102367505D01*
X148185500Y-102217373D01*
X148186739Y-102206277D01*
X148186141Y-102206229D01*
X148186861Y-102197283D01*
X148188842Y-102188527D01*
X148185742Y-102138559D01*
X148185500Y-102130758D01*
X148185500Y-102115855D01*
X148184158Y-102106486D01*
X148183128Y-102096427D01*
X148182414Y-102084907D01*
X148180408Y-102052583D01*
X148177359Y-102044138D01*
X148176068Y-102037902D01*
X148174135Y-102030151D01*
X148172354Y-102024062D01*
X148171081Y-102015171D01*
X148159615Y-101989952D01*
X148152892Y-101975164D01*
X148149080Y-101965799D01*
X148137209Y-101932917D01*
X148137207Y-101932914D01*
X148134159Y-101924470D01*
X148128864Y-101917223D01*
X148125871Y-101911593D01*
X148121868Y-101904743D01*
X148118423Y-101899356D01*
X148114706Y-101891180D01*
X148086019Y-101857887D01*
X148079734Y-101849971D01*
X148075298Y-101843899D01*
X148075292Y-101843892D01*
X148072423Y-101839965D01*
X148062382Y-101829924D01*
X148056024Y-101823077D01*
X148031657Y-101794798D01*
X148025796Y-101787996D01*
X148018261Y-101783112D01*
X148011499Y-101777213D01*
X148011569Y-101777133D01*
X148001206Y-101768748D01*
X146812405Y-100579947D01*
X146778379Y-100517635D01*
X146775500Y-100490852D01*
X146775500Y-100480803D01*
X146799178Y-100407276D01*
X146847724Y-100339718D01*
X146847725Y-100339717D01*
X146852156Y-100333550D01*
X146908624Y-100193080D01*
X146929956Y-100043196D01*
X146930094Y-100030000D01*
X146911906Y-99879701D01*
X146881550Y-99799366D01*
X146861076Y-99745182D01*
X146861075Y-99745179D01*
X146858392Y-99738080D01*
X146772640Y-99613311D01*
X146659603Y-99512599D01*
X146652897Y-99509048D01*
X146652895Y-99509047D01*
X146592704Y-99477178D01*
X146525805Y-99441757D01*
X146378972Y-99404874D01*
X146371374Y-99404834D01*
X146371372Y-99404834D01*
X146306775Y-99404496D01*
X146227579Y-99404082D01*
X146220200Y-99405854D01*
X146220196Y-99405854D01*
X146087746Y-99437652D01*
X146087742Y-99437653D01*
X146080367Y-99439424D01*
X145945835Y-99508861D01*
X145940113Y-99513853D01*
X145940111Y-99513854D01*
X145837474Y-99603390D01*
X145837471Y-99603393D01*
X145831749Y-99608385D01*
X145744696Y-99732249D01*
X145689702Y-99873302D01*
X145688711Y-99880831D01*
X145673000Y-100000168D01*
X145669941Y-100023402D01*
X140419196Y-100023402D01*
X140548086Y-99916204D01*
X140552518Y-99912518D01*
X140649830Y-99795514D01*
X140689908Y-99747326D01*
X140689910Y-99747323D01*
X140693602Y-99742884D01*
X140771722Y-99603390D01*
X140798586Y-99555422D01*
X140798587Y-99555420D01*
X140801410Y-99550379D01*
X140803266Y-99544912D01*
X140803268Y-99544907D01*
X140870475Y-99346921D01*
X140870476Y-99346916D01*
X140872331Y-99341452D01*
X140873159Y-99335743D01*
X140873160Y-99335738D01*
X140903458Y-99126772D01*
X140903991Y-99123098D01*
X140905643Y-99060000D01*
X140885454Y-98840289D01*
X140825565Y-98627936D01*
X140727980Y-98430053D01*
X140657354Y-98335473D01*
X140599420Y-98257891D01*
X140599420Y-98257890D01*
X140595967Y-98253267D01*
X140433949Y-98103499D01*
X140248702Y-97986617D01*
X140248700Y-97986615D01*
X140247350Y-97985764D01*
X140247517Y-97985499D01*
X140198071Y-97938802D01*
X140181002Y-97869888D01*
X140203901Y-97802686D01*
X140251454Y-97762129D01*
X140393095Y-97692739D01*
X140401945Y-97687464D01*
X140575328Y-97563792D01*
X140583200Y-97557139D01*
X140734052Y-97406812D01*
X140740730Y-97398965D01*
X140865003Y-97226020D01*
X140870313Y-97217183D01*
X140964670Y-97026267D01*
X140968469Y-97016672D01*
X141030377Y-96812910D01*
X141032555Y-96802837D01*
X141033986Y-96791962D01*
X141031775Y-96777778D01*
X141018617Y-96774000D01*
X139572000Y-96774000D01*
X139503879Y-96753998D01*
X139457386Y-96700342D01*
X139446000Y-96648000D01*
X139446000Y-96392000D01*
X139466002Y-96323879D01*
X139519658Y-96277386D01*
X139572000Y-96266000D01*
X141018344Y-96266000D01*
X141031875Y-96262027D01*
X141033180Y-96252947D01*
X140991214Y-96085875D01*
X140987894Y-96076124D01*
X140902972Y-95880814D01*
X140898105Y-95871739D01*
X140782426Y-95692926D01*
X140776136Y-95684757D01*
X140632806Y-95527240D01*
X140625273Y-95520215D01*
X140458139Y-95388222D01*
X140449552Y-95382517D01*
X140263115Y-95279598D01*
X140254687Y-95275810D01*
X140200752Y-95229641D01*
X140180340Y-95161642D01*
X140199932Y-95093402D01*
X140244771Y-95050949D01*
X140366422Y-94982821D01*
X140382884Y-94973602D01*
X140552518Y-94832518D01*
X140649830Y-94715514D01*
X140689908Y-94667326D01*
X140689910Y-94667323D01*
X140693602Y-94662884D01*
X140764775Y-94535795D01*
X140798586Y-94475422D01*
X140798587Y-94475420D01*
X140801410Y-94470379D01*
X140803266Y-94464912D01*
X140803268Y-94464907D01*
X140870475Y-94266921D01*
X140870476Y-94266916D01*
X140872331Y-94261452D01*
X140873159Y-94255743D01*
X140873160Y-94255738D01*
X140903458Y-94046772D01*
X140903991Y-94043098D01*
X140905643Y-93980000D01*
X140885454Y-93760289D01*
X140825565Y-93547936D01*
X140727980Y-93350053D01*
X140697209Y-93308845D01*
X140599420Y-93177891D01*
X140599420Y-93177890D01*
X140595967Y-93173267D01*
X140443089Y-93031948D01*
X140438189Y-93027418D01*
X140438186Y-93027416D01*
X140433949Y-93023499D01*
X140247350Y-92905764D01*
X140044955Y-92825017D01*
X139989096Y-92781196D01*
X139965795Y-92714132D01*
X139982451Y-92645117D01*
X140033775Y-92596063D01*
X140051144Y-92588674D01*
X140184907Y-92543268D01*
X140184912Y-92543266D01*
X140190379Y-92541410D01*
X140382884Y-92433602D01*
X140460324Y-92369196D01*
X140548086Y-92296204D01*
X140552518Y-92292518D01*
X140583668Y-92255064D01*
X140689908Y-92127326D01*
X140689910Y-92127323D01*
X140693602Y-92122884D01*
X140758606Y-92006812D01*
X140798586Y-91935422D01*
X140798587Y-91935420D01*
X140801410Y-91930379D01*
X140803266Y-91924912D01*
X140803268Y-91924907D01*
X140870475Y-91726921D01*
X140870476Y-91726916D01*
X140872331Y-91721452D01*
X140873159Y-91715743D01*
X140873160Y-91715738D01*
X140903458Y-91506772D01*
X140903991Y-91503098D01*
X140905643Y-91440000D01*
X140885454Y-91220289D01*
X140825565Y-91007936D01*
X140727980Y-90810053D01*
X140657354Y-90715473D01*
X140599420Y-90637891D01*
X140599420Y-90637890D01*
X140595967Y-90633267D01*
X140433949Y-90483499D01*
X140247350Y-90365764D01*
X140044955Y-90285017D01*
X139989096Y-90241196D01*
X139965795Y-90174132D01*
X139982451Y-90105117D01*
X140033775Y-90056063D01*
X140051144Y-90048674D01*
X140184907Y-90003268D01*
X140184912Y-90003266D01*
X140190379Y-90001410D01*
X140382884Y-89893602D01*
X140552518Y-89752518D01*
X140649830Y-89635514D01*
X140689908Y-89587326D01*
X140689910Y-89587323D01*
X140693602Y-89582884D01*
X140758606Y-89466812D01*
X140798586Y-89395422D01*
X140798587Y-89395420D01*
X140801410Y-89390379D01*
X140803266Y-89384912D01*
X140803268Y-89384907D01*
X140870475Y-89186921D01*
X140870476Y-89186916D01*
X140872331Y-89181452D01*
X140873159Y-89175743D01*
X140873160Y-89175738D01*
X140903458Y-88966772D01*
X140903991Y-88963098D01*
X140905643Y-88900000D01*
X140885454Y-88680289D01*
X140825565Y-88467936D01*
X140727980Y-88270053D01*
X140657354Y-88175473D01*
X140599420Y-88097891D01*
X140599420Y-88097890D01*
X140595967Y-88093267D01*
X140433949Y-87943499D01*
X140247350Y-87825764D01*
X140044955Y-87745017D01*
X139989096Y-87701196D01*
X139965795Y-87634132D01*
X139982451Y-87565117D01*
X140033775Y-87516063D01*
X140051144Y-87508674D01*
X140184907Y-87463268D01*
X140184912Y-87463266D01*
X140190379Y-87461410D01*
X140382884Y-87353602D01*
X140552518Y-87212518D01*
X140661941Y-87080952D01*
X140689908Y-87047326D01*
X140689910Y-87047323D01*
X140693602Y-87042884D01*
X140764534Y-86916226D01*
X140798586Y-86855422D01*
X140798587Y-86855420D01*
X140801410Y-86850379D01*
X140803266Y-86844912D01*
X140803268Y-86844907D01*
X140870475Y-86646921D01*
X140870476Y-86646916D01*
X140872331Y-86641452D01*
X140873159Y-86635743D01*
X140873160Y-86635738D01*
X140899115Y-86456725D01*
X140903991Y-86423098D01*
X140905643Y-86360000D01*
X140885454Y-86140289D01*
X140825565Y-85927936D01*
X140727980Y-85730053D01*
X140657354Y-85635473D01*
X140599420Y-85557891D01*
X140599420Y-85557890D01*
X140595967Y-85553267D01*
X140433949Y-85403499D01*
X140248702Y-85286617D01*
X140248700Y-85286615D01*
X140247350Y-85285764D01*
X140247517Y-85285499D01*
X140198071Y-85238802D01*
X140181002Y-85169888D01*
X140203901Y-85102686D01*
X140251454Y-85062129D01*
X140393095Y-84992739D01*
X140401945Y-84987464D01*
X140575328Y-84863792D01*
X140583200Y-84857139D01*
X140734052Y-84706812D01*
X140740730Y-84698965D01*
X140865003Y-84526020D01*
X140870313Y-84517183D01*
X140964670Y-84326267D01*
X140968469Y-84316672D01*
X141030377Y-84112910D01*
X141032555Y-84102837D01*
X141033986Y-84091962D01*
X141031775Y-84077778D01*
X141018617Y-84074000D01*
X139572000Y-84074000D01*
X139503879Y-84053998D01*
X139457386Y-84000342D01*
X139446000Y-83948000D01*
X139446000Y-83692000D01*
X139466002Y-83623879D01*
X139519658Y-83577386D01*
X139572000Y-83566000D01*
X141018344Y-83566000D01*
X141031875Y-83562027D01*
X141033180Y-83552947D01*
X140991214Y-83385875D01*
X140987894Y-83376124D01*
X140902972Y-83180814D01*
X140898105Y-83171739D01*
X140782426Y-82992926D01*
X140776136Y-82984757D01*
X140632806Y-82827240D01*
X140625273Y-82820215D01*
X140458139Y-82688222D01*
X140449552Y-82682517D01*
X140263115Y-82579598D01*
X140254687Y-82575810D01*
X140200752Y-82529641D01*
X140180340Y-82461642D01*
X140199932Y-82393402D01*
X140244771Y-82350949D01*
X140377843Y-82276425D01*
X140382884Y-82273602D01*
X140552518Y-82132518D01*
X140630236Y-82039073D01*
X140689908Y-81967326D01*
X140689910Y-81967323D01*
X140693602Y-81962884D01*
X140758606Y-81846812D01*
X140798586Y-81775422D01*
X140798587Y-81775420D01*
X140801410Y-81770379D01*
X140803266Y-81764912D01*
X140803268Y-81764907D01*
X140870475Y-81566921D01*
X140870476Y-81566916D01*
X140872331Y-81561452D01*
X140873159Y-81555743D01*
X140873160Y-81555738D01*
X140903458Y-81346772D01*
X140903991Y-81343098D01*
X140905643Y-81280000D01*
X140885454Y-81060289D01*
X140825565Y-80847936D01*
X140727980Y-80650053D01*
X140657354Y-80555473D01*
X140599420Y-80477891D01*
X140599420Y-80477890D01*
X140595967Y-80473267D01*
X140433949Y-80323499D01*
X140247350Y-80205764D01*
X140207346Y-80189804D01*
X140191620Y-80183530D01*
X140135760Y-80139709D01*
X140112460Y-80072645D01*
X140129116Y-80003630D01*
X140180440Y-79954576D01*
X140238310Y-79940500D01*
X140583218Y-79940500D01*
X140587768Y-79939830D01*
X140587771Y-79939830D01*
X140642426Y-79931784D01*
X140642427Y-79931784D01*
X140652112Y-79930358D01*
X140733355Y-79890470D01*
X140747507Y-79883522D01*
X140747509Y-79883521D01*
X140756855Y-79878932D01*
X140839293Y-79796350D01*
X140890536Y-79691518D01*
X140900500Y-79623218D01*
X140900500Y-77856782D01*
X140890358Y-77787888D01*
X140838932Y-77683145D01*
X140756350Y-77600707D01*
X140726562Y-77586146D01*
X140702652Y-77574459D01*
X140651518Y-77549464D01*
X140621027Y-77545016D01*
X140587744Y-77540160D01*
X140587740Y-77540160D01*
X140583218Y-77539500D01*
X138816782Y-77539500D01*
X138812232Y-77540170D01*
X138812229Y-77540170D01*
X138757574Y-77548216D01*
X138757573Y-77548216D01*
X138747888Y-77549642D01*
X138697992Y-77574140D01*
X138652493Y-77596478D01*
X138652491Y-77596479D01*
X138643145Y-77601068D01*
X138635787Y-77608438D01*
X138635788Y-77608438D01*
X138565673Y-77678675D01*
X138503390Y-77712754D01*
X138432570Y-77707751D01*
X138375698Y-77665254D01*
X138350829Y-77598755D01*
X138350500Y-77589657D01*
X138350500Y-76011863D01*
X145928050Y-76011863D01*
X145940309Y-76224477D01*
X145941745Y-76234697D01*
X145988565Y-76442446D01*
X145991645Y-76452275D01*
X146071770Y-76649603D01*
X146076413Y-76658794D01*
X146176169Y-76821582D01*
X146194707Y-76890116D01*
X146173250Y-76957793D01*
X146158242Y-76976031D01*
X146158065Y-76976279D01*
X146150707Y-76983650D01*
X146099464Y-77088482D01*
X146089500Y-77156782D01*
X146089500Y-78923218D01*
X146090170Y-78927768D01*
X146090170Y-78927771D01*
X146098216Y-78982426D01*
X146099642Y-78992112D01*
X146103958Y-79000902D01*
X146144944Y-79084381D01*
X146151068Y-79096855D01*
X146233650Y-79179293D01*
X146243006Y-79183866D01*
X146243007Y-79183867D01*
X146275460Y-79199730D01*
X146338482Y-79230536D01*
X146362597Y-79234054D01*
X146402256Y-79239840D01*
X146402260Y-79239840D01*
X146406782Y-79240500D01*
X148173218Y-79240500D01*
X148177768Y-79239830D01*
X148177771Y-79239830D01*
X148232426Y-79231784D01*
X148232427Y-79231784D01*
X148242112Y-79230358D01*
X148336804Y-79183867D01*
X148337507Y-79183522D01*
X148337509Y-79183521D01*
X148346855Y-79178932D01*
X148429293Y-79096350D01*
X148480536Y-78991518D01*
X148488897Y-78934205D01*
X148489840Y-78927744D01*
X148489840Y-78927740D01*
X148490500Y-78923218D01*
X148490500Y-78663128D01*
X148510502Y-78595007D01*
X148564158Y-78548514D01*
X148634432Y-78538410D01*
X148699012Y-78567904D01*
X148730926Y-78610377D01*
X148745883Y-78642821D01*
X148873222Y-78823002D01*
X149031264Y-78976961D01*
X149036060Y-78980166D01*
X149036063Y-78980168D01*
X149125556Y-79039965D01*
X149214717Y-79099540D01*
X149220020Y-79101818D01*
X149220023Y-79101820D01*
X149383221Y-79171935D01*
X149417436Y-79186635D01*
X149497088Y-79204658D01*
X149626995Y-79234054D01*
X149627001Y-79234055D01*
X149632632Y-79235329D01*
X149638403Y-79235556D01*
X149638405Y-79235556D01*
X149706211Y-79238220D01*
X149853098Y-79243991D01*
X149981748Y-79225338D01*
X150065730Y-79213161D01*
X150065734Y-79213160D01*
X150071452Y-79212331D01*
X150076925Y-79210473D01*
X150076930Y-79210472D01*
X150160326Y-79182163D01*
X150231261Y-79179207D01*
X150289923Y-79212381D01*
X150587596Y-79510055D01*
X150621621Y-79572367D01*
X150624500Y-79599150D01*
X150624500Y-81564622D01*
X150601587Y-81637073D01*
X150541572Y-81722466D01*
X150534696Y-81732249D01*
X150479702Y-81873302D01*
X150478711Y-81880831D01*
X150465684Y-81979783D01*
X150459941Y-82023402D01*
X150476554Y-82173883D01*
X150528582Y-82316057D01*
X150532819Y-82322363D01*
X150532821Y-82322366D01*
X150555713Y-82356432D01*
X150613022Y-82441716D01*
X150724998Y-82543607D01*
X150731675Y-82547232D01*
X150731676Y-82547233D01*
X150851370Y-82612222D01*
X150851372Y-82612223D01*
X150858047Y-82615847D01*
X150865396Y-82617775D01*
X150997136Y-82652336D01*
X150997138Y-82652336D01*
X151004486Y-82654264D01*
X151084562Y-82655522D01*
X151148266Y-82656523D01*
X151148269Y-82656523D01*
X151155863Y-82656642D01*
X151303437Y-82622843D01*
X151396953Y-82575810D01*
X151431906Y-82558231D01*
X151431909Y-82558229D01*
X151438689Y-82554819D01*
X151444462Y-82549888D01*
X151444467Y-82549885D01*
X151544370Y-82464558D01*
X151609159Y-82435526D01*
X151679359Y-82446130D01*
X151711001Y-82467175D01*
X151794998Y-82543607D01*
X151801675Y-82547232D01*
X151801676Y-82547233D01*
X151921370Y-82612222D01*
X151921372Y-82612223D01*
X151928047Y-82615847D01*
X151935396Y-82617775D01*
X152067136Y-82652336D01*
X152067138Y-82652336D01*
X152074486Y-82654264D01*
X152154562Y-82655522D01*
X152218266Y-82656523D01*
X152218269Y-82656523D01*
X152225863Y-82656642D01*
X152373437Y-82622843D01*
X152466953Y-82575810D01*
X152501906Y-82558231D01*
X152501909Y-82558229D01*
X152508689Y-82554819D01*
X152623810Y-82456495D01*
X152695713Y-82356432D01*
X152707724Y-82339718D01*
X152707725Y-82339717D01*
X152712156Y-82333550D01*
X152768624Y-82193080D01*
X152789956Y-82043196D01*
X152790094Y-82030000D01*
X152771906Y-81879701D01*
X152718392Y-81738080D01*
X152707659Y-81722464D01*
X152685500Y-81651098D01*
X152685500Y-78527373D01*
X152686739Y-78516277D01*
X152686141Y-78516229D01*
X152686861Y-78507283D01*
X152688842Y-78498527D01*
X152685742Y-78448553D01*
X152685500Y-78440752D01*
X152685500Y-78425855D01*
X152684159Y-78416490D01*
X152683129Y-78406430D01*
X152680965Y-78371546D01*
X152680409Y-78362583D01*
X152677359Y-78354135D01*
X152676067Y-78347896D01*
X152674138Y-78340158D01*
X152672353Y-78334054D01*
X152671081Y-78325171D01*
X152652893Y-78285167D01*
X152649081Y-78275803D01*
X152637209Y-78242919D01*
X152637209Y-78242918D01*
X152634159Y-78234471D01*
X152628860Y-78227218D01*
X152625856Y-78221569D01*
X152621856Y-78214725D01*
X152618424Y-78209358D01*
X152614706Y-78201180D01*
X152586021Y-78167890D01*
X152579731Y-78159969D01*
X152572423Y-78149965D01*
X152562382Y-78139924D01*
X152556024Y-78133077D01*
X152531657Y-78104798D01*
X152525796Y-78097996D01*
X152518261Y-78093112D01*
X152511499Y-78087213D01*
X152511569Y-78087133D01*
X152501206Y-78078748D01*
X150962380Y-76539922D01*
X150928354Y-76477610D01*
X150932162Y-76410327D01*
X150954629Y-76344141D01*
X150960473Y-76326926D01*
X150960473Y-76326924D01*
X150962331Y-76321452D01*
X150993991Y-76103098D01*
X150995643Y-76040000D01*
X150975454Y-75820289D01*
X150915565Y-75607936D01*
X150817980Y-75410053D01*
X150811086Y-75400820D01*
X150689420Y-75237891D01*
X150689420Y-75237890D01*
X150685967Y-75233267D01*
X150588586Y-75143249D01*
X150540562Y-75098856D01*
X153156601Y-75098856D01*
X153163059Y-75108216D01*
X153179361Y-75122512D01*
X153185901Y-75127530D01*
X153425144Y-75287387D01*
X153432281Y-75291508D01*
X153690349Y-75418772D01*
X153697953Y-75421922D01*
X153970420Y-75514412D01*
X153978383Y-75516546D01*
X154260600Y-75572683D01*
X154268751Y-75573756D01*
X154555881Y-75592575D01*
X154564119Y-75592575D01*
X154851249Y-75573756D01*
X154859400Y-75572683D01*
X155141617Y-75516546D01*
X155149580Y-75514412D01*
X155422047Y-75421922D01*
X155429651Y-75418772D01*
X155687719Y-75291508D01*
X155694856Y-75287387D01*
X155934099Y-75127530D01*
X155940639Y-75122512D01*
X155955074Y-75109853D01*
X155963472Y-75096614D01*
X155957638Y-75086849D01*
X154572810Y-73702020D01*
X154558869Y-73694408D01*
X154557034Y-73694539D01*
X154550420Y-73698790D01*
X153164116Y-75085095D01*
X153156601Y-75098856D01*
X150540562Y-75098856D01*
X150528189Y-75087418D01*
X150528186Y-75087416D01*
X150523949Y-75083499D01*
X150337350Y-74965764D01*
X150132421Y-74884006D01*
X150126761Y-74882880D01*
X150126757Y-74882879D01*
X149921691Y-74842089D01*
X149921688Y-74842089D01*
X149916024Y-74840962D01*
X149910249Y-74840886D01*
X149910245Y-74840886D01*
X149799504Y-74839437D01*
X149695406Y-74838074D01*
X149689709Y-74839053D01*
X149689708Y-74839053D01*
X149483654Y-74874459D01*
X149483653Y-74874459D01*
X149477957Y-74875438D01*
X149270957Y-74951804D01*
X149081341Y-75064614D01*
X148915457Y-75210090D01*
X148778863Y-75383360D01*
X148776174Y-75388471D01*
X148776172Y-75388474D01*
X148740490Y-75456294D01*
X148691071Y-75507267D01*
X148621938Y-75523430D01*
X148555042Y-75499651D01*
X148513433Y-75447870D01*
X148492975Y-75400820D01*
X148488105Y-75391739D01*
X148423063Y-75291197D01*
X148412377Y-75281995D01*
X148402812Y-75286398D01*
X147379095Y-76310115D01*
X147316783Y-76344141D01*
X147245968Y-76339076D01*
X147200905Y-76310115D01*
X146179849Y-75289059D01*
X146168313Y-75282759D01*
X146156031Y-75292382D01*
X146108089Y-75362662D01*
X146103004Y-75371613D01*
X146013338Y-75564783D01*
X146009775Y-75574470D01*
X145952864Y-75779681D01*
X145950933Y-75789800D01*
X145928302Y-76001574D01*
X145928050Y-76011863D01*
X138350500Y-76011863D01*
X138350500Y-75098856D01*
X141116601Y-75098856D01*
X141123059Y-75108216D01*
X141139361Y-75122512D01*
X141145901Y-75127530D01*
X141385144Y-75287387D01*
X141392281Y-75291508D01*
X141650349Y-75418772D01*
X141657953Y-75421922D01*
X141930420Y-75514412D01*
X141938383Y-75516546D01*
X142220600Y-75572683D01*
X142228751Y-75573756D01*
X142515881Y-75592575D01*
X142524119Y-75592575D01*
X142811249Y-75573756D01*
X142819400Y-75572683D01*
X143101617Y-75516546D01*
X143109580Y-75514412D01*
X143382047Y-75421922D01*
X143389651Y-75418772D01*
X143647719Y-75291508D01*
X143654856Y-75287387D01*
X143894099Y-75127530D01*
X143900639Y-75122512D01*
X143915074Y-75109853D01*
X143923472Y-75096614D01*
X143917638Y-75086849D01*
X143747216Y-74916427D01*
X146531223Y-74916427D01*
X146537968Y-74928758D01*
X147277188Y-75667978D01*
X147291132Y-75675592D01*
X147292965Y-75675461D01*
X147299580Y-75671210D01*
X148043389Y-74927401D01*
X148050410Y-74914544D01*
X148043611Y-74905213D01*
X148039554Y-74902518D01*
X147853117Y-74799599D01*
X147843705Y-74795369D01*
X147642959Y-74724280D01*
X147632989Y-74721646D01*
X147423327Y-74684301D01*
X147413073Y-74683331D01*
X147200116Y-74680728D01*
X147189832Y-74681448D01*
X146979321Y-74713661D01*
X146969293Y-74716050D01*
X146766868Y-74782212D01*
X146757359Y-74786209D01*
X146568466Y-74884540D01*
X146559734Y-74890039D01*
X146539677Y-74905099D01*
X146531223Y-74916427D01*
X143747216Y-74916427D01*
X142532810Y-73702020D01*
X142518869Y-73694408D01*
X142517034Y-73694539D01*
X142510420Y-73698790D01*
X141124116Y-75085095D01*
X141116601Y-75098856D01*
X138350500Y-75098856D01*
X138350500Y-73334119D01*
X140257425Y-73334119D01*
X140276244Y-73621249D01*
X140277317Y-73629400D01*
X140333454Y-73911617D01*
X140335588Y-73919580D01*
X140428078Y-74192047D01*
X140431228Y-74199651D01*
X140558492Y-74457718D01*
X140562613Y-74464855D01*
X140722470Y-74704099D01*
X140727488Y-74710639D01*
X140740147Y-74725074D01*
X140753386Y-74733472D01*
X140763151Y-74727638D01*
X142147980Y-73342810D01*
X142154357Y-73331131D01*
X142884408Y-73331131D01*
X142884539Y-73332966D01*
X142888790Y-73339580D01*
X144275095Y-74725884D01*
X144288856Y-74733399D01*
X144298216Y-74726941D01*
X144312512Y-74710639D01*
X144317530Y-74704099D01*
X144477387Y-74464855D01*
X144481508Y-74457718D01*
X144608772Y-74199651D01*
X144611922Y-74192047D01*
X144704412Y-73919580D01*
X144706546Y-73911617D01*
X144762683Y-73629400D01*
X144763756Y-73621249D01*
X144782575Y-73334119D01*
X152297425Y-73334119D01*
X152316244Y-73621249D01*
X152317317Y-73629400D01*
X152373454Y-73911617D01*
X152375588Y-73919580D01*
X152468078Y-74192047D01*
X152471228Y-74199651D01*
X152598492Y-74457718D01*
X152602613Y-74464855D01*
X152762470Y-74704099D01*
X152767488Y-74710639D01*
X152780147Y-74725074D01*
X152793386Y-74733472D01*
X152803151Y-74727638D01*
X154187980Y-73342810D01*
X154194357Y-73331131D01*
X154924408Y-73331131D01*
X154924539Y-73332966D01*
X154928790Y-73339580D01*
X156315095Y-74725884D01*
X156328856Y-74733399D01*
X156338216Y-74726941D01*
X156352512Y-74710639D01*
X156357530Y-74704099D01*
X156517387Y-74464855D01*
X156521508Y-74457718D01*
X156648772Y-74199651D01*
X156651922Y-74192047D01*
X156744412Y-73919580D01*
X156746546Y-73911617D01*
X156802683Y-73629400D01*
X156803756Y-73621249D01*
X156822575Y-73334119D01*
X156822575Y-73325881D01*
X156803756Y-73038751D01*
X156802683Y-73030600D01*
X156746546Y-72748383D01*
X156744412Y-72740420D01*
X156651922Y-72467953D01*
X156648772Y-72460349D01*
X156521508Y-72202282D01*
X156517387Y-72195145D01*
X156357530Y-71955901D01*
X156352512Y-71949361D01*
X156339853Y-71934926D01*
X156326614Y-71926528D01*
X156316849Y-71932362D01*
X154932020Y-73317190D01*
X154924408Y-73331131D01*
X154194357Y-73331131D01*
X154195592Y-73328869D01*
X154195461Y-73327034D01*
X154191210Y-73320420D01*
X152804905Y-71934116D01*
X152791144Y-71926601D01*
X152781784Y-71933059D01*
X152767488Y-71949361D01*
X152762470Y-71955901D01*
X152602613Y-72195145D01*
X152598492Y-72202282D01*
X152471228Y-72460349D01*
X152468078Y-72467953D01*
X152375588Y-72740420D01*
X152373454Y-72748383D01*
X152317317Y-73030600D01*
X152316244Y-73038751D01*
X152297425Y-73325881D01*
X152297425Y-73334119D01*
X144782575Y-73334119D01*
X144782575Y-73325881D01*
X144763756Y-73038751D01*
X144762683Y-73030600D01*
X144706546Y-72748383D01*
X144704412Y-72740420D01*
X144611922Y-72467953D01*
X144608772Y-72460349D01*
X144481508Y-72202282D01*
X144477387Y-72195145D01*
X144317530Y-71955901D01*
X144312512Y-71949361D01*
X144299853Y-71934926D01*
X144286614Y-71926528D01*
X144276849Y-71932362D01*
X142892020Y-73317190D01*
X142884408Y-73331131D01*
X142154357Y-73331131D01*
X142155592Y-73328869D01*
X142155461Y-73327034D01*
X142151210Y-73320420D01*
X140764905Y-71934116D01*
X140751144Y-71926601D01*
X140741784Y-71933059D01*
X140727488Y-71949361D01*
X140722470Y-71955901D01*
X140562613Y-72195145D01*
X140558492Y-72202282D01*
X140431228Y-72460349D01*
X140428078Y-72467953D01*
X140335588Y-72740420D01*
X140333454Y-72748383D01*
X140277317Y-73030600D01*
X140276244Y-73038751D01*
X140257425Y-73325881D01*
X140257425Y-73334119D01*
X138350500Y-73334119D01*
X138350500Y-71476500D01*
X138370502Y-71408379D01*
X138424158Y-71361886D01*
X138476500Y-71350500D01*
X141022430Y-71350500D01*
X141090551Y-71370502D01*
G37*
%TD.AperFunction*%
%TD*%
M02*
