%TF.GenerationSoftware,KiCad,Pcbnew,(6.0.11)*%
%TF.CreationDate,2024-08-09T21:34:06-05:00*%
%TF.ProjectId,PicoAlt,5069636f-416c-4742-9e6b-696361645f70,rev?*%
%TF.SameCoordinates,Original*%
%TF.FileFunction,Legend,Top*%
%TF.FilePolarity,Positive*%
%FSLAX46Y46*%
G04 Gerber Fmt 4.6, Leading zero omitted, Abs format (unit mm)*
G04 Created by KiCad (PCBNEW (6.0.11)) date 2024-08-09 21:34:06*
%MOMM*%
%LPD*%
G01*
G04 APERTURE LIST*
%ADD10C,0.125000*%
%ADD11C,0.150000*%
%ADD12C,0.100000*%
%ADD13C,0.120000*%
G04 APERTURE END LIST*
D10*
X149559047Y-120970000D02*
X149511428Y-120946190D01*
X149440000Y-120946190D01*
X149368571Y-120970000D01*
X149320952Y-121017619D01*
X149297142Y-121065238D01*
X149273333Y-121160476D01*
X149273333Y-121231904D01*
X149297142Y-121327142D01*
X149320952Y-121374761D01*
X149368571Y-121422380D01*
X149440000Y-121446190D01*
X149487619Y-121446190D01*
X149559047Y-121422380D01*
X149582857Y-121398571D01*
X149582857Y-121231904D01*
X149487619Y-121231904D01*
X149797142Y-121446190D02*
X149797142Y-120946190D01*
X150082857Y-121446190D01*
X150082857Y-120946190D01*
X150320952Y-121446190D02*
X150320952Y-120946190D01*
X150440000Y-120946190D01*
X150511428Y-120970000D01*
X150559047Y-121017619D01*
X150582857Y-121065238D01*
X150606666Y-121160476D01*
X150606666Y-121231904D01*
X150582857Y-121327142D01*
X150559047Y-121374761D01*
X150511428Y-121422380D01*
X150440000Y-121446190D01*
X150320952Y-121446190D01*
X151630476Y-121392380D02*
X151701904Y-121416190D01*
X151820952Y-121416190D01*
X151868571Y-121392380D01*
X151892380Y-121368571D01*
X151916190Y-121320952D01*
X151916190Y-121273333D01*
X151892380Y-121225714D01*
X151868571Y-121201904D01*
X151820952Y-121178095D01*
X151725714Y-121154285D01*
X151678095Y-121130476D01*
X151654285Y-121106666D01*
X151630476Y-121059047D01*
X151630476Y-121011428D01*
X151654285Y-120963809D01*
X151678095Y-120940000D01*
X151725714Y-120916190D01*
X151844761Y-120916190D01*
X151916190Y-120940000D01*
X152082857Y-120916190D02*
X152201904Y-121416190D01*
X152297142Y-121059047D01*
X152392380Y-121416190D01*
X152511428Y-120916190D01*
X152701904Y-121416190D02*
X152701904Y-120916190D01*
X153035238Y-120916190D02*
X153130476Y-120916190D01*
X153178095Y-120940000D01*
X153225714Y-120987619D01*
X153249523Y-121082857D01*
X153249523Y-121249523D01*
X153225714Y-121344761D01*
X153178095Y-121392380D01*
X153130476Y-121416190D01*
X153035238Y-121416190D01*
X152987619Y-121392380D01*
X152940000Y-121344761D01*
X152916190Y-121249523D01*
X152916190Y-121082857D01*
X152940000Y-120987619D01*
X152987619Y-120940000D01*
X153035238Y-120916190D01*
X143022857Y-92026190D02*
X142737142Y-92026190D01*
X142880000Y-92026190D02*
X142880000Y-91526190D01*
X142832380Y-91597619D01*
X142784761Y-91645238D01*
X142737142Y-91669047D01*
X145242857Y-101136190D02*
X144957142Y-101136190D01*
X145100000Y-101136190D02*
X145100000Y-100636190D01*
X145052380Y-100707619D01*
X145004761Y-100755238D01*
X144957142Y-100779047D01*
X144050952Y-120996190D02*
X144360476Y-120996190D01*
X144193809Y-121186666D01*
X144265238Y-121186666D01*
X144312857Y-121210476D01*
X144336666Y-121234285D01*
X144360476Y-121281904D01*
X144360476Y-121400952D01*
X144336666Y-121448571D01*
X144312857Y-121472380D01*
X144265238Y-121496190D01*
X144122380Y-121496190D01*
X144074761Y-121472380D01*
X144050952Y-121448571D01*
X144503333Y-120996190D02*
X144670000Y-121496190D01*
X144836666Y-120996190D01*
X144955714Y-120996190D02*
X145265238Y-120996190D01*
X145098571Y-121186666D01*
X145170000Y-121186666D01*
X145217619Y-121210476D01*
X145241428Y-121234285D01*
X145265238Y-121281904D01*
X145265238Y-121400952D01*
X145241428Y-121448571D01*
X145217619Y-121472380D01*
X145170000Y-121496190D01*
X145027142Y-121496190D01*
X144979523Y-121472380D01*
X144955714Y-121448571D01*
X150006190Y-125416190D02*
X149768095Y-125582857D01*
X150006190Y-125701904D02*
X149506190Y-125701904D01*
X149506190Y-125511428D01*
X149530000Y-125463809D01*
X149553809Y-125440000D01*
X149601428Y-125416190D01*
X149672857Y-125416190D01*
X149720476Y-125440000D01*
X149744285Y-125463809D01*
X149768095Y-125511428D01*
X149768095Y-125701904D01*
X149744285Y-125201904D02*
X149744285Y-125035238D01*
X150006190Y-124963809D02*
X150006190Y-125201904D01*
X149506190Y-125201904D01*
X149506190Y-124963809D01*
X149982380Y-124773333D02*
X150006190Y-124701904D01*
X150006190Y-124582857D01*
X149982380Y-124535238D01*
X149958571Y-124511428D01*
X149910952Y-124487619D01*
X149863333Y-124487619D01*
X149815714Y-124511428D01*
X149791904Y-124535238D01*
X149768095Y-124582857D01*
X149744285Y-124678095D01*
X149720476Y-124725714D01*
X149696666Y-124749523D01*
X149649047Y-124773333D01*
X149601428Y-124773333D01*
X149553809Y-124749523D01*
X149530000Y-124725714D01*
X149506190Y-124678095D01*
X149506190Y-124559047D01*
X149530000Y-124487619D01*
X149744285Y-124273333D02*
X149744285Y-124106666D01*
X150006190Y-124035238D02*
X150006190Y-124273333D01*
X149506190Y-124273333D01*
X149506190Y-124035238D01*
X149506190Y-123892380D02*
X149506190Y-123606666D01*
X150006190Y-123749523D02*
X149506190Y-123749523D01*
X142306190Y-125622857D02*
X141806190Y-125622857D01*
X141806190Y-125432380D01*
X141830000Y-125384761D01*
X141853809Y-125360952D01*
X141901428Y-125337142D01*
X141972857Y-125337142D01*
X142020476Y-125360952D01*
X142044285Y-125384761D01*
X142068095Y-125432380D01*
X142068095Y-125622857D01*
X142306190Y-124837142D02*
X142068095Y-125003809D01*
X142306190Y-125122857D02*
X141806190Y-125122857D01*
X141806190Y-124932380D01*
X141830000Y-124884761D01*
X141853809Y-124860952D01*
X141901428Y-124837142D01*
X141972857Y-124837142D01*
X142020476Y-124860952D01*
X142044285Y-124884761D01*
X142068095Y-124932380D01*
X142068095Y-125122857D01*
X141806190Y-124527619D02*
X141806190Y-124432380D01*
X141830000Y-124384761D01*
X141877619Y-124337142D01*
X141972857Y-124313333D01*
X142139523Y-124313333D01*
X142234761Y-124337142D01*
X142282380Y-124384761D01*
X142306190Y-124432380D01*
X142306190Y-124527619D01*
X142282380Y-124575238D01*
X142234761Y-124622857D01*
X142139523Y-124646666D01*
X141972857Y-124646666D01*
X141877619Y-124622857D01*
X141830000Y-124575238D01*
X141806190Y-124527619D01*
X141830000Y-123837142D02*
X141806190Y-123884761D01*
X141806190Y-123956190D01*
X141830000Y-124027619D01*
X141877619Y-124075238D01*
X141925238Y-124099047D01*
X142020476Y-124122857D01*
X142091904Y-124122857D01*
X142187142Y-124099047D01*
X142234761Y-124075238D01*
X142282380Y-124027619D01*
X142306190Y-123956190D01*
X142306190Y-123908571D01*
X142282380Y-123837142D01*
X142258571Y-123813333D01*
X142091904Y-123813333D01*
X142091904Y-123908571D01*
X146179047Y-121452380D02*
X146250476Y-121476190D01*
X146369523Y-121476190D01*
X146417142Y-121452380D01*
X146440952Y-121428571D01*
X146464761Y-121380952D01*
X146464761Y-121333333D01*
X146440952Y-121285714D01*
X146417142Y-121261904D01*
X146369523Y-121238095D01*
X146274285Y-121214285D01*
X146226666Y-121190476D01*
X146202857Y-121166666D01*
X146179047Y-121119047D01*
X146179047Y-121071428D01*
X146202857Y-121023809D01*
X146226666Y-121000000D01*
X146274285Y-120976190D01*
X146393333Y-120976190D01*
X146464761Y-121000000D01*
X146631428Y-120976190D02*
X146750476Y-121476190D01*
X146845714Y-121119047D01*
X146940952Y-121476190D01*
X147060000Y-120976190D01*
X147536190Y-121428571D02*
X147512380Y-121452380D01*
X147440952Y-121476190D01*
X147393333Y-121476190D01*
X147321904Y-121452380D01*
X147274285Y-121404761D01*
X147250476Y-121357142D01*
X147226666Y-121261904D01*
X147226666Y-121190476D01*
X147250476Y-121095238D01*
X147274285Y-121047619D01*
X147321904Y-121000000D01*
X147393333Y-120976190D01*
X147440952Y-120976190D01*
X147512380Y-121000000D01*
X147536190Y-121023809D01*
X147988571Y-121476190D02*
X147750476Y-121476190D01*
X147750476Y-120976190D01*
X148155238Y-121476190D02*
X148155238Y-120976190D01*
X148440952Y-121476190D02*
X148226666Y-121190476D01*
X148440952Y-120976190D02*
X148155238Y-121261904D01*
X148382857Y-80706190D02*
X148097142Y-80706190D01*
X148240000Y-80706190D02*
X148240000Y-80206190D01*
X148192380Y-80277619D01*
X148144761Y-80325238D01*
X148097142Y-80349047D01*
X147081904Y-127963690D02*
X147081904Y-127463690D01*
X147272380Y-127463690D01*
X147320000Y-127487500D01*
X147343809Y-127511309D01*
X147367619Y-127558928D01*
X147367619Y-127630357D01*
X147343809Y-127677976D01*
X147320000Y-127701785D01*
X147272380Y-127725595D01*
X147081904Y-127725595D01*
X147581904Y-127963690D02*
X147581904Y-127463690D01*
X148105714Y-127916071D02*
X148081904Y-127939880D01*
X148010476Y-127963690D01*
X147962857Y-127963690D01*
X147891428Y-127939880D01*
X147843809Y-127892261D01*
X147820000Y-127844642D01*
X147796190Y-127749404D01*
X147796190Y-127677976D01*
X147820000Y-127582738D01*
X147843809Y-127535119D01*
X147891428Y-127487500D01*
X147962857Y-127463690D01*
X148010476Y-127463690D01*
X148081904Y-127487500D01*
X148105714Y-127511309D01*
X148415238Y-127463690D02*
X148510476Y-127463690D01*
X148558095Y-127487500D01*
X148605714Y-127535119D01*
X148629523Y-127630357D01*
X148629523Y-127797023D01*
X148605714Y-127892261D01*
X148558095Y-127939880D01*
X148510476Y-127963690D01*
X148415238Y-127963690D01*
X148367619Y-127939880D01*
X148320000Y-127892261D01*
X148296190Y-127797023D01*
X148296190Y-127630357D01*
X148320000Y-127535119D01*
X148367619Y-127487500D01*
X148415238Y-127463690D01*
X149200952Y-127511309D02*
X149224761Y-127487500D01*
X149272380Y-127463690D01*
X149391428Y-127463690D01*
X149439047Y-127487500D01*
X149462857Y-127511309D01*
X149486666Y-127558928D01*
X149486666Y-127606547D01*
X149462857Y-127677976D01*
X149177142Y-127963690D01*
X149486666Y-127963690D01*
X150058095Y-127820833D02*
X150296190Y-127820833D01*
X150010476Y-127963690D02*
X150177142Y-127463690D01*
X150343809Y-127963690D01*
X150748571Y-127963690D02*
X150510476Y-127963690D01*
X150510476Y-127463690D01*
X150843809Y-127463690D02*
X151129523Y-127463690D01*
X150986666Y-127963690D02*
X150986666Y-127463690D01*
X147081904Y-128768690D02*
X147081904Y-128268690D01*
X147200952Y-128268690D01*
X147272380Y-128292500D01*
X147320000Y-128340119D01*
X147343809Y-128387738D01*
X147367619Y-128482976D01*
X147367619Y-128554404D01*
X147343809Y-128649642D01*
X147320000Y-128697261D01*
X147272380Y-128744880D01*
X147200952Y-128768690D01*
X147081904Y-128768690D01*
X147581904Y-128506785D02*
X147748571Y-128506785D01*
X147820000Y-128768690D02*
X147581904Y-128768690D01*
X147581904Y-128268690D01*
X147820000Y-128268690D01*
X147962857Y-128268690D02*
X148129523Y-128768690D01*
X148296190Y-128268690D01*
X149010476Y-128506785D02*
X149081904Y-128530595D01*
X149105714Y-128554404D01*
X149129523Y-128602023D01*
X149129523Y-128673452D01*
X149105714Y-128721071D01*
X149081904Y-128744880D01*
X149034285Y-128768690D01*
X148843809Y-128768690D01*
X148843809Y-128268690D01*
X149010476Y-128268690D01*
X149058095Y-128292500D01*
X149081904Y-128316309D01*
X149105714Y-128363928D01*
X149105714Y-128411547D01*
X149081904Y-128459166D01*
X149058095Y-128482976D01*
X149010476Y-128506785D01*
X148843809Y-128506785D01*
X149439047Y-128268690D02*
X149534285Y-128268690D01*
X149581904Y-128292500D01*
X149629523Y-128340119D01*
X149653333Y-128435357D01*
X149653333Y-128602023D01*
X149629523Y-128697261D01*
X149581904Y-128744880D01*
X149534285Y-128768690D01*
X149439047Y-128768690D01*
X149391428Y-128744880D01*
X149343809Y-128697261D01*
X149320000Y-128602023D01*
X149320000Y-128435357D01*
X149343809Y-128340119D01*
X149391428Y-128292500D01*
X149439047Y-128268690D01*
X149843809Y-128625833D02*
X150081904Y-128625833D01*
X149796190Y-128768690D02*
X149962857Y-128268690D01*
X150129523Y-128768690D01*
X150581904Y-128768690D02*
X150415238Y-128530595D01*
X150296190Y-128768690D02*
X150296190Y-128268690D01*
X150486666Y-128268690D01*
X150534285Y-128292500D01*
X150558095Y-128316309D01*
X150581904Y-128363928D01*
X150581904Y-128435357D01*
X150558095Y-128482976D01*
X150534285Y-128506785D01*
X150486666Y-128530595D01*
X150296190Y-128530595D01*
X150796190Y-128768690D02*
X150796190Y-128268690D01*
X150915238Y-128268690D01*
X150986666Y-128292500D01*
X151034285Y-128340119D01*
X151058095Y-128387738D01*
X151081904Y-128482976D01*
X151081904Y-128554404D01*
X151058095Y-128649642D01*
X151034285Y-128697261D01*
X150986666Y-128744880D01*
X150915238Y-128768690D01*
X150796190Y-128768690D01*
X155673333Y-93907142D02*
X155673333Y-93669047D01*
X155816190Y-93954761D02*
X155316190Y-93788095D01*
X155816190Y-93621428D01*
X155816190Y-93454761D02*
X155316190Y-93454761D01*
X155316190Y-93335714D01*
X155340000Y-93264285D01*
X155387619Y-93216666D01*
X155435238Y-93192857D01*
X155530476Y-93169047D01*
X155601904Y-93169047D01*
X155697142Y-93192857D01*
X155744761Y-93216666D01*
X155792380Y-93264285D01*
X155816190Y-93335714D01*
X155816190Y-93454761D01*
X155768571Y-92669047D02*
X155792380Y-92692857D01*
X155816190Y-92764285D01*
X155816190Y-92811904D01*
X155792380Y-92883333D01*
X155744761Y-92930952D01*
X155697142Y-92954761D01*
X155601904Y-92978571D01*
X155530476Y-92978571D01*
X155435238Y-92954761D01*
X155387619Y-92930952D01*
X155340000Y-92883333D01*
X155316190Y-92811904D01*
X155316190Y-92764285D01*
X155340000Y-92692857D01*
X155363809Y-92669047D01*
X155316190Y-92502380D02*
X155316190Y-92192857D01*
X155506666Y-92359523D01*
X155506666Y-92288095D01*
X155530476Y-92240476D01*
X155554285Y-92216666D01*
X155601904Y-92192857D01*
X155720952Y-92192857D01*
X155768571Y-92216666D01*
X155792380Y-92240476D01*
X155816190Y-92288095D01*
X155816190Y-92430952D01*
X155792380Y-92478571D01*
X155768571Y-92502380D01*
%TO.C,U2*%
X144139047Y-90266190D02*
X144139047Y-90670952D01*
X144162857Y-90718571D01*
X144186666Y-90742380D01*
X144234285Y-90766190D01*
X144329523Y-90766190D01*
X144377142Y-90742380D01*
X144400952Y-90718571D01*
X144424761Y-90670952D01*
X144424761Y-90266190D01*
X144639047Y-90313809D02*
X144662857Y-90290000D01*
X144710476Y-90266190D01*
X144829523Y-90266190D01*
X144877142Y-90290000D01*
X144900952Y-90313809D01*
X144924761Y-90361428D01*
X144924761Y-90409047D01*
X144900952Y-90480476D01*
X144615238Y-90766190D01*
X144924761Y-90766190D01*
%TO.C,Y1*%
X145941904Y-114198095D02*
X145941904Y-114436190D01*
X145775238Y-113936190D02*
X145941904Y-114198095D01*
X146108571Y-113936190D01*
X146537142Y-114436190D02*
X146251428Y-114436190D01*
X146394285Y-114436190D02*
X146394285Y-113936190D01*
X146346666Y-114007619D01*
X146299047Y-114055238D01*
X146251428Y-114079047D01*
%TO.C,C13*%
X142798571Y-106218571D02*
X142774761Y-106242380D01*
X142703333Y-106266190D01*
X142655714Y-106266190D01*
X142584285Y-106242380D01*
X142536666Y-106194761D01*
X142512857Y-106147142D01*
X142489047Y-106051904D01*
X142489047Y-105980476D01*
X142512857Y-105885238D01*
X142536666Y-105837619D01*
X142584285Y-105790000D01*
X142655714Y-105766190D01*
X142703333Y-105766190D01*
X142774761Y-105790000D01*
X142798571Y-105813809D01*
X143274761Y-106266190D02*
X142989047Y-106266190D01*
X143131904Y-106266190D02*
X143131904Y-105766190D01*
X143084285Y-105837619D01*
X143036666Y-105885238D01*
X142989047Y-105909047D01*
X143441428Y-105766190D02*
X143750952Y-105766190D01*
X143584285Y-105956666D01*
X143655714Y-105956666D01*
X143703333Y-105980476D01*
X143727142Y-106004285D01*
X143750952Y-106051904D01*
X143750952Y-106170952D01*
X143727142Y-106218571D01*
X143703333Y-106242380D01*
X143655714Y-106266190D01*
X143512857Y-106266190D01*
X143465238Y-106242380D01*
X143441428Y-106218571D01*
D11*
%TO.C,J2*%
X148256666Y-71842380D02*
X148256666Y-72556666D01*
X148209047Y-72699523D01*
X148113809Y-72794761D01*
X147970952Y-72842380D01*
X147875714Y-72842380D01*
X148685238Y-71937619D02*
X148732857Y-71890000D01*
X148828095Y-71842380D01*
X149066190Y-71842380D01*
X149161428Y-71890000D01*
X149209047Y-71937619D01*
X149256666Y-72032857D01*
X149256666Y-72128095D01*
X149209047Y-72270952D01*
X148637619Y-72842380D01*
X149256666Y-72842380D01*
D12*
%TO.C,R9*%
X139146666Y-73846190D02*
X138980000Y-73608095D01*
X138860952Y-73846190D02*
X138860952Y-73346190D01*
X139051428Y-73346190D01*
X139099047Y-73370000D01*
X139122857Y-73393809D01*
X139146666Y-73441428D01*
X139146666Y-73512857D01*
X139122857Y-73560476D01*
X139099047Y-73584285D01*
X139051428Y-73608095D01*
X138860952Y-73608095D01*
X139384761Y-73846190D02*
X139480000Y-73846190D01*
X139527619Y-73822380D01*
X139551428Y-73798571D01*
X139599047Y-73727142D01*
X139622857Y-73631904D01*
X139622857Y-73441428D01*
X139599047Y-73393809D01*
X139575238Y-73370000D01*
X139527619Y-73346190D01*
X139432380Y-73346190D01*
X139384761Y-73370000D01*
X139360952Y-73393809D01*
X139337142Y-73441428D01*
X139337142Y-73560476D01*
X139360952Y-73608095D01*
X139384761Y-73631904D01*
X139432380Y-73655714D01*
X139527619Y-73655714D01*
X139575238Y-73631904D01*
X139599047Y-73608095D01*
X139622857Y-73560476D01*
D10*
%TO.C,C12*%
X154108571Y-88178571D02*
X154084761Y-88202380D01*
X154013333Y-88226190D01*
X153965714Y-88226190D01*
X153894285Y-88202380D01*
X153846666Y-88154761D01*
X153822857Y-88107142D01*
X153799047Y-88011904D01*
X153799047Y-87940476D01*
X153822857Y-87845238D01*
X153846666Y-87797619D01*
X153894285Y-87750000D01*
X153965714Y-87726190D01*
X154013333Y-87726190D01*
X154084761Y-87750000D01*
X154108571Y-87773809D01*
X154584761Y-88226190D02*
X154299047Y-88226190D01*
X154441904Y-88226190D02*
X154441904Y-87726190D01*
X154394285Y-87797619D01*
X154346666Y-87845238D01*
X154299047Y-87869047D01*
X154775238Y-87773809D02*
X154799047Y-87750000D01*
X154846666Y-87726190D01*
X154965714Y-87726190D01*
X155013333Y-87750000D01*
X155037142Y-87773809D01*
X155060952Y-87821428D01*
X155060952Y-87869047D01*
X155037142Y-87940476D01*
X154751428Y-88226190D01*
X155060952Y-88226190D01*
%TO.C,R1*%
X154606666Y-107346190D02*
X154440000Y-107108095D01*
X154320952Y-107346190D02*
X154320952Y-106846190D01*
X154511428Y-106846190D01*
X154559047Y-106870000D01*
X154582857Y-106893809D01*
X154606666Y-106941428D01*
X154606666Y-107012857D01*
X154582857Y-107060476D01*
X154559047Y-107084285D01*
X154511428Y-107108095D01*
X154320952Y-107108095D01*
X155082857Y-107346190D02*
X154797142Y-107346190D01*
X154940000Y-107346190D02*
X154940000Y-106846190D01*
X154892380Y-106917619D01*
X154844761Y-106965238D01*
X154797142Y-106989047D01*
D12*
%TO.C,R3*%
X150476666Y-90736190D02*
X150310000Y-90498095D01*
X150190952Y-90736190D02*
X150190952Y-90236190D01*
X150381428Y-90236190D01*
X150429047Y-90260000D01*
X150452857Y-90283809D01*
X150476666Y-90331428D01*
X150476666Y-90402857D01*
X150452857Y-90450476D01*
X150429047Y-90474285D01*
X150381428Y-90498095D01*
X150190952Y-90498095D01*
X150643333Y-90236190D02*
X150952857Y-90236190D01*
X150786190Y-90426666D01*
X150857619Y-90426666D01*
X150905238Y-90450476D01*
X150929047Y-90474285D01*
X150952857Y-90521904D01*
X150952857Y-90640952D01*
X150929047Y-90688571D01*
X150905238Y-90712380D01*
X150857619Y-90736190D01*
X150714761Y-90736190D01*
X150667142Y-90712380D01*
X150643333Y-90688571D01*
D10*
%TO.C,C1*%
X152406666Y-112688571D02*
X152382857Y-112712380D01*
X152311428Y-112736190D01*
X152263809Y-112736190D01*
X152192380Y-112712380D01*
X152144761Y-112664761D01*
X152120952Y-112617142D01*
X152097142Y-112521904D01*
X152097142Y-112450476D01*
X152120952Y-112355238D01*
X152144761Y-112307619D01*
X152192380Y-112260000D01*
X152263809Y-112236190D01*
X152311428Y-112236190D01*
X152382857Y-112260000D01*
X152406666Y-112283809D01*
X152882857Y-112736190D02*
X152597142Y-112736190D01*
X152740000Y-112736190D02*
X152740000Y-112236190D01*
X152692380Y-112307619D01*
X152644761Y-112355238D01*
X152597142Y-112379047D01*
%TO.C,C10*%
X147728571Y-98911428D02*
X147752380Y-98935238D01*
X147776190Y-99006666D01*
X147776190Y-99054285D01*
X147752380Y-99125714D01*
X147704761Y-99173333D01*
X147657142Y-99197142D01*
X147561904Y-99220952D01*
X147490476Y-99220952D01*
X147395238Y-99197142D01*
X147347619Y-99173333D01*
X147300000Y-99125714D01*
X147276190Y-99054285D01*
X147276190Y-99006666D01*
X147300000Y-98935238D01*
X147323809Y-98911428D01*
X147776190Y-98435238D02*
X147776190Y-98720952D01*
X147776190Y-98578095D02*
X147276190Y-98578095D01*
X147347619Y-98625714D01*
X147395238Y-98673333D01*
X147419047Y-98720952D01*
X147276190Y-98125714D02*
X147276190Y-98078095D01*
X147300000Y-98030476D01*
X147323809Y-98006666D01*
X147371428Y-97982857D01*
X147466666Y-97959047D01*
X147585714Y-97959047D01*
X147680952Y-97982857D01*
X147728571Y-98006666D01*
X147752380Y-98030476D01*
X147776190Y-98078095D01*
X147776190Y-98125714D01*
X147752380Y-98173333D01*
X147728571Y-98197142D01*
X147680952Y-98220952D01*
X147585714Y-98244761D01*
X147466666Y-98244761D01*
X147371428Y-98220952D01*
X147323809Y-98197142D01*
X147300000Y-98173333D01*
X147276190Y-98125714D01*
D12*
%TO.C,U3*%
X145739047Y-100666190D02*
X145739047Y-101070952D01*
X145762857Y-101118571D01*
X145786666Y-101142380D01*
X145834285Y-101166190D01*
X145929523Y-101166190D01*
X145977142Y-101142380D01*
X146000952Y-101118571D01*
X146024761Y-101070952D01*
X146024761Y-100666190D01*
X146215238Y-100666190D02*
X146524761Y-100666190D01*
X146358095Y-100856666D01*
X146429523Y-100856666D01*
X146477142Y-100880476D01*
X146500952Y-100904285D01*
X146524761Y-100951904D01*
X146524761Y-101070952D01*
X146500952Y-101118571D01*
X146477142Y-101142380D01*
X146429523Y-101166190D01*
X146286666Y-101166190D01*
X146239047Y-101142380D01*
X146215238Y-101118571D01*
%TO.C,R6*%
X148336666Y-125426190D02*
X148170000Y-125188095D01*
X148050952Y-125426190D02*
X148050952Y-124926190D01*
X148241428Y-124926190D01*
X148289047Y-124950000D01*
X148312857Y-124973809D01*
X148336666Y-125021428D01*
X148336666Y-125092857D01*
X148312857Y-125140476D01*
X148289047Y-125164285D01*
X148241428Y-125188095D01*
X148050952Y-125188095D01*
X148765238Y-124926190D02*
X148670000Y-124926190D01*
X148622380Y-124950000D01*
X148598571Y-124973809D01*
X148550952Y-125045238D01*
X148527142Y-125140476D01*
X148527142Y-125330952D01*
X148550952Y-125378571D01*
X148574761Y-125402380D01*
X148622380Y-125426190D01*
X148717619Y-125426190D01*
X148765238Y-125402380D01*
X148789047Y-125378571D01*
X148812857Y-125330952D01*
X148812857Y-125211904D01*
X148789047Y-125164285D01*
X148765238Y-125140476D01*
X148717619Y-125116666D01*
X148622380Y-125116666D01*
X148574761Y-125140476D01*
X148550952Y-125164285D01*
X148527142Y-125211904D01*
D11*
%TO.C,U1*%
X150432380Y-85171904D02*
X151241904Y-85171904D01*
X151337142Y-85124285D01*
X151384761Y-85076666D01*
X151432380Y-84981428D01*
X151432380Y-84790952D01*
X151384761Y-84695714D01*
X151337142Y-84648095D01*
X151241904Y-84600476D01*
X150432380Y-84600476D01*
X151432380Y-83600476D02*
X151432380Y-84171904D01*
X151432380Y-83886190D02*
X150432380Y-83886190D01*
X150575238Y-83981428D01*
X150670476Y-84076666D01*
X150718095Y-84171904D01*
D10*
%TO.C,J3*%
X142166190Y-119626666D02*
X142523333Y-119626666D01*
X142594761Y-119650476D01*
X142642380Y-119698095D01*
X142666190Y-119769523D01*
X142666190Y-119817142D01*
X142166190Y-119436190D02*
X142166190Y-119126666D01*
X142356666Y-119293333D01*
X142356666Y-119221904D01*
X142380476Y-119174285D01*
X142404285Y-119150476D01*
X142451904Y-119126666D01*
X142570952Y-119126666D01*
X142618571Y-119150476D01*
X142642380Y-119174285D01*
X142666190Y-119221904D01*
X142666190Y-119364761D01*
X142642380Y-119412380D01*
X142618571Y-119436190D01*
%TO.C,C4*%
X142348571Y-88653333D02*
X142372380Y-88677142D01*
X142396190Y-88748571D01*
X142396190Y-88796190D01*
X142372380Y-88867619D01*
X142324761Y-88915238D01*
X142277142Y-88939047D01*
X142181904Y-88962857D01*
X142110476Y-88962857D01*
X142015238Y-88939047D01*
X141967619Y-88915238D01*
X141920000Y-88867619D01*
X141896190Y-88796190D01*
X141896190Y-88748571D01*
X141920000Y-88677142D01*
X141943809Y-88653333D01*
X142062857Y-88224761D02*
X142396190Y-88224761D01*
X141872380Y-88343809D02*
X142229523Y-88462857D01*
X142229523Y-88153333D01*
D12*
%TO.C,C19*%
X154128571Y-104108571D02*
X154104761Y-104132380D01*
X154033333Y-104156190D01*
X153985714Y-104156190D01*
X153914285Y-104132380D01*
X153866666Y-104084761D01*
X153842857Y-104037142D01*
X153819047Y-103941904D01*
X153819047Y-103870476D01*
X153842857Y-103775238D01*
X153866666Y-103727619D01*
X153914285Y-103680000D01*
X153985714Y-103656190D01*
X154033333Y-103656190D01*
X154104761Y-103680000D01*
X154128571Y-103703809D01*
X154604761Y-104156190D02*
X154319047Y-104156190D01*
X154461904Y-104156190D02*
X154461904Y-103656190D01*
X154414285Y-103727619D01*
X154366666Y-103775238D01*
X154319047Y-103799047D01*
X154842857Y-104156190D02*
X154938095Y-104156190D01*
X154985714Y-104132380D01*
X155009523Y-104108571D01*
X155057142Y-104037142D01*
X155080952Y-103941904D01*
X155080952Y-103751428D01*
X155057142Y-103703809D01*
X155033333Y-103680000D01*
X154985714Y-103656190D01*
X154890476Y-103656190D01*
X154842857Y-103680000D01*
X154819047Y-103703809D01*
X154795238Y-103751428D01*
X154795238Y-103870476D01*
X154819047Y-103918095D01*
X154842857Y-103941904D01*
X154890476Y-103965714D01*
X154985714Y-103965714D01*
X155033333Y-103941904D01*
X155057142Y-103918095D01*
X155080952Y-103870476D01*
%TO.C,L1*%
X150216666Y-97634190D02*
X149978571Y-97634190D01*
X149978571Y-97134190D01*
X150645238Y-97634190D02*
X150359523Y-97634190D01*
X150502380Y-97634190D02*
X150502380Y-97134190D01*
X150454761Y-97205619D01*
X150407142Y-97253238D01*
X150359523Y-97277047D01*
D10*
%TO.C,D2*%
X142226190Y-84439047D02*
X141726190Y-84439047D01*
X141726190Y-84320000D01*
X141750000Y-84248571D01*
X141797619Y-84200952D01*
X141845238Y-84177142D01*
X141940476Y-84153333D01*
X142011904Y-84153333D01*
X142107142Y-84177142D01*
X142154761Y-84200952D01*
X142202380Y-84248571D01*
X142226190Y-84320000D01*
X142226190Y-84439047D01*
X141773809Y-83962857D02*
X141750000Y-83939047D01*
X141726190Y-83891428D01*
X141726190Y-83772380D01*
X141750000Y-83724761D01*
X141773809Y-83700952D01*
X141821428Y-83677142D01*
X141869047Y-83677142D01*
X141940476Y-83700952D01*
X142226190Y-83986666D01*
X142226190Y-83677142D01*
%TO.C,R7*%
X155986190Y-98723333D02*
X155748095Y-98890000D01*
X155986190Y-99009047D02*
X155486190Y-99009047D01*
X155486190Y-98818571D01*
X155510000Y-98770952D01*
X155533809Y-98747142D01*
X155581428Y-98723333D01*
X155652857Y-98723333D01*
X155700476Y-98747142D01*
X155724285Y-98770952D01*
X155748095Y-98818571D01*
X155748095Y-99009047D01*
X155486190Y-98556666D02*
X155486190Y-98223333D01*
X155986190Y-98437619D01*
D12*
%TO.C,R5*%
X147026190Y-113613333D02*
X146788095Y-113780000D01*
X147026190Y-113899047D02*
X146526190Y-113899047D01*
X146526190Y-113708571D01*
X146550000Y-113660952D01*
X146573809Y-113637142D01*
X146621428Y-113613333D01*
X146692857Y-113613333D01*
X146740476Y-113637142D01*
X146764285Y-113660952D01*
X146788095Y-113708571D01*
X146788095Y-113899047D01*
X146526190Y-113160952D02*
X146526190Y-113399047D01*
X146764285Y-113422857D01*
X146740476Y-113399047D01*
X146716666Y-113351428D01*
X146716666Y-113232380D01*
X146740476Y-113184761D01*
X146764285Y-113160952D01*
X146811904Y-113137142D01*
X146930952Y-113137142D01*
X146978571Y-113160952D01*
X147002380Y-113184761D01*
X147026190Y-113232380D01*
X147026190Y-113351428D01*
X147002380Y-113399047D01*
X146978571Y-113422857D01*
D11*
%TO.C,SW1*%
X153044761Y-125953333D02*
X153092380Y-125810476D01*
X153092380Y-125572380D01*
X153044761Y-125477142D01*
X152997142Y-125429523D01*
X152901904Y-125381904D01*
X152806666Y-125381904D01*
X152711428Y-125429523D01*
X152663809Y-125477142D01*
X152616190Y-125572380D01*
X152568571Y-125762857D01*
X152520952Y-125858095D01*
X152473333Y-125905714D01*
X152378095Y-125953333D01*
X152282857Y-125953333D01*
X152187619Y-125905714D01*
X152140000Y-125858095D01*
X152092380Y-125762857D01*
X152092380Y-125524761D01*
X152140000Y-125381904D01*
X152092380Y-125048571D02*
X153092380Y-124810476D01*
X152378095Y-124620000D01*
X153092380Y-124429523D01*
X152092380Y-124191428D01*
X153092380Y-123286666D02*
X153092380Y-123858095D01*
X153092380Y-123572380D02*
X152092380Y-123572380D01*
X152235238Y-123667619D01*
X152330476Y-123762857D01*
X152378095Y-123858095D01*
D10*
%TO.C,D1*%
X153736190Y-113169047D02*
X153236190Y-113169047D01*
X153236190Y-113050000D01*
X153260000Y-112978571D01*
X153307619Y-112930952D01*
X153355238Y-112907142D01*
X153450476Y-112883333D01*
X153521904Y-112883333D01*
X153617142Y-112907142D01*
X153664761Y-112930952D01*
X153712380Y-112978571D01*
X153736190Y-113050000D01*
X153736190Y-113169047D01*
X153736190Y-112407142D02*
X153736190Y-112692857D01*
X153736190Y-112550000D02*
X153236190Y-112550000D01*
X153307619Y-112597619D01*
X153355238Y-112645238D01*
X153379047Y-112692857D01*
%TO.C,C8*%
X155548571Y-102853333D02*
X155572380Y-102877142D01*
X155596190Y-102948571D01*
X155596190Y-102996190D01*
X155572380Y-103067619D01*
X155524761Y-103115238D01*
X155477142Y-103139047D01*
X155381904Y-103162857D01*
X155310476Y-103162857D01*
X155215238Y-103139047D01*
X155167619Y-103115238D01*
X155120000Y-103067619D01*
X155096190Y-102996190D01*
X155096190Y-102948571D01*
X155120000Y-102877142D01*
X155143809Y-102853333D01*
X155310476Y-102567619D02*
X155286666Y-102615238D01*
X155262857Y-102639047D01*
X155215238Y-102662857D01*
X155191428Y-102662857D01*
X155143809Y-102639047D01*
X155120000Y-102615238D01*
X155096190Y-102567619D01*
X155096190Y-102472380D01*
X155120000Y-102424761D01*
X155143809Y-102400952D01*
X155191428Y-102377142D01*
X155215238Y-102377142D01*
X155262857Y-102400952D01*
X155286666Y-102424761D01*
X155310476Y-102472380D01*
X155310476Y-102567619D01*
X155334285Y-102615238D01*
X155358095Y-102639047D01*
X155405714Y-102662857D01*
X155500952Y-102662857D01*
X155548571Y-102639047D01*
X155572380Y-102615238D01*
X155596190Y-102567619D01*
X155596190Y-102472380D01*
X155572380Y-102424761D01*
X155548571Y-102400952D01*
X155500952Y-102377142D01*
X155405714Y-102377142D01*
X155358095Y-102400952D01*
X155334285Y-102424761D01*
X155310476Y-102472380D01*
D12*
%TO.C,C14*%
X155880571Y-100651428D02*
X155904380Y-100675238D01*
X155928190Y-100746666D01*
X155928190Y-100794285D01*
X155904380Y-100865714D01*
X155856761Y-100913333D01*
X155809142Y-100937142D01*
X155713904Y-100960952D01*
X155642476Y-100960952D01*
X155547238Y-100937142D01*
X155499619Y-100913333D01*
X155452000Y-100865714D01*
X155428190Y-100794285D01*
X155428190Y-100746666D01*
X155452000Y-100675238D01*
X155475809Y-100651428D01*
X155928190Y-100175238D02*
X155928190Y-100460952D01*
X155928190Y-100318095D02*
X155428190Y-100318095D01*
X155499619Y-100365714D01*
X155547238Y-100413333D01*
X155571047Y-100460952D01*
X155594857Y-99746666D02*
X155928190Y-99746666D01*
X155404380Y-99865714D02*
X155761523Y-99984761D01*
X155761523Y-99675238D01*
D10*
%TO.C,C15*%
X146848571Y-89188571D02*
X146824761Y-89212380D01*
X146753333Y-89236190D01*
X146705714Y-89236190D01*
X146634285Y-89212380D01*
X146586666Y-89164761D01*
X146562857Y-89117142D01*
X146539047Y-89021904D01*
X146539047Y-88950476D01*
X146562857Y-88855238D01*
X146586666Y-88807619D01*
X146634285Y-88760000D01*
X146705714Y-88736190D01*
X146753333Y-88736190D01*
X146824761Y-88760000D01*
X146848571Y-88783809D01*
X147324761Y-89236190D02*
X147039047Y-89236190D01*
X147181904Y-89236190D02*
X147181904Y-88736190D01*
X147134285Y-88807619D01*
X147086666Y-88855238D01*
X147039047Y-88879047D01*
X147777142Y-88736190D02*
X147539047Y-88736190D01*
X147515238Y-88974285D01*
X147539047Y-88950476D01*
X147586666Y-88926666D01*
X147705714Y-88926666D01*
X147753333Y-88950476D01*
X147777142Y-88974285D01*
X147800952Y-89021904D01*
X147800952Y-89140952D01*
X147777142Y-89188571D01*
X147753333Y-89212380D01*
X147705714Y-89236190D01*
X147586666Y-89236190D01*
X147539047Y-89212380D01*
X147515238Y-89188571D01*
%TO.C,C18*%
X155938571Y-97421428D02*
X155962380Y-97445238D01*
X155986190Y-97516666D01*
X155986190Y-97564285D01*
X155962380Y-97635714D01*
X155914761Y-97683333D01*
X155867142Y-97707142D01*
X155771904Y-97730952D01*
X155700476Y-97730952D01*
X155605238Y-97707142D01*
X155557619Y-97683333D01*
X155510000Y-97635714D01*
X155486190Y-97564285D01*
X155486190Y-97516666D01*
X155510000Y-97445238D01*
X155533809Y-97421428D01*
X155986190Y-96945238D02*
X155986190Y-97230952D01*
X155986190Y-97088095D02*
X155486190Y-97088095D01*
X155557619Y-97135714D01*
X155605238Y-97183333D01*
X155629047Y-97230952D01*
X155700476Y-96659523D02*
X155676666Y-96707142D01*
X155652857Y-96730952D01*
X155605238Y-96754761D01*
X155581428Y-96754761D01*
X155533809Y-96730952D01*
X155510000Y-96707142D01*
X155486190Y-96659523D01*
X155486190Y-96564285D01*
X155510000Y-96516666D01*
X155533809Y-96492857D01*
X155581428Y-96469047D01*
X155605238Y-96469047D01*
X155652857Y-96492857D01*
X155676666Y-96516666D01*
X155700476Y-96564285D01*
X155700476Y-96659523D01*
X155724285Y-96707142D01*
X155748095Y-96730952D01*
X155795714Y-96754761D01*
X155890952Y-96754761D01*
X155938571Y-96730952D01*
X155962380Y-96707142D01*
X155986190Y-96659523D01*
X155986190Y-96564285D01*
X155962380Y-96516666D01*
X155938571Y-96492857D01*
X155890952Y-96469047D01*
X155795714Y-96469047D01*
X155748095Y-96492857D01*
X155724285Y-96516666D01*
X155700476Y-96564285D01*
%TO.C,JP1*%
X151626190Y-94776666D02*
X151983333Y-94776666D01*
X152054761Y-94800476D01*
X152102380Y-94848095D01*
X152126190Y-94919523D01*
X152126190Y-94967142D01*
X152126190Y-94538571D02*
X151626190Y-94538571D01*
X151626190Y-94348095D01*
X151650000Y-94300476D01*
X151673809Y-94276666D01*
X151721428Y-94252857D01*
X151792857Y-94252857D01*
X151840476Y-94276666D01*
X151864285Y-94300476D01*
X151888095Y-94348095D01*
X151888095Y-94538571D01*
X152126190Y-93776666D02*
X152126190Y-94062380D01*
X152126190Y-93919523D02*
X151626190Y-93919523D01*
X151697619Y-93967142D01*
X151745238Y-94014761D01*
X151769047Y-94062380D01*
D12*
%TO.C,R4*%
X149356666Y-90676190D02*
X149190000Y-90438095D01*
X149070952Y-90676190D02*
X149070952Y-90176190D01*
X149261428Y-90176190D01*
X149309047Y-90200000D01*
X149332857Y-90223809D01*
X149356666Y-90271428D01*
X149356666Y-90342857D01*
X149332857Y-90390476D01*
X149309047Y-90414285D01*
X149261428Y-90438095D01*
X149070952Y-90438095D01*
X149785238Y-90342857D02*
X149785238Y-90676190D01*
X149666190Y-90152380D02*
X149547142Y-90509523D01*
X149856666Y-90509523D01*
D10*
%TO.C,C16*%
X145728571Y-117148571D02*
X145704761Y-117172380D01*
X145633333Y-117196190D01*
X145585714Y-117196190D01*
X145514285Y-117172380D01*
X145466666Y-117124761D01*
X145442857Y-117077142D01*
X145419047Y-116981904D01*
X145419047Y-116910476D01*
X145442857Y-116815238D01*
X145466666Y-116767619D01*
X145514285Y-116720000D01*
X145585714Y-116696190D01*
X145633333Y-116696190D01*
X145704761Y-116720000D01*
X145728571Y-116743809D01*
X146204761Y-117196190D02*
X145919047Y-117196190D01*
X146061904Y-117196190D02*
X146061904Y-116696190D01*
X146014285Y-116767619D01*
X145966666Y-116815238D01*
X145919047Y-116839047D01*
X146633333Y-116696190D02*
X146538095Y-116696190D01*
X146490476Y-116720000D01*
X146466666Y-116743809D01*
X146419047Y-116815238D01*
X146395238Y-116910476D01*
X146395238Y-117100952D01*
X146419047Y-117148571D01*
X146442857Y-117172380D01*
X146490476Y-117196190D01*
X146585714Y-117196190D01*
X146633333Y-117172380D01*
X146657142Y-117148571D01*
X146680952Y-117100952D01*
X146680952Y-116981904D01*
X146657142Y-116934285D01*
X146633333Y-116910476D01*
X146585714Y-116886666D01*
X146490476Y-116886666D01*
X146442857Y-116910476D01*
X146419047Y-116934285D01*
X146395238Y-116981904D01*
%TO.C,C2*%
X142988571Y-101343333D02*
X143012380Y-101367142D01*
X143036190Y-101438571D01*
X143036190Y-101486190D01*
X143012380Y-101557619D01*
X142964761Y-101605238D01*
X142917142Y-101629047D01*
X142821904Y-101652857D01*
X142750476Y-101652857D01*
X142655238Y-101629047D01*
X142607619Y-101605238D01*
X142560000Y-101557619D01*
X142536190Y-101486190D01*
X142536190Y-101438571D01*
X142560000Y-101367142D01*
X142583809Y-101343333D01*
X142583809Y-101152857D02*
X142560000Y-101129047D01*
X142536190Y-101081428D01*
X142536190Y-100962380D01*
X142560000Y-100914761D01*
X142583809Y-100890952D01*
X142631428Y-100867142D01*
X142679047Y-100867142D01*
X142750476Y-100890952D01*
X143036190Y-101176666D01*
X143036190Y-100867142D01*
D11*
%TO.C,SW2*%
X144854761Y-125943333D02*
X144902380Y-125800476D01*
X144902380Y-125562380D01*
X144854761Y-125467142D01*
X144807142Y-125419523D01*
X144711904Y-125371904D01*
X144616666Y-125371904D01*
X144521428Y-125419523D01*
X144473809Y-125467142D01*
X144426190Y-125562380D01*
X144378571Y-125752857D01*
X144330952Y-125848095D01*
X144283333Y-125895714D01*
X144188095Y-125943333D01*
X144092857Y-125943333D01*
X143997619Y-125895714D01*
X143950000Y-125848095D01*
X143902380Y-125752857D01*
X143902380Y-125514761D01*
X143950000Y-125371904D01*
X143902380Y-125038571D02*
X144902380Y-124800476D01*
X144188095Y-124610000D01*
X144902380Y-124419523D01*
X143902380Y-124181428D01*
X143997619Y-123848095D02*
X143950000Y-123800476D01*
X143902380Y-123705238D01*
X143902380Y-123467142D01*
X143950000Y-123371904D01*
X143997619Y-123324285D01*
X144092857Y-123276666D01*
X144188095Y-123276666D01*
X144330952Y-123324285D01*
X144902380Y-123895714D01*
X144902380Y-123276666D01*
D12*
%TO.C,R2*%
X151616666Y-98666190D02*
X151450000Y-98428095D01*
X151330952Y-98666190D02*
X151330952Y-98166190D01*
X151521428Y-98166190D01*
X151569047Y-98190000D01*
X151592857Y-98213809D01*
X151616666Y-98261428D01*
X151616666Y-98332857D01*
X151592857Y-98380476D01*
X151569047Y-98404285D01*
X151521428Y-98428095D01*
X151330952Y-98428095D01*
X151807142Y-98213809D02*
X151830952Y-98190000D01*
X151878571Y-98166190D01*
X151997619Y-98166190D01*
X152045238Y-98190000D01*
X152069047Y-98213809D01*
X152092857Y-98261428D01*
X152092857Y-98309047D01*
X152069047Y-98380476D01*
X151783333Y-98666190D01*
X152092857Y-98666190D01*
D10*
%TO.C,C3*%
X143136666Y-103918571D02*
X143112857Y-103942380D01*
X143041428Y-103966190D01*
X142993809Y-103966190D01*
X142922380Y-103942380D01*
X142874761Y-103894761D01*
X142850952Y-103847142D01*
X142827142Y-103751904D01*
X142827142Y-103680476D01*
X142850952Y-103585238D01*
X142874761Y-103537619D01*
X142922380Y-103490000D01*
X142993809Y-103466190D01*
X143041428Y-103466190D01*
X143112857Y-103490000D01*
X143136666Y-103513809D01*
X143303333Y-103466190D02*
X143612857Y-103466190D01*
X143446190Y-103656666D01*
X143517619Y-103656666D01*
X143565238Y-103680476D01*
X143589047Y-103704285D01*
X143612857Y-103751904D01*
X143612857Y-103870952D01*
X143589047Y-103918571D01*
X143565238Y-103942380D01*
X143517619Y-103966190D01*
X143374761Y-103966190D01*
X143327142Y-103942380D01*
X143303333Y-103918571D01*
%TO.C,C9*%
X147246666Y-112128571D02*
X147222857Y-112152380D01*
X147151428Y-112176190D01*
X147103809Y-112176190D01*
X147032380Y-112152380D01*
X146984761Y-112104761D01*
X146960952Y-112057142D01*
X146937142Y-111961904D01*
X146937142Y-111890476D01*
X146960952Y-111795238D01*
X146984761Y-111747619D01*
X147032380Y-111700000D01*
X147103809Y-111676190D01*
X147151428Y-111676190D01*
X147222857Y-111700000D01*
X147246666Y-111723809D01*
X147484761Y-112176190D02*
X147580000Y-112176190D01*
X147627619Y-112152380D01*
X147651428Y-112128571D01*
X147699047Y-112057142D01*
X147722857Y-111961904D01*
X147722857Y-111771428D01*
X147699047Y-111723809D01*
X147675238Y-111700000D01*
X147627619Y-111676190D01*
X147532380Y-111676190D01*
X147484761Y-111700000D01*
X147460952Y-111723809D01*
X147437142Y-111771428D01*
X147437142Y-111890476D01*
X147460952Y-111938095D01*
X147484761Y-111961904D01*
X147532380Y-111985714D01*
X147627619Y-111985714D01*
X147675238Y-111961904D01*
X147699047Y-111938095D01*
X147722857Y-111890476D01*
%TO.C,C5*%
X143166666Y-113238571D02*
X143142857Y-113262380D01*
X143071428Y-113286190D01*
X143023809Y-113286190D01*
X142952380Y-113262380D01*
X142904761Y-113214761D01*
X142880952Y-113167142D01*
X142857142Y-113071904D01*
X142857142Y-113000476D01*
X142880952Y-112905238D01*
X142904761Y-112857619D01*
X142952380Y-112810000D01*
X143023809Y-112786190D01*
X143071428Y-112786190D01*
X143142857Y-112810000D01*
X143166666Y-112833809D01*
X143619047Y-112786190D02*
X143380952Y-112786190D01*
X143357142Y-113024285D01*
X143380952Y-113000476D01*
X143428571Y-112976666D01*
X143547619Y-112976666D01*
X143595238Y-113000476D01*
X143619047Y-113024285D01*
X143642857Y-113071904D01*
X143642857Y-113190952D01*
X143619047Y-113238571D01*
X143595238Y-113262380D01*
X143547619Y-113286190D01*
X143428571Y-113286190D01*
X143380952Y-113262380D01*
X143357142Y-113238571D01*
%TO.C,C11*%
X155978571Y-106461428D02*
X156002380Y-106485238D01*
X156026190Y-106556666D01*
X156026190Y-106604285D01*
X156002380Y-106675714D01*
X155954761Y-106723333D01*
X155907142Y-106747142D01*
X155811904Y-106770952D01*
X155740476Y-106770952D01*
X155645238Y-106747142D01*
X155597619Y-106723333D01*
X155550000Y-106675714D01*
X155526190Y-106604285D01*
X155526190Y-106556666D01*
X155550000Y-106485238D01*
X155573809Y-106461428D01*
X156026190Y-105985238D02*
X156026190Y-106270952D01*
X156026190Y-106128095D02*
X155526190Y-106128095D01*
X155597619Y-106175714D01*
X155645238Y-106223333D01*
X155669047Y-106270952D01*
X156026190Y-105509047D02*
X156026190Y-105794761D01*
X156026190Y-105651904D02*
X155526190Y-105651904D01*
X155597619Y-105699523D01*
X155645238Y-105747142D01*
X155669047Y-105794761D01*
%TO.C,C17*%
X149928571Y-111731428D02*
X149952380Y-111755238D01*
X149976190Y-111826666D01*
X149976190Y-111874285D01*
X149952380Y-111945714D01*
X149904761Y-111993333D01*
X149857142Y-112017142D01*
X149761904Y-112040952D01*
X149690476Y-112040952D01*
X149595238Y-112017142D01*
X149547619Y-111993333D01*
X149500000Y-111945714D01*
X149476190Y-111874285D01*
X149476190Y-111826666D01*
X149500000Y-111755238D01*
X149523809Y-111731428D01*
X149976190Y-111255238D02*
X149976190Y-111540952D01*
X149976190Y-111398095D02*
X149476190Y-111398095D01*
X149547619Y-111445714D01*
X149595238Y-111493333D01*
X149619047Y-111540952D01*
X149476190Y-111088571D02*
X149476190Y-110755238D01*
X149976190Y-110969523D01*
%TO.C,C7*%
X148636666Y-112108571D02*
X148612857Y-112132380D01*
X148541428Y-112156190D01*
X148493809Y-112156190D01*
X148422380Y-112132380D01*
X148374761Y-112084761D01*
X148350952Y-112037142D01*
X148327142Y-111941904D01*
X148327142Y-111870476D01*
X148350952Y-111775238D01*
X148374761Y-111727619D01*
X148422380Y-111680000D01*
X148493809Y-111656190D01*
X148541428Y-111656190D01*
X148612857Y-111680000D01*
X148636666Y-111703809D01*
X148803333Y-111656190D02*
X149136666Y-111656190D01*
X148922380Y-112156190D01*
D13*
%TO.C,U2*%
X147200000Y-96240000D02*
X149150000Y-96240000D01*
X147200000Y-96240000D02*
X145250000Y-96240000D01*
X147200000Y-91120000D02*
X143750000Y-91120000D01*
X147200000Y-91120000D02*
X149150000Y-91120000D01*
%TO.C,Y1*%
X146820000Y-117450000D02*
X150820000Y-117450000D01*
X146820000Y-114150000D02*
X146820000Y-117450000D01*
%TO.C,C13*%
X143337836Y-107340000D02*
X143122164Y-107340000D01*
X143337836Y-106620000D02*
X143122164Y-106620000D01*
%TO.C,J2*%
X154700000Y-79640000D02*
X154700000Y-75380000D01*
X142380000Y-79640000D02*
X154700000Y-79640000D01*
X154700000Y-62920000D02*
X154700000Y-71280000D01*
X142380000Y-71280000D02*
X142380000Y-62920000D01*
X142380000Y-62920000D02*
X154700000Y-62920000D01*
X147790000Y-80360000D02*
X147290000Y-79860000D01*
X147290000Y-79860000D02*
X146790000Y-80360000D01*
X142380000Y-75380000D02*
X142380000Y-79640000D01*
X146790000Y-80360000D02*
X147790000Y-80360000D01*
%TO.C,R9*%
X139550000Y-74836359D02*
X139550000Y-75143641D01*
X138790000Y-74836359D02*
X138790000Y-75143641D01*
%TO.C,C12*%
X154000580Y-89640000D02*
X153719420Y-89640000D01*
X154000580Y-88620000D02*
X153719420Y-88620000D01*
%TO.C,R1*%
X154107500Y-109384724D02*
X154107500Y-108875276D01*
X155152500Y-109384724D02*
X155152500Y-108875276D01*
%TO.C,R3*%
X150230000Y-88916359D02*
X150230000Y-89223641D01*
X150990000Y-88916359D02*
X150990000Y-89223641D01*
%TO.C,C1*%
X152140000Y-110702164D02*
X152140000Y-110917836D01*
X152860000Y-110702164D02*
X152860000Y-110917836D01*
%TO.C,C10*%
X148130000Y-99400580D02*
X148130000Y-99119420D01*
X149150000Y-99400580D02*
X149150000Y-99119420D01*
%TO.C,U3*%
X145710000Y-101820000D02*
X145060000Y-101820000D01*
X152170000Y-108930000D02*
X152170000Y-108380000D01*
X145120000Y-108930000D02*
X145120000Y-108390000D01*
X145710000Y-108930000D02*
X145120000Y-108930000D01*
X151630000Y-108930000D02*
X152170000Y-108930000D01*
X151615000Y-101930000D02*
X152125000Y-101930000D01*
X152180000Y-101970000D02*
X152180000Y-102380000D01*
%TO.C,R6*%
X148972500Y-123077742D02*
X148972500Y-123552258D01*
X147927500Y-123077742D02*
X147927500Y-123552258D01*
%TO.C,U1*%
X149030000Y-87760000D02*
X152790000Y-87760000D01*
X152790000Y-87760000D02*
X152790000Y-86500000D01*
X146780000Y-80940000D02*
X152790000Y-80940000D01*
X152790000Y-80940000D02*
X152790000Y-82200000D01*
%TO.C,J3*%
X146040000Y-120790000D02*
X146040000Y-118130000D01*
X143440000Y-120790000D02*
X143440000Y-119460000D01*
X146040000Y-120790000D02*
X153720000Y-120790000D01*
X146040000Y-118130000D02*
X153720000Y-118130000D01*
X144770000Y-120790000D02*
X143440000Y-120790000D01*
X153720000Y-120790000D02*
X153720000Y-118130000D01*
%TO.C,C4*%
X144110580Y-89040000D02*
X143829420Y-89040000D01*
X144110580Y-88020000D02*
X143829420Y-88020000D01*
%TO.C,C19*%
X154342164Y-104730000D02*
X154557836Y-104730000D01*
X154342164Y-105450000D02*
X154557836Y-105450000D01*
%TO.C,L1*%
X149740000Y-99839622D02*
X149740000Y-99040378D01*
X150860000Y-99839622D02*
X150860000Y-99040378D01*
%TO.C,D2*%
X142850000Y-87470000D02*
X146150000Y-87470000D01*
X142850000Y-87470000D02*
X142850000Y-82070000D01*
X146150000Y-87470000D02*
X146150000Y-82070000D01*
%TO.C,R7*%
X154184724Y-98137500D02*
X153675276Y-98137500D01*
X154184724Y-99182500D02*
X153675276Y-99182500D01*
%TO.C,R5*%
X148253641Y-113920000D02*
X147946359Y-113920000D01*
X148253641Y-113160000D02*
X147946359Y-113160000D01*
%TO.C,D1*%
X155365000Y-114220000D02*
X155365000Y-111760000D01*
X153895000Y-114220000D02*
X155365000Y-114220000D01*
X153895000Y-111760000D02*
X153895000Y-114220000D01*
%TO.C,C8*%
X153942164Y-102170000D02*
X154157836Y-102170000D01*
X153942164Y-102890000D02*
X154157836Y-102890000D01*
%TO.C,C14*%
X153783420Y-100840000D02*
X154064580Y-100840000D01*
X153783420Y-99820000D02*
X154064580Y-99820000D01*
%TO.C,C15*%
X147380580Y-90620000D02*
X147099420Y-90620000D01*
X147380580Y-89600000D02*
X147099420Y-89600000D01*
%TO.C,C18*%
X154210580Y-97580000D02*
X153929420Y-97580000D01*
X154210580Y-96560000D02*
X153929420Y-96560000D01*
%TO.C,JP1*%
X155160000Y-93110000D02*
X155160000Y-95710000D01*
X152500000Y-93110000D02*
X152500000Y-95710000D01*
X152500000Y-93110000D02*
X155160000Y-93110000D01*
X152500000Y-91840000D02*
X152500000Y-90510000D01*
X152500000Y-90510000D02*
X153830000Y-90510000D01*
X152500000Y-95710000D02*
X155160000Y-95710000D01*
%TO.C,J5*%
X158810000Y-77410000D02*
X156150000Y-77410000D01*
X158810000Y-125730000D02*
X158810000Y-77410000D01*
X156150000Y-125730000D02*
X156150000Y-77410000D01*
X158810000Y-125730000D02*
X156150000Y-125730000D01*
X158810000Y-128330000D02*
X157480000Y-128330000D01*
X158810000Y-127000000D02*
X158810000Y-128330000D01*
%TO.C,R4*%
X149070000Y-89233641D02*
X149070000Y-88926359D01*
X149830000Y-89233641D02*
X149830000Y-88926359D01*
%TO.C,C16*%
X146420000Y-115542164D02*
X146420000Y-115757836D01*
X145700000Y-115542164D02*
X145700000Y-115757836D01*
%TO.C,C2*%
X144060000Y-101437836D02*
X144060000Y-101222164D01*
X143340000Y-101437836D02*
X143340000Y-101222164D01*
%TO.C,R2*%
X151360000Y-99566359D02*
X151360000Y-99873641D01*
X152120000Y-99566359D02*
X152120000Y-99873641D01*
%TO.C,C3*%
X143087836Y-104940000D02*
X142872164Y-104940000D01*
X143087836Y-104220000D02*
X142872164Y-104220000D01*
%TO.C,C9*%
X146960000Y-110552164D02*
X146960000Y-110767836D01*
X147680000Y-110552164D02*
X147680000Y-110767836D01*
%TO.C,C5*%
X142770000Y-111049420D02*
X142770000Y-111330580D01*
X143790000Y-111049420D02*
X143790000Y-111330580D01*
%TO.C,C11*%
X153922164Y-106480000D02*
X154137836Y-106480000D01*
X153922164Y-105760000D02*
X154137836Y-105760000D01*
%TO.C,C17*%
X149990000Y-112952164D02*
X149990000Y-113167836D01*
X149270000Y-112952164D02*
X149270000Y-113167836D01*
%TO.C,C7*%
X148340000Y-110452164D02*
X148340000Y-110667836D01*
X149060000Y-110452164D02*
X149060000Y-110667836D01*
%TO.C,J4*%
X138370000Y-80010000D02*
X141030000Y-80010000D01*
X138370000Y-77410000D02*
X139700000Y-77410000D01*
X138370000Y-128330000D02*
X141030000Y-128330000D01*
X138370000Y-78740000D02*
X138370000Y-77410000D01*
X138370000Y-80010000D02*
X138370000Y-128330000D01*
X141030000Y-80010000D02*
X141030000Y-128330000D01*
%TD*%
M02*
